<svg width="200" height="31" viewBox="0 0 200 31" fill="none" xmlns="http://www.w3.org/2000/svg">
<path d="M38.1433 6.11825C40.717 5.82395 41.6975 4.30177 41.5945 2.79876C41.5115 1.5791 40.4521 -0.338683 37.8156 0.0514437C36.2478 0.282782 34.5116 1.58047 33.7143 3.74738C32.6241 2.39905 30.8277 1.09452 28.7249 0.957632C24.5219 0.712605 19.9913 3.8035 18.4904 8.83134C18.4363 9.0566 18.3965 9.28522 18.3714 9.51577C16.611 11.105 14.3678 13.8619 14.2501 17.6811C14.2492 17.7224 14.2564 17.7634 14.2713 17.8019C14.2861 17.8403 14.3084 17.8753 14.3367 17.9047C14.365 17.9342 14.3988 17.9576 14.4361 17.9735C14.4733 17.9894 14.5133 17.9975 14.5537 17.9973H18.4731C18.5134 17.9975 18.5534 17.9893 18.5907 17.9733C18.6279 17.9573 18.6616 17.9338 18.6897 17.9041C18.7178 17.8744 18.7398 17.8393 18.7542 17.8007C18.7687 17.7621 18.7755 17.721 18.774 17.6797C18.7419 16.6613 18.7633 13.4184 20.1772 11.3528C21.2053 12.1998 22.3394 12.9024 23.5495 13.4417C23.1257 14.8153 22.9004 16.2449 22.8806 17.6852C22.8799 17.7262 22.8872 17.7671 22.9021 17.8052C22.917 17.8434 22.9391 17.8782 22.9673 17.9075C22.9954 17.9368 23.029 17.96 23.066 17.9759C23.103 17.9918 23.1428 18 23.1829 18H28.4239C28.4618 18.0001 28.499 17.99 28.5319 17.9706C28.5647 17.9512 28.5918 17.9232 28.6106 17.8895C28.6294 17.8558 28.6391 17.8176 28.6387 17.7788C28.6383 17.74 28.6279 17.702 28.6085 17.6687C28.2727 17.0965 27.5638 15.8783 27.2253 14.5847C27.7296 14.6778 28.2473 14.7585 28.7984 14.8064C30.8111 14.9759 32.8187 14.4222 34.4754 13.2405C34.4621 14.9461 33.8334 16.753 33.4722 17.562C33.451 17.6089 33.4417 17.6605 33.4453 17.712C33.4488 17.7636 33.465 17.8134 33.4923 17.8568C33.5197 17.9002 33.5573 17.9359 33.6017 17.9604C33.6462 17.985 33.6959 17.9976 33.7464 17.9973H38.8911C38.9313 17.9971 38.9712 17.9887 39.0083 17.9727C39.0454 17.9567 39.079 17.9333 39.1073 17.9039C39.1355 17.8745 39.1578 17.8397 39.1728 17.8014C39.1878 17.7632 39.1952 17.7223 39.1947 17.6811C39.1225 14.0809 37.73 11.7703 36.5488 10.448C34.9557 8.54799 35.5188 6.41803 38.1433 6.11825ZM37.5253 1.43263C37.706 1.43263 37.8826 1.48746 38.0329 1.59019C38.1831 1.69293 38.3002 1.83894 38.3694 2.00978C38.4385 2.18062 38.4566 2.3686 38.4214 2.54996C38.3861 2.73132 38.2991 2.89791 38.1713 3.02866C38.0436 3.15941 37.8808 3.24846 37.7035 3.28453C37.5263 3.32061 37.3426 3.30209 37.1757 3.23133C37.0087 3.16057 36.866 3.04073 36.7657 2.88698C36.6653 2.73324 36.6117 2.55248 36.6117 2.36756C36.6115 2.24473 36.635 2.12308 36.6809 2.00957C36.7267 1.89605 36.794 1.79291 36.8789 1.70606C36.9638 1.61921 37.0645 1.55035 37.1755 1.50343C37.2864 1.45651 37.4053 1.43245 37.5253 1.43263ZM24.6504 10.8956C23.73 10.6615 21.7075 9.26801 21.2928 8.84229C21.551 7.31738 23.2204 5.55702 24.1875 4.7754C25.3229 3.86525 26.7195 3.36303 28.1617 3.3463C30.0625 3.39969 31.1206 4.6741 31.7734 5.5488C31.863 5.6679 31.8376 5.86227 31.6918 5.88007C30.2337 6.07312 28.8362 6.59691 27.6012 7.4132C26.3987 8.23862 25.4101 9.47471 24.6504 10.8956ZM30.9186 12.5122C29.5582 12.8722 27.7337 12.53 27.5611 11.9222C27.3885 11.3145 28.8533 10.0058 31.1367 9.6554C32.7766 9.40627 33.7223 9.68414 33.9297 10.2509C34.1812 10.9421 32.7432 12.029 30.9186 12.5122Z" fill="#AFAFAF"/>
<path d="M49.0837 12.1383V7.67853H47.7969V5.89901H49.0837V4.00723H51.224V5.90037H53.1381V7.6799H51.224V11.9412C51.224 12.7967 51.6734 13.258 52.3503 13.258C52.6576 13.2455 52.9613 13.1845 53.2505 13.0773V14.9198C52.8688 15.0613 52.4659 15.1336 52.06 15.1334C50.3679 15.1347 49.0837 14.0807 49.0837 12.1383Z" fill="#AFAFAF"/>
<path d="M53.91 10.4601C53.91 7.7114 55.8402 5.76898 58.5423 5.76898C61.2443 5.76898 63.1746 7.7114 63.1746 10.4601C63.1746 13.2088 61.2283 15.1512 58.5423 15.1512C55.8562 15.1512 53.91 13.2088 53.91 10.4601ZM58.5423 13.2772C59.9896 13.2772 61.0035 12.141 61.0035 10.4628C61.0035 8.78459 59.9896 7.63064 58.5423 7.63064C57.0949 7.63064 56.0649 8.78322 56.0649 10.4628C56.0649 12.1424 57.0789 13.2772 58.5423 13.2772Z" fill="#AFAFAF"/>
<path d="M64.3744 5.90037H66.5147V7.18437C66.9655 6.34389 67.5848 5.76896 68.6242 5.76896C68.986 5.76307 69.3458 5.82429 69.6863 5.94965V8.03991C69.3143 7.88181 68.9146 7.80354 68.5118 7.80994C67.1929 7.80994 66.5147 8.97758 66.5147 11.6606V15.0198H64.3744V5.90037Z" fill="#AFAFAF"/>
<path d="M71.8212 12.1383V7.67853H70.5344V5.89901H71.8212V4.00723H73.9614V5.90037H75.8756V7.6799H73.9601V11.9412C73.9601 12.7967 74.4109 13.258 75.0864 13.258C75.3938 13.2456 75.6975 13.1847 75.9867 13.0773V14.9198C75.605 15.0614 75.2021 15.1337 74.7961 15.1334C73.108 15.1347 71.8212 14.0807 71.8212 12.1383Z" fill="#AFAFAF"/>
<path d="M76.6461 10.4601C76.6461 7.7114 78.5763 5.76898 81.2784 5.76898C83.9805 5.76898 85.9107 7.7114 85.9107 10.4601C85.9107 13.2088 83.9644 15.1512 81.2784 15.1512C78.5924 15.1512 76.6461 13.2088 76.6461 10.4601ZM81.2784 13.2772C82.7258 13.2772 83.7397 12.141 83.7397 10.4628C83.7397 8.78459 82.7258 7.63064 81.2784 7.63064C79.8311 7.63064 78.8011 8.78322 78.8011 10.4628C78.8011 12.1424 79.815 13.2772 81.2784 13.2772Z" fill="#AFAFAF"/>
<path d="M88.3653 2.41113C89.089 2.41113 89.62 2.93678 89.62 3.64311C89.62 4.34945 89.085 4.87509 88.3653 4.87509C87.6456 4.87509 87.1106 4.34808 87.1106 3.64311C87.1106 2.93815 87.6416 2.41113 88.3653 2.41113ZM87.3032 5.90037H89.4274V15.0197H87.3032V5.90037Z" fill="#AFAFAF"/>
<path d="M90.7972 12.0233H92.8572C92.9214 12.8788 93.5648 13.3922 94.5293 13.3922C95.3666 13.3922 95.8964 12.9815 95.8964 12.3395C95.8964 10.5778 91.0393 11.7468 91.0393 8.38897C91.0393 6.90649 92.278 5.7717 94.2082 5.7717C96.315 5.7717 97.6661 6.85721 97.8105 8.61894H95.7519C95.6556 7.87838 95.0924 7.4335 94.2243 7.4335C93.5327 7.4335 93.0498 7.7634 93.0498 8.28904C93.0498 9.95221 97.955 8.63536 97.955 12.2902C97.955 14.0177 96.5558 15.1539 94.5293 15.1539C92.3583 15.1512 90.8989 13.9164 90.7972 12.0233Z" fill="#AFAFAF"/>
<path d="M98.9528 10.4601C98.9528 7.7114 100.835 5.76898 103.409 5.76898C106.287 5.76898 108.057 8.0235 107.67 10.9036H101.065C101.226 12.4682 102.175 13.3237 103.473 13.3237C104.543 13.3237 105.259 12.8296 105.451 12.0398H107.638C107.301 13.8015 105.788 15.1512 103.473 15.1512C100.705 15.1512 98.9528 13.2088 98.9528 10.4601ZM105.451 9.3075C105.419 8.18776 104.615 7.46364 103.409 7.46364C102.234 7.46364 101.446 8.08921 101.156 9.3075H105.451Z" fill="#AFAFAF"/>
<path d="M50.358 29.096C48.738 29.096 47.646 28.196 47.574 26.816H49.11C49.158 27.44 49.638 27.812 50.358 27.812C50.982 27.812 51.378 27.512 51.378 27.044C51.378 25.76 47.754 26.612 47.754 24.164C47.754 23.084 48.678 22.256 50.118 22.256C51.69 22.256 52.698 23.048 52.806 24.332H51.27C51.198 23.792 50.778 23.468 50.13 23.468C49.614 23.468 49.254 23.708 49.254 24.092C49.254 25.304 52.914 24.344 52.914 27.008C52.914 28.268 51.87 29.096 50.358 29.096ZM57.0292 29.096C54.9652 29.096 53.6572 27.68 53.6572 25.676C53.6572 23.672 55.0612 22.256 56.9812 22.256C59.1292 22.256 60.4492 23.9 60.1612 26H55.2292C55.3492 27.14 56.0572 27.764 57.0292 27.764C57.8332 27.764 58.3612 27.404 58.5052 26.828H60.1372C59.8852 28.112 58.7572 29.096 57.0292 29.096ZM55.3012 24.836H58.5052C58.4812 24.02 57.8812 23.492 56.9812 23.492C56.1052 23.492 55.5172 23.948 55.3012 24.836ZM61.3059 29V20.504H62.8899V29H61.3059ZM64.3294 29V20.504H65.9134V29H64.3294ZM70.3768 29.096C68.3128 29.096 67.0048 27.68 67.0048 25.676C67.0048 23.672 68.4088 22.256 70.3288 22.256C72.4768 22.256 73.7968 23.9 73.5088 26H68.5768C68.6968 27.14 69.4048 27.764 70.3768 27.764C71.1808 27.764 71.7088 27.404 71.8528 26.828H73.4848C73.2328 28.112 72.1048 29.096 70.3768 29.096ZM68.6488 24.836H71.8528C71.8288 24.02 71.2288 23.492 70.3288 23.492C69.4528 23.492 68.8648 23.948 68.6488 24.836ZM74.6536 29V22.352H76.2496V23.288C76.5856 22.676 77.3656 22.256 78.1456 22.256C78.4456 22.256 78.7216 22.304 78.9376 22.388V23.912C78.6856 23.804 78.3976 23.744 78.0616 23.744C77.0776 23.744 76.2496 24.596 76.2496 26.552V29H74.6536ZM84.8341 29.096C82.9381 29.096 81.6301 27.764 81.6301 25.676C81.6301 23.588 82.9381 22.256 84.8221 22.256C85.7101 22.256 86.5141 22.628 86.9221 23.204V20.504H88.5181V29H86.9221V28.148C86.5141 28.724 85.7221 29.096 84.8341 29.096ZM83.2381 25.676C83.2381 26.9 83.9941 27.728 85.0861 27.728C86.1661 27.728 86.9221 26.9 86.9221 25.676C86.9221 24.452 86.1661 23.612 85.0861 23.612C83.9941 23.612 83.2381 24.452 83.2381 25.676ZM91.9983 29.096C90.5703 29.096 89.6943 28.34 89.6943 27.176C89.6943 25.94 90.5583 25.196 92.5143 24.992L94.0023 24.824V24.692C94.0023 23.936 93.4503 23.492 92.6463 23.492C91.8663 23.492 91.3143 23.924 91.2303 24.668H89.6943C89.8623 23.276 91.0503 22.256 92.6463 22.256C94.3623 22.256 95.5863 23.192 95.5863 24.872V29H94.0023V28.124C93.6903 28.712 92.8983 29.096 91.9983 29.096ZM91.2903 27.116C91.2903 27.56 91.6863 27.872 92.2743 27.872C93.2943 27.872 94.0023 27.176 94.0023 26L92.5383 26.156C91.6863 26.252 91.2903 26.6 91.2903 27.116ZM99.3307 29.096C97.7107 29.096 96.6187 28.196 96.5467 26.816H98.0827C98.1307 27.44 98.6107 27.812 99.3307 27.812C99.9547 27.812 100.351 27.512 100.351 27.044C100.351 25.76 96.7267 26.612 96.7267 24.164C96.7267 23.084 97.6507 22.256 99.0907 22.256C100.663 22.256 101.671 23.048 101.779 24.332H100.243C100.171 23.792 99.7507 23.468 99.1027 23.468C98.5867 23.468 98.2267 23.708 98.2267 24.092C98.2267 25.304 101.887 24.344 101.887 27.008C101.887 28.268 100.843 29.096 99.3307 29.096ZM102.978 29V20.504H104.574V23.252C104.946 22.712 105.774 22.256 106.71 22.256C108.15 22.256 109.206 23.204 109.206 24.632V29H107.61V25.04C107.61 24.212 107.106 23.66 106.302 23.66C105.282 23.66 104.574 24.464 104.574 26.024V29H102.978ZM114.244 29.096C113.368 29.096 112.576 28.724 112.168 28.148V29H110.572V20.504H112.168V23.204C112.576 22.628 113.38 22.256 114.268 22.256C116.152 22.256 117.448 23.588 117.448 25.676C117.448 27.764 116.152 29.096 114.244 29.096ZM112.168 25.676C112.168 26.9 112.924 27.728 114.004 27.728C115.084 27.728 115.84 26.9 115.84 25.676C115.84 24.452 115.084 23.612 114.004 23.612C112.924 23.612 112.168 24.452 112.168 25.676ZM121.672 29.096C119.656 29.096 118.216 27.68 118.216 25.676C118.216 23.672 119.656 22.256 121.672 22.256C123.676 22.256 125.128 23.672 125.128 25.676C125.128 27.68 123.676 29.096 121.672 29.096ZM119.824 25.676C119.824 26.9 120.58 27.728 121.672 27.728C122.752 27.728 123.508 26.9 123.508 25.676C123.508 24.452 122.752 23.612 121.672 23.612C120.58 23.612 119.824 24.452 119.824 25.676ZM128.256 29.096C126.828 29.096 125.952 28.34 125.952 27.176C125.952 25.94 126.816 25.196 128.772 24.992L130.26 24.824V24.692C130.26 23.936 129.708 23.492 128.904 23.492C128.124 23.492 127.572 23.924 127.488 24.668H125.952C126.12 23.276 127.308 22.256 128.904 22.256C130.62 22.256 131.844 23.192 131.844 24.872V29H130.26V28.124C129.948 28.712 129.156 29.096 128.256 29.096ZM127.548 27.116C127.548 27.56 127.944 27.872 128.532 27.872C129.552 27.872 130.26 27.176 130.26 26L128.796 26.156C127.944 26.252 127.548 26.6 127.548 27.116ZM133.2 29V22.352H134.796V23.288C135.132 22.676 135.912 22.256 136.692 22.256C136.992 22.256 137.268 22.304 137.484 22.388V23.912C137.232 23.804 136.944 23.744 136.608 23.744C135.624 23.744 134.796 24.596 134.796 26.552V29H133.2ZM140.955 29.096C139.059 29.096 137.751 27.764 137.751 25.676C137.751 23.588 139.059 22.256 140.943 22.256C141.831 22.256 142.635 22.628 143.043 23.204V20.504H144.639V29H143.043V28.148C142.635 28.724 141.843 29.096 140.955 29.096ZM139.359 25.676C139.359 26.9 140.115 27.728 141.207 27.728C142.287 27.728 143.043 26.9 143.043 25.676C143.043 24.452 142.287 23.612 141.207 23.612C140.115 23.612 139.359 24.452 139.359 25.676Z" fill="#167E62"/>
</svg>
