<svg width="46" height="56" viewBox="0 0 46 56" fill="none" xmlns="http://www.w3.org/2000/svg">
<g filter="url(#filter0_ddd_84_14692)">
<mask id="path-1-inside-1_84_14692" fill="white">
<path d="M8 5.33333C8 4.59695 8.58398 4 9.30435 4C9.30435 4 9.30435 4 9.30435 4C9.30435 4 23.9193 4 25.6087 4C27.03 4 27.9062 4.94375 28.1485 5.24327C28.1961 5.30203 28.2439 5.36044 28.2967 5.41436L36.6923 13.9966C36.6945 13.9989 36.6964 14.0008 36.6987 14.0031C36.7679 14.0738 38 15.352 38 16.6667C38 18.0193 38 42.6667 38 42.6667C38 43.403 37.416 44 36.6956 44H9.30435C8.58398 44 8 43.403 8 42.6667V5.33333Z"/>
</mask>
<path d="M8 5.33333C8 4.59695 8.58398 4 9.30435 4C9.30435 4 9.30435 4 9.30435 4C9.30435 4 23.9193 4 25.6087 4C27.03 4 27.9062 4.94375 28.1485 5.24327C28.1961 5.30203 28.2439 5.36044 28.2967 5.41436L36.6923 13.9966C36.6945 13.9989 36.6964 14.0008 36.6987 14.0031C36.7679 14.0738 38 15.352 38 16.6667C38 18.0193 38 42.6667 38 42.6667C38 43.403 37.416 44 36.6956 44H9.30435C8.58398 44 8 43.403 8 42.6667V5.33333Z" fill="white"/>
<path d="M36.6923 13.9966L36.871 13.8217L36.6923 13.9966ZM36.6987 14.0031L36.8774 13.8283L36.6987 14.0031ZM28.2967 5.41436L28.1179 5.58918L28.2967 5.41436ZM28.1485 5.24327L28.3429 5.08603L28.1485 5.24327ZM36.6956 43.75H9.30435V44.25H36.6956V43.75ZM8.25 42.6667V5.33333H7.75V42.6667H8.25ZM9.30435 43.75C8.7272 43.75 8.25 43.2702 8.25 42.6667H7.75C7.75 43.5359 8.44075 44.25 9.30435 44.25V43.75ZM37.75 42.6667C37.75 43.2702 37.2728 43.75 36.6956 43.75V44.25C37.5592 44.25 38.25 43.5359 38.25 42.6667H37.75ZM28.1179 5.58918L36.5136 14.1714L36.871 13.8217L28.4754 5.23953L28.1179 5.58918ZM9.30435 3.75C8.44075 3.75 7.75 4.46409 7.75 5.33333H8.25C8.25 4.72982 8.7272 4.25 9.30435 4.25V3.75ZM9.30435 4C9.30435 4.25 9.3044 4.25 9.30451 4.25C9.30463 4.25 9.30479 4.25 9.30501 4.25C9.30524 4.25 9.30551 4.25 9.30585 4.25C9.30618 4.25 9.30657 4.25 9.30701 4.25C9.30745 4.25 9.30795 4.25 9.3085 4.25C9.30906 4.25 9.30966 4.25 9.31032 4.25C9.31099 4.25 9.3117 4.25 9.31247 4.25C9.31324 4.25 9.31407 4.25 9.31495 4.25C9.31583 4.25 9.31676 4.25 9.31775 4.25C9.31873 4.25 9.31977 4.25 9.32087 4.25C9.32196 4.25 9.32311 4.25 9.32431 4.25C9.32551 4.25 9.32677 4.25 9.32808 4.25C9.32939 4.25 9.33075 4.25 9.33216 4.25C9.33358 4.25 9.33505 4.25 9.33657 4.25C9.33809 4.25 9.33966 4.25 9.34129 4.25C9.34291 4.25 9.34459 4.25 9.34632 4.25C9.34806 4.25 9.34984 4.25 9.35168 4.25C9.35351 4.25 9.3554 4.25 9.35734 4.25C9.35928 4.25 9.36127 4.25 9.36332 4.25C9.36536 4.25 9.36746 4.25 9.36961 4.25C9.37176 4.25 9.37396 4.25 9.37621 4.25C9.37846 4.25 9.38076 4.25 9.38311 4.25C9.38547 4.25 9.38787 4.25 9.39033 4.25C9.39278 4.25 9.39529 4.25 9.39785 4.25C9.40041 4.25 9.40302 4.25 9.40568 4.25C9.40834 4.25 9.41105 4.25 9.41381 4.25C9.41657 4.25 9.41938 4.25 9.42224 4.25C9.4251 4.25 9.42801 4.25 9.43097 4.25C9.43393 4.25 9.43694 4.25 9.44 4.25C9.44307 4.25 9.44618 4.25 9.44934 4.25C9.4525 4.25 9.45571 4.25 9.45897 4.25C9.46223 4.25 9.46553 4.25 9.46889 4.25C9.47225 4.25 9.47566 4.25 9.47911 4.25C9.48257 4.25 9.48608 4.25 9.48963 4.25C9.49318 4.25 9.49679 4.25 9.50044 4.25C9.50409 4.25 9.50779 4.25 9.51154 4.25C9.51528 4.25 9.51908 4.25 9.52293 4.25C9.52677 4.25 9.53066 4.25 9.5346 4.25C9.53855 4.25 9.54253 4.25 9.54657 4.25C9.55061 4.25 9.55469 4.25 9.55882 4.25C9.56295 4.25 9.56713 4.25 9.57136 4.25C9.57559 4.25 9.57986 4.25 9.58418 4.25C9.5885 4.25 9.59287 4.25 9.59729 4.25C9.6017 4.25 9.60617 4.25 9.61067 4.25C9.61518 4.25 9.61974 4.25 9.62434 4.25C9.62894 4.25 9.63359 4.25 9.63829 4.25C9.64298 4.25 9.64772 4.25 9.65251 4.25C9.6573 4.25 9.66213 4.25 9.66701 4.25C9.67189 4.25 9.67681 4.25 9.68179 4.25C9.68676 4.25 9.69177 4.25 9.69684 4.25C9.7019 4.25 9.70701 4.25 9.71216 4.25C9.71731 4.25 9.72251 4.25 9.72775 4.25C9.733 4.25 9.73828 4.25 9.74362 4.25C9.74895 4.25 9.75433 4.25 9.75975 4.25C9.76518 4.25 9.77064 4.25 9.77615 4.25C9.78167 4.25 9.78722 4.25 9.79282 4.25C9.79842 4.25 9.80407 4.25 9.80976 4.25C9.81545 4.25 9.82118 4.25 9.82696 4.25C9.83273 4.25 9.83856 4.25 9.84442 4.25C9.85028 4.25 9.85619 4.25 9.86214 4.25C9.8681 4.25 9.87409 4.25 9.88013 4.25C9.88617 4.25 9.89225 4.25 9.89837 4.25C9.9045 4.25 9.91066 4.25 9.91687 4.25C9.92308 4.25 9.92934 4.25 9.93563 4.25C9.94193 4.25 9.94827 4.25 9.95465 4.25C9.96103 4.25 9.96745 4.25 9.97392 4.25C9.98038 4.25 9.98689 4.25 9.99344 4.25C9.99999 4.25 10.0066 4.25 10.0132 4.25C10.0198 4.25 10.0265 4.25 10.0332 4.25C10.04 4.25 10.0467 4.25 10.0535 4.25C10.0603 4.25 10.0672 4.25 10.074 4.25C10.0809 4.25 10.0878 4.25 10.0948 4.25C10.1018 4.25 10.1088 4.25 10.1158 4.25C10.1229 4.25 10.13 4.25 10.1371 4.25C10.1442 4.25 10.1514 4.25 10.1586 4.25C10.1658 4.25 10.173 4.25 10.1803 4.25C10.1876 4.25 10.195 4.25 10.2023 4.25C10.2097 4.25 10.2171 4.25 10.2246 4.25C10.232 4.25 10.2395 4.25 10.247 4.25C10.2545 4.25 10.2621 4.25 10.2697 4.25C10.2773 4.25 10.285 4.25 10.2927 4.25C10.3003 4.25 10.3081 4.25 10.3158 4.25C10.3236 4.25 10.3314 4.25 10.3392 4.25C10.3471 4.25 10.355 4.25 10.3629 4.25C10.3708 4.25 10.3788 4.25 10.3867 4.25C10.3947 4.25 10.4028 4.25 10.4109 4.25C10.4189 4.25 10.427 4.25 10.4352 4.25C10.4433 4.25 10.4515 4.25 10.4597 4.25C10.468 4.25 10.4762 4.25 10.4845 4.25C10.4928 4.25 10.5012 4.25 10.5095 4.25C10.5179 4.25 10.5263 4.25 10.5348 4.25C10.5432 4.25 10.5517 4.25 10.5602 4.25C10.5687 4.25 10.5773 4.25 10.5859 4.25C10.5945 4.25 10.6031 4.25 10.6118 4.25C10.6205 4.25 10.6292 4.25 10.6379 4.25C10.6466 4.25 10.6554 4.25 10.6642 4.25C10.673 4.25 10.6819 4.25 10.6908 4.25C10.6997 4.25 10.7086 4.25 10.7175 4.25C10.7265 4.25 10.7355 4.25 10.7445 4.25C10.7535 4.25 10.7626 4.25 10.7717 4.25C10.7808 4.25 10.7899 4.25 10.7991 4.25C10.8083 4.25 10.8175 4.25 10.8267 4.25C10.836 4.25 10.8452 4.25 10.8545 4.25C10.8638 4.25 10.8732 4.25 10.8826 4.25C10.8919 4.25 10.9014 4.25 10.9108 4.25C10.9202 4.25 10.9297 4.25 10.9392 4.25C10.9487 4.25 10.9583 4.25 10.9679 4.25C10.9775 4.25 10.9871 4.25 10.9967 4.25C11.0064 4.25 11.0161 4.25 11.0258 4.25C11.0355 4.25 11.0452 4.25 11.055 4.25C11.0648 4.25 11.0746 4.25 11.0845 4.25C11.0943 4.25 11.1042 4.25 11.1141 4.25C11.124 4.25 11.134 4.25 11.144 4.25C11.1539 4.25 11.1639 4.25 11.174 4.25C11.184 4.25 11.1941 4.25 11.2042 4.25C11.2143 4.25 11.2245 4.25 11.2346 4.25C11.2448 4.25 11.255 4.25 11.2653 4.25C11.2755 4.25 11.2858 4.25 11.2961 4.25C11.3064 4.25 11.3167 4.25 11.3271 4.25C11.3374 4.25 11.3478 4.25 11.3582 4.25C11.3687 4.25 11.3791 4.25 11.3896 4.25C11.4001 4.25 11.4106 4.25 11.4212 4.25C11.4317 4.25 11.4423 4.25 11.4529 4.25C11.4635 4.25 11.4742 4.25 11.4848 4.25C11.4955 4.25 11.5062 4.25 11.5169 4.25C11.5277 4.25 11.5384 4.25 11.5492 4.25C11.56 4.25 11.5708 4.25 11.5817 4.25C11.5925 4.25 11.6034 4.25 11.6143 4.25C11.6252 4.25 11.6362 4.25 11.6472 4.25C11.6581 4.25 11.6691 4.25 11.6801 4.25C11.6912 4.25 11.7022 4.25 11.7133 4.25C11.7244 4.25 11.7355 4.25 11.7467 4.25C11.7578 4.25 11.769 4.25 11.7802 4.25C11.7914 4.25 11.8026 4.25 11.8139 4.25C11.8251 4.25 11.8364 4.25 11.8477 4.25C11.859 4.25 11.8704 4.25 11.8817 4.25C11.8931 4.25 11.9045 4.25 11.9159 4.25C11.9274 4.25 11.9388 4.25 11.9503 4.25C11.9618 4.25 11.9733 4.25 11.9848 4.25C11.9963 4.25 12.0079 4.25 12.0195 4.25C12.0311 4.25 12.0427 4.25 12.0543 4.25C12.066 4.25 12.0777 4.25 12.0893 4.25C12.101 4.25 12.1128 4.25 12.1245 4.25C12.1363 4.25 12.148 4.25 12.1598 4.25C12.1716 4.25 12.1835 4.25 12.1953 4.25C12.2072 4.25 12.2191 4.25 12.231 4.25C12.2429 4.25 12.2548 4.25 12.2668 4.25C12.2787 4.25 12.2907 4.25 12.3027 4.25C12.3147 4.25 12.3267 4.25 12.3388 4.25C12.3509 4.25 12.3629 4.25 12.3751 4.25C12.3872 4.25 12.3993 4.25 12.4115 4.25C12.4236 4.25 12.4358 4.25 12.448 4.25C12.4602 4.25 12.4724 4.25 12.4847 4.25C12.497 4.25 12.5092 4.25 12.5215 4.25C12.5339 4.25 12.5462 4.25 12.5585 4.25C12.5709 4.25 12.5833 4.25 12.5957 4.25C12.6081 4.25 12.6205 4.25 12.6329 4.25C12.6454 4.25 12.6579 4.25 12.6704 4.25C12.6828 4.25 12.6954 4.25 12.7079 4.25C12.7205 4.25 12.733 4.25 12.7456 4.25C12.7582 4.25 12.7708 4.25 12.7834 4.25C12.7961 4.25 12.8087 4.25 12.8214 4.25C12.8341 4.25 12.8468 4.25 12.8595 4.25C12.8722 4.25 12.885 4.25 12.8977 4.25C12.9105 4.25 12.9233 4.25 12.9361 4.25C12.9489 4.25 12.9618 4.25 12.9746 4.25C12.9875 4.25 13.0003 4.25 13.0132 4.25C13.0261 4.25 13.0391 4.25 13.052 4.25C13.0649 4.25 13.0779 4.25 13.0909 4.25C13.1039 4.25 13.1169 4.25 13.1299 4.25C13.1429 4.25 13.156 4.25 13.169 4.25C13.1821 4.25 13.1952 4.25 13.2083 4.25C13.2214 4.25 13.2345 4.25 13.2477 4.25C13.2608 4.25 13.274 4.25 13.2872 4.25C13.3004 4.25 13.3136 4.25 13.3268 4.25C13.3401 4.25 13.3533 4.25 13.3666 4.25C13.3798 4.25 13.3931 4.25 13.4064 4.25C13.4197 4.25 13.4331 4.25 13.4464 4.25C13.4598 4.25 13.4731 4.25 13.4865 4.25C13.4999 4.25 13.5133 4.25 13.5267 4.25C13.5401 4.25 13.5536 4.25 13.567 4.25C13.5805 4.25 13.594 4.25 13.6075 4.25C13.621 4.25 13.6345 4.25 13.648 4.25C13.6616 4.25 13.6751 4.25 13.6887 4.25C13.7022 4.25 13.7158 4.25 13.7294 4.25C13.743 4.25 13.7567 4.25 13.7703 4.25C13.784 4.25 13.7976 4.25 13.8113 4.25C13.825 4.25 13.8387 4.25 13.8524 4.25C13.8661 4.25 13.8798 4.25 13.8935 4.25C13.9073 4.25 13.9211 4.25 13.9348 4.25C13.9486 4.25 13.9624 4.25 13.9762 4.25C13.99 4.25 14.0039 4.25 14.0177 4.25C14.0315 4.25 14.0454 4.25 14.0593 4.25C14.0732 4.25 14.0871 4.25 14.101 4.25C14.1149 4.25 14.1288 4.25 14.1427 4.25C14.1567 4.25 14.1706 4.25 14.1846 4.25C14.1986 4.25 14.2126 4.25 14.2266 4.25C14.2406 4.25 14.2546 4.25 14.2686 4.25C14.2827 4.25 14.2967 4.25 14.3108 4.25C14.3248 4.25 14.3389 4.25 14.353 4.25C14.3671 4.25 14.3812 4.25 14.3953 4.25C14.4094 4.25 14.4236 4.25 14.4377 4.25C14.4519 4.25 14.466 4.25 14.4802 4.25C14.4944 4.25 14.5086 4.25 14.5228 4.25C14.537 4.25 14.5512 4.25 14.5655 4.25C14.5797 4.25 14.594 4.25 14.6082 4.25C14.6225 4.25 14.6368 4.25 14.651 4.25C14.6653 4.25 14.6796 4.25 14.694 4.25C14.7083 4.25 14.7226 4.25 14.7369 4.25C14.7513 4.25 14.7656 4.25 14.78 4.25C14.7944 4.25 14.8087 4.25 14.8231 4.25C14.8375 4.25 14.8519 4.25 14.8663 4.25C14.8808 4.25 14.8952 4.25 14.9096 4.25C14.9241 4.25 14.9385 4.25 14.953 4.25C14.9675 4.25 14.9819 4.25 14.9964 4.25C15.0109 4.25 15.0254 4.25 15.0399 4.25C15.0544 4.25 15.069 4.25 15.0835 4.25C15.098 4.25 15.1126 4.25 15.1271 4.25C15.1417 4.25 15.1562 4.25 15.1708 4.25C15.1854 4.25 15.2 4.25 15.2146 4.25C15.2292 4.25 15.2438 4.25 15.2584 4.25C15.273 4.25 15.2877 4.25 15.3023 4.25C15.317 4.25 15.3316 4.25 15.3463 4.25C15.3609 4.25 15.3756 4.25 15.3903 4.25C15.405 4.25 15.4197 4.25 15.4344 4.25C15.4491 4.25 15.4638 4.25 15.4785 4.25C15.4932 4.25 15.5079 4.25 15.5227 4.25C15.5374 4.25 15.5522 4.25 15.5669 4.25C15.5817 4.25 15.5964 4.25 15.6112 4.25C15.626 4.25 15.6408 4.25 15.6555 4.25C15.6703 4.25 15.6851 4.25 15.6999 4.25C15.7148 4.25 15.7296 4.25 15.7444 4.25C15.7592 4.25 15.7741 4.25 15.7889 4.25C15.8037 4.25 15.8186 4.25 15.8334 4.25C15.8483 4.25 15.8632 4.25 15.878 4.25C15.8929 4.25 15.9078 4.25 15.9227 4.25C15.9376 4.25 15.9524 4.25 15.9673 4.25C15.9822 4.25 15.9972 4.25 16.0121 4.25C16.027 4.25 16.0419 4.25 16.0568 4.25C16.0718 4.25 16.0867 4.25 16.1016 4.25C16.1166 4.25 16.1315 4.25 16.1465 4.25C16.1614 4.25 16.1764 4.25 16.1914 4.25C16.2063 4.25 16.2213 4.25 16.2363 4.25C16.2513 4.25 16.2663 4.25 16.2812 4.25C16.2962 4.25 16.3112 4.25 16.3262 4.25C16.3412 4.25 16.3562 4.25 16.3713 4.25C16.3863 4.25 16.4013 4.25 16.4163 4.25C16.4313 4.25 16.4464 4.25 16.4614 4.25C16.4764 4.25 16.4915 4.25 16.5065 4.25C16.5215 4.25 16.5366 4.25 16.5516 4.25C16.5667 4.25 16.5817 4.25 16.5968 4.25C16.6119 4.25 16.6269 4.25 16.642 4.25C16.6571 4.25 16.6721 4.25 16.6872 4.25C16.7023 4.25 16.7174 4.25 16.7325 4.25C16.7475 4.25 16.7626 4.25 16.7777 4.25C16.7928 4.25 16.8079 4.25 16.823 4.25C16.8381 4.25 16.8532 4.25 16.8683 4.25C16.8834 4.25 16.8985 4.25 16.9136 4.25C16.9287 4.25 16.9438 4.25 16.959 4.25C16.9741 4.25 16.9892 4.25 17.0043 4.25C17.0194 4.25 17.0345 4.25 17.0497 4.25C17.0648 4.25 17.0799 4.25 17.0951 4.25C17.1102 4.25 17.1253 4.25 17.1404 4.25C17.1556 4.25 17.1707 4.25 17.1858 4.25C17.201 4.25 17.2161 4.25 17.2313 4.25C17.2464 4.25 17.2615 4.25 17.2767 4.25C17.2918 4.25 17.307 4.25 17.3221 4.25C17.3372 4.25 17.3524 4.25 17.3675 4.25C17.3827 4.25 17.3978 4.25 17.413 4.25C17.4281 4.25 17.4433 4.25 17.4584 4.25C17.4736 4.25 17.4887 4.25 17.5039 4.25C17.519 4.25 17.5342 4.25 17.5493 4.25C17.5645 4.25 17.5796 4.25 17.5947 4.25C17.6099 4.25 17.625 4.25 17.6402 4.25C17.6553 4.25 17.6705 4.25 17.6856 4.25C17.7008 4.25 17.7159 4.25 17.7311 4.25C17.7462 4.25 17.7613 4.25 17.7765 4.25C17.7916 4.25 17.8068 4.25 17.8219 4.25C17.8371 4.25 17.8522 4.25 17.8673 4.25C17.8825 4.25 17.8976 4.25 17.9127 4.25C17.9279 4.25 17.943 4.25 17.9581 4.25C17.9733 4.25 17.9884 4.25 18.0035 4.25C18.0186 4.25 18.0338 4.25 18.0489 4.25C18.064 4.25 18.0791 4.25 18.0942 4.25C18.1094 4.25 18.1245 4.25 18.1396 4.25C18.1547 4.25 18.1698 4.25 18.1849 4.25C18.2 4.25 18.2151 4.25 18.2302 4.25C18.2453 4.25 18.2604 4.25 18.2755 4.25C18.2906 4.25 18.3057 4.25 18.3208 4.25C18.3359 4.25 18.351 4.25 18.366 4.25C18.3811 4.25 18.3962 4.25 18.4113 4.25C18.4263 4.25 18.4414 4.25 18.4565 4.25C18.4715 4.25 18.4866 4.25 18.5016 4.25C18.5167 4.25 18.5317 4.25 18.5468 4.25C18.5618 4.25 18.5769 4.25 18.5919 4.25C18.607 4.25 18.622 4.25 18.637 4.25C18.652 4.25 18.6671 4.25 18.6821 4.25C18.6971 4.25 18.7121 4.25 18.7271 4.25C18.7421 4.25 18.7571 4.25 18.7721 4.25C18.7871 4.25 18.8021 4.25 18.8171 4.25C18.8321 4.25 18.847 4.25 18.862 4.25C18.877 4.25 18.892 4.25 18.9069 4.25C18.9219 4.25 18.9368 4.25 18.9518 4.25C18.9667 4.25 18.9817 4.25 18.9966 4.25C19.0115 4.25 19.0265 4.25 19.0414 4.25C19.0563 4.25 19.0712 4.25 19.0861 4.25C19.101 4.25 19.1159 4.25 19.1308 4.25C19.1457 4.25 19.1606 4.25 19.1755 4.25C19.1903 4.25 19.2052 4.25 19.2201 4.25C19.2349 4.25 19.2498 4.25 19.2646 4.25C19.2795 4.25 19.2943 4.25 19.3092 4.25C19.324 4.25 19.3388 4.25 19.3536 4.25C19.3684 4.25 19.3832 4.25 19.398 4.25C19.4128 4.25 19.4276 4.25 19.4424 4.25C19.4572 4.25 19.472 4.25 19.4867 4.25C19.5015 4.25 19.5162 4.25 19.531 4.25C19.5457 4.25 19.5605 4.25 19.5752 4.25C19.5899 4.25 19.6046 4.25 19.6194 4.25C19.6341 4.25 19.6488 4.25 19.6635 4.25C19.6781 4.25 19.6928 4.25 19.7075 4.25C19.7222 4.25 19.7368 4.25 19.7515 4.25C19.7661 4.25 19.7808 4.25 19.7954 4.25C19.81 4.25 19.8246 4.25 19.8392 4.25C19.8538 4.25 19.8684 4.25 19.883 4.25C19.8976 4.25 19.9122 4.25 19.9268 4.25C19.9413 4.25 19.9559 4.25 19.9704 4.25C19.985 4.25 19.9995 4.25 20.014 4.25C20.0285 4.25 20.043 4.25 20.0575 4.25C20.072 4.25 20.0865 4.25 20.101 4.25C20.1155 4.25 20.1299 4.25 20.1444 4.25C20.1588 4.25 20.1733 4.25 20.1877 4.25C20.2021 4.25 20.2165 4.25 20.2309 4.25C20.2453 4.25 20.2597 4.25 20.2741 4.25C20.2885 4.25 20.3029 4.25 20.3172 4.25C20.3316 4.25 20.3459 4.25 20.3602 4.25C20.3745 4.25 20.3889 4.25 20.4032 4.25C20.4175 4.25 20.4317 4.25 20.446 4.25C20.4603 4.25 20.4746 4.25 20.4888 4.25C20.503 4.25 20.5173 4.25 20.5315 4.25C20.5457 4.25 20.5599 4.25 20.5741 4.25C20.5883 4.25 20.6025 4.25 20.6166 4.25C20.6308 4.25 20.645 4.25 20.6591 4.25C20.6732 4.25 20.6873 4.25 20.7014 4.25C20.7156 4.25 20.7296 4.25 20.7437 4.25C20.7578 4.25 20.7719 4.25 20.7859 4.25C20.7999 4.25 20.814 4.25 20.828 4.25C20.842 4.25 20.856 4.25 20.87 4.25C20.884 4.25 20.8979 4.25 20.9119 4.25C20.9258 4.25 20.9398 4.25 20.9537 4.25C20.9676 4.25 20.9815 4.25 20.9954 4.25C21.0093 4.25 21.0232 4.25 21.037 4.25C21.0509 4.25 21.0647 4.25 21.0786 4.25C21.0924 4.25 21.1062 4.25 21.12 4.25C21.1338 4.25 21.1476 4.25 21.1613 4.25C21.1751 4.25 21.1888 4.25 21.2025 4.25C21.2163 4.25 21.23 4.25 21.2437 4.25C21.2574 4.25 21.271 4.25 21.2847 4.25C21.2983 4.25 21.312 4.25 21.3256 4.25C21.3392 4.25 21.3528 4.25 21.3664 4.25C21.38 4.25 21.3936 4.25 21.4071 4.25C21.4207 4.25 21.4342 4.25 21.4477 4.25C21.4612 4.25 21.4747 4.25 21.4882 4.25C21.5016 4.25 21.5151 4.25 21.5285 4.25C21.542 4.25 21.5554 4.25 21.5688 4.25C21.5822 4.25 21.5956 4.25 21.6089 4.25C21.6223 4.25 21.6356 4.25 21.649 4.25C21.6623 4.25 21.6756 4.25 21.6889 4.25C21.7022 4.25 21.7154 4.25 21.7287 4.25C21.7419 4.25 21.7551 4.25 21.7684 4.25C21.7816 4.25 21.7947 4.25 21.8079 4.25C21.8211 4.25 21.8342 4.25 21.8473 4.25C21.8605 4.25 21.8736 4.25 21.8867 4.25C21.8997 4.25 21.9128 4.25 21.9258 4.25C21.9389 4.25 21.9519 4.25 21.9649 4.25C21.9779 4.25 21.9909 4.25 22.0038 4.25C22.0168 4.25 22.0297 4.25 22.0427 4.25C22.0556 4.25 22.0685 4.25 22.0813 4.25C22.0942 4.25 22.1071 4.25 22.1199 4.25C22.1327 4.25 22.1455 4.25 22.1583 4.25C22.1711 4.25 22.1839 4.25 22.1966 4.25C22.2094 4.25 22.2221 4.25 22.2348 4.25C22.2475 4.25 22.2601 4.25 22.2728 4.25C22.2854 4.25 22.2981 4.25 22.3107 4.25C22.3233 4.25 22.3359 4.25 22.3484 4.25C22.361 4.25 22.3735 4.25 22.386 4.25C22.3986 4.25 22.411 4.25 22.4235 4.25C22.436 4.25 22.4484 4.25 22.4608 4.25C22.4733 4.25 22.4857 4.25 22.498 4.25C22.5104 4.25 22.5228 4.25 22.5351 4.25C22.5474 4.25 22.5597 4.25 22.572 4.25C22.5843 4.25 22.5965 4.25 22.6087 4.25C22.621 4.25 22.6332 4.25 22.6453 4.25C22.6575 4.25 22.6697 4.25 22.6818 4.25C22.6939 4.25 22.706 4.25 22.7181 4.25C22.7302 4.25 22.7423 4.25 22.7543 4.25C22.7663 4.25 22.7783 4.25 22.7903 4.25C22.8023 4.25 22.8142 4.25 22.8261 4.25C22.8381 4.25 22.85 4.25 22.8618 4.25C22.8737 4.25 22.8856 4.25 22.8974 4.25C22.9092 4.25 22.921 4.25 22.9328 4.25C22.9446 4.25 22.9563 4.25 22.968 4.25C22.9797 4.25 22.9914 4.25 23.0031 4.25C23.0148 4.25 23.0264 4.25 23.038 4.25C23.0496 4.25 23.0612 4.25 23.0728 4.25C23.0843 4.25 23.0958 4.25 23.1073 4.25C23.1188 4.25 23.1303 4.25 23.1418 4.25C23.1532 4.25 23.1646 4.25 23.176 4.25C23.1874 4.25 23.1988 4.25 23.2101 4.25C23.2215 4.25 23.2328 4.25 23.244 4.25C23.2553 4.25 23.2666 4.25 23.2778 4.25C23.289 4.25 23.3002 4.25 23.3114 4.25C23.3225 4.25 23.3337 4.25 23.3448 4.25C23.3559 4.25 23.367 4.25 23.378 4.25C23.3891 4.25 23.4001 4.25 23.4111 4.25C23.4221 4.25 23.4331 4.25 23.444 4.25C23.4549 4.25 23.4658 4.25 23.4767 4.25C23.4876 4.25 23.4984 4.25 23.5092 4.25C23.5201 4.25 23.5308 4.25 23.5416 4.25C23.5524 4.25 23.5631 4.25 23.5738 4.25C23.5845 4.25 23.5951 4.25 23.6058 4.25C23.6164 4.25 23.627 4.25 23.6376 4.25C23.6482 4.25 23.6587 4.25 23.6692 4.25C23.6797 4.25 23.6902 4.25 23.7007 4.25C23.7111 4.25 23.7215 4.25 23.7319 4.25C23.7423 4.25 23.7527 4.25 23.763 4.25C23.7733 4.25 23.7836 4.25 23.7939 4.25C23.8041 4.25 23.8144 4.25 23.8246 4.25C23.8348 4.25 23.8449 4.25 23.8551 4.25C23.8652 4.25 23.8753 4.25 23.8854 4.25C23.8955 4.25 23.9055 4.25 23.9155 4.25C23.9255 4.25 23.9355 4.25 23.9454 4.25C23.9554 4.25 23.9653 4.25 23.9752 4.25C23.985 4.25 23.9949 4.25 24.0047 4.25C24.0145 4.25 24.0243 4.25 24.034 4.25C24.0438 4.25 24.0535 4.25 24.0631 4.25C24.0728 4.25 24.0825 4.25 24.0921 4.25C24.1017 4.25 24.1113 4.25 24.1208 4.25C24.1303 4.25 24.1398 4.25 24.1493 4.25C24.1588 4.25 24.1682 4.25 24.1776 4.25C24.187 4.25 24.1964 4.25 24.2057 4.25C24.2151 4.25 24.2244 4.25 24.2336 4.25C24.2429 4.25 24.2521 4.25 24.2613 4.25C24.2705 4.25 24.2797 4.25 24.2888 4.25C24.298 4.25 24.3071 4.25 24.3161 4.25C24.3252 4.25 24.3342 4.25 24.3432 4.25C24.3522 4.25 24.3611 4.25 24.37 4.25C24.3789 4.25 24.3878 4.25 24.3967 4.25C24.4055 4.25 24.4143 4.25 24.4231 4.25C24.4318 4.25 24.4406 4.25 24.4493 4.25C24.458 4.25 24.4666 4.25 24.4753 4.25C24.4839 4.25 24.4925 4.25 24.501 4.25C24.5096 4.25 24.5181 4.25 24.5266 4.25C24.535 4.25 24.5435 4.25 24.5519 4.25C24.5603 4.25 24.5687 4.25 24.577 4.25C24.5853 4.25 24.5936 4.25 24.6019 4.25C24.6101 4.25 24.6183 4.25 24.6265 4.25C24.6347 4.25 24.6428 4.25 24.6509 4.25C24.659 4.25 24.6671 4.25 24.6751 4.25C24.6832 4.25 24.6911 4.25 24.6991 4.25C24.707 4.25 24.715 4.25 24.7228 4.25C24.7307 4.25 24.7385 4.25 24.7463 4.25C24.7541 4.25 24.7619 4.25 24.7696 4.25C24.7773 4.25 24.785 4.25 24.7926 4.25C24.8003 4.25 24.8079 4.25 24.8154 4.25C24.823 4.25 24.8305 4.25 24.838 4.25C24.8455 4.25 24.8529 4.25 24.8603 4.25C24.8677 4.25 24.8751 4.25 24.8824 4.25C24.8897 4.25 24.897 4.25 24.9043 4.25C24.9115 4.25 24.9187 4.25 24.9259 4.25C24.933 4.25 24.9401 4.25 24.9472 4.25C24.9543 4.25 24.9613 4.25 24.9683 4.25C24.9753 4.25 24.9823 4.25 24.9892 4.25C24.9961 4.25 25.003 4.25 25.0098 4.25C25.0167 4.25 25.0234 4.25 25.0302 4.25C25.037 4.25 25.0437 4.25 25.0503 4.25C25.057 4.25 25.0636 4.25 25.0702 4.25C25.0768 4.25 25.0833 4.25 25.0898 4.25C25.0963 4.25 25.1028 4.25 25.1092 4.25C25.1156 4.25 25.122 4.25 25.1283 4.25C25.1347 4.25 25.1409 4.25 25.1472 4.25C25.1534 4.25 25.1596 4.25 25.1658 4.25C25.172 4.25 25.1781 4.25 25.1841 4.25C25.1902 4.25 25.1962 4.25 25.2022 4.25C25.2082 4.25 25.2142 4.25 25.2201 4.25C25.226 4.25 25.2318 4.25 25.2376 4.25C25.2434 4.25 25.2492 4.25 25.2549 4.25C25.2607 4.25 25.2663 4.25 25.272 4.25C25.2776 4.25 25.2832 4.25 25.2888 4.25C25.2943 4.25 25.2998 4.25 25.3053 4.25C25.3107 4.25 25.3161 4.25 25.3215 4.25C25.3269 4.25 25.3322 4.25 25.3375 4.25C25.3428 4.25 25.348 4.25 25.3532 4.25C25.3584 4.25 25.3635 4.25 25.3686 4.25C25.3737 4.25 25.3788 4.25 25.3838 4.25C25.3888 4.25 25.3938 4.25 25.3987 4.25C25.4036 4.25 25.4085 4.25 25.4133 4.25C25.4181 4.25 25.4229 4.25 25.4276 4.25C25.4324 4.25 25.437 4.25 25.4417 4.25C25.4463 4.25 25.4509 4.25 25.4555 4.25C25.46 4.25 25.4645 4.25 25.469 4.25C25.4734 4.25 25.4778 4.25 25.4822 4.25C25.4865 4.25 25.4909 4.25 25.4951 4.25C25.4994 4.25 25.5036 4.25 25.5078 4.25C25.5119 4.25 25.5161 4.25 25.5201 4.25C25.5242 4.25 25.5282 4.25 25.5322 4.25C25.5362 4.25 25.5401 4.25 25.544 4.25C25.5479 4.25 25.5517 4.25 25.5555 4.25C25.5593 4.25 25.5631 4.25 25.5667 4.25C25.5704 4.25 25.5741 4.25 25.5777 4.25C25.5813 4.25 25.5848 4.25 25.5883 4.25C25.5918 4.25 25.5952 4.25 25.5986 4.25C25.602 4.25 25.6054 4.25 25.6087 4.25V3.75C25.6054 3.75 25.602 3.75 25.5986 3.75C25.5952 3.75 25.5918 3.75 25.5883 3.75C25.5848 3.75 25.5813 3.75 25.5777 3.75C25.5741 3.75 25.5704 3.75 25.5667 3.75C25.5631 3.75 25.5593 3.75 25.5555 3.75C25.5517 3.75 25.5479 3.75 25.544 3.75C25.5401 3.75 25.5362 3.75 25.5322 3.75C25.5282 3.75 25.5242 3.75 25.5201 3.75C25.5161 3.75 25.5119 3.75 25.5078 3.75C25.5036 3.75 25.4994 3.75 25.4951 3.75C25.4909 3.75 25.4865 3.75 25.4822 3.75C25.4778 3.75 25.4734 3.75 25.469 3.75C25.4645 3.75 25.46 3.75 25.4555 3.75C25.4509 3.75 25.4463 3.75 25.4417 3.75C25.437 3.75 25.4324 3.75 25.4276 3.75C25.4229 3.75 25.4181 3.75 25.4133 3.75C25.4085 3.75 25.4036 3.75 25.3987 3.75C25.3938 3.75 25.3888 3.75 25.3838 3.75C25.3788 3.75 25.3737 3.75 25.3686 3.75C25.3635 3.75 25.3584 3.75 25.3532 3.75C25.348 3.75 25.3428 3.75 25.3375 3.75C25.3322 3.75 25.3269 3.75 25.3215 3.75C25.3161 3.75 25.3107 3.75 25.3053 3.75C25.2998 3.75 25.2943 3.75 25.2888 3.75C25.2832 3.75 25.2776 3.75 25.272 3.75C25.2663 3.75 25.2607 3.75 25.2549 3.75C25.2492 3.75 25.2434 3.75 25.2376 3.75C25.2318 3.75 25.226 3.75 25.2201 3.75C25.2142 3.75 25.2082 3.75 25.2022 3.75C25.1962 3.75 25.1902 3.75 25.1841 3.75C25.1781 3.75 25.172 3.75 25.1658 3.75C25.1596 3.75 25.1534 3.75 25.1472 3.75C25.1409 3.75 25.1347 3.75 25.1283 3.75C25.122 3.75 25.1156 3.75 25.1092 3.75C25.1028 3.75 25.0963 3.75 25.0898 3.75C25.0833 3.75 25.0768 3.75 25.0702 3.75C25.0636 3.75 25.057 3.75 25.0503 3.75C25.0437 3.75 25.037 3.75 25.0302 3.75C25.0234 3.75 25.0167 3.75 25.0098 3.75C25.003 3.75 24.9961 3.75 24.9892 3.75C24.9823 3.75 24.9753 3.75 24.9683 3.75C24.9613 3.75 24.9543 3.75 24.9472 3.75C24.9401 3.75 24.933 3.75 24.9259 3.75C24.9187 3.75 24.9115 3.75 24.9043 3.75C24.897 3.75 24.8897 3.75 24.8824 3.75C24.8751 3.75 24.8677 3.75 24.8603 3.75C24.8529 3.75 24.8455 3.75 24.838 3.75C24.8305 3.75 24.823 3.75 24.8154 3.75C24.8079 3.75 24.8003 3.75 24.7926 3.75C24.785 3.75 24.7773 3.75 24.7696 3.75C24.7619 3.75 24.7541 3.75 24.7463 3.75C24.7385 3.75 24.7307 3.75 24.7228 3.75C24.715 3.75 24.707 3.75 24.6991 3.75C24.6911 3.75 24.6832 3.75 24.6751 3.75C24.6671 3.75 24.659 3.75 24.6509 3.75C24.6428 3.75 24.6347 3.75 24.6265 3.75C24.6183 3.75 24.6101 3.75 24.6019 3.75C24.5936 3.75 24.5853 3.75 24.577 3.75C24.5687 3.75 24.5603 3.75 24.5519 3.75C24.5435 3.75 24.535 3.75 24.5266 3.75C24.5181 3.75 24.5096 3.75 24.501 3.75C24.4925 3.75 24.4839 3.75 24.4753 3.75C24.4666 3.75 24.458 3.75 24.4493 3.75C24.4406 3.75 24.4318 3.75 24.4231 3.75C24.4143 3.75 24.4055 3.75 24.3967 3.75C24.3878 3.75 24.3789 3.75 24.37 3.75C24.3611 3.75 24.3522 3.75 24.3432 3.75C24.3342 3.75 24.3252 3.75 24.3161 3.75C24.3071 3.75 24.298 3.75 24.2888 3.75C24.2797 3.75 24.2705 3.75 24.2613 3.75C24.2521 3.75 24.2429 3.75 24.2336 3.75C24.2244 3.75 24.2151 3.75 24.2057 3.75C24.1964 3.75 24.187 3.75 24.1776 3.75C24.1682 3.75 24.1588 3.75 24.1493 3.75C24.1398 3.75 24.1303 3.75 24.1208 3.75C24.1113 3.75 24.1017 3.75 24.0921 3.75C24.0825 3.75 24.0728 3.75 24.0631 3.75C24.0535 3.75 24.0438 3.75 24.034 3.75C24.0243 3.75 24.0145 3.75 24.0047 3.75C23.9949 3.75 23.985 3.75 23.9752 3.75C23.9653 3.75 23.9554 3.75 23.9454 3.75C23.9355 3.75 23.9255 3.75 23.9155 3.75C23.9055 3.75 23.8955 3.75 23.8854 3.75C23.8753 3.75 23.8652 3.75 23.8551 3.75C23.8449 3.75 23.8348 3.75 23.8246 3.75C23.8144 3.75 23.8041 3.75 23.7939 3.75C23.7836 3.75 23.7733 3.75 23.763 3.75C23.7527 3.75 23.7423 3.75 23.7319 3.75C23.7215 3.75 23.7111 3.75 23.7007 3.75C23.6902 3.75 23.6797 3.75 23.6692 3.75C23.6587 3.75 23.6482 3.75 23.6376 3.75C23.627 3.75 23.6164 3.75 23.6058 3.75C23.5951 3.75 23.5845 3.75 23.5738 3.75C23.5631 3.75 23.5524 3.75 23.5416 3.75C23.5308 3.75 23.5201 3.75 23.5092 3.75C23.4984 3.75 23.4876 3.75 23.4767 3.75C23.4658 3.75 23.4549 3.75 23.444 3.75C23.4331 3.75 23.4221 3.75 23.4111 3.75C23.4001 3.75 23.3891 3.75 23.378 3.75C23.367 3.75 23.3559 3.75 23.3448 3.75C23.3337 3.75 23.3225 3.75 23.3114 3.75C23.3002 3.75 23.289 3.75 23.2778 3.75C23.2666 3.75 23.2553 3.75 23.244 3.75C23.2328 3.75 23.2215 3.75 23.2101 3.75C23.1988 3.75 23.1874 3.75 23.176 3.75C23.1646 3.75 23.1532 3.75 23.1418 3.75C23.1303 3.75 23.1188 3.75 23.1073 3.75C23.0958 3.75 23.0843 3.75 23.0728 3.75C23.0612 3.75 23.0496 3.75 23.038 3.75C23.0264 3.75 23.0148 3.75 23.0031 3.75C22.9914 3.75 22.9797 3.75 22.968 3.75C22.9563 3.75 22.9446 3.75 22.9328 3.75C22.921 3.75 22.9092 3.75 22.8974 3.75C22.8856 3.75 22.8737 3.75 22.8618 3.75C22.85 3.75 22.8381 3.75 22.8261 3.75C22.8142 3.75 22.8023 3.75 22.7903 3.75C22.7783 3.75 22.7663 3.75 22.7543 3.75C22.7423 3.75 22.7302 3.75 22.7181 3.75C22.706 3.75 22.6939 3.75 22.6818 3.75C22.6697 3.75 22.6575 3.75 22.6453 3.75C22.6332 3.75 22.621 3.75 22.6087 3.75C22.5965 3.75 22.5843 3.75 22.572 3.75C22.5597 3.75 22.5474 3.75 22.5351 3.75C22.5228 3.75 22.5104 3.75 22.498 3.75C22.4857 3.75 22.4733 3.75 22.4608 3.75C22.4484 3.75 22.436 3.75 22.4235 3.75C22.411 3.75 22.3986 3.75 22.386 3.75C22.3735 3.75 22.361 3.75 22.3484 3.75C22.3359 3.75 22.3233 3.75 22.3107 3.75C22.2981 3.75 22.2854 3.75 22.2728 3.75C22.2601 3.75 22.2475 3.75 22.2348 3.75C22.2221 3.75 22.2094 3.75 22.1966 3.75C22.1839 3.75 22.1711 3.75 22.1583 3.75C22.1455 3.75 22.1327 3.75 22.1199 3.75C22.1071 3.75 22.0942 3.75 22.0813 3.75C22.0685 3.75 22.0556 3.75 22.0427 3.75C22.0297 3.75 22.0168 3.75 22.0038 3.75C21.9909 3.75 21.9779 3.75 21.9649 3.75C21.9519 3.75 21.9389 3.75 21.9258 3.75C21.9128 3.75 21.8997 3.75 21.8867 3.75C21.8736 3.75 21.8605 3.75 21.8473 3.75C21.8342 3.75 21.8211 3.75 21.8079 3.75C21.7947 3.75 21.7816 3.75 21.7684 3.75C21.7551 3.75 21.7419 3.75 21.7287 3.75C21.7154 3.75 21.7022 3.75 21.6889 3.75C21.6756 3.75 21.6623 3.75 21.649 3.75C21.6356 3.75 21.6223 3.75 21.6089 3.75C21.5956 3.75 21.5822 3.75 21.5688 3.75C21.5554 3.75 21.542 3.75 21.5285 3.75C21.5151 3.75 21.5016 3.75 21.4882 3.75C21.4747 3.75 21.4612 3.75 21.4477 3.75C21.4342 3.75 21.4207 3.75 21.4071 3.75C21.3936 3.75 21.38 3.75 21.3664 3.75C21.3528 3.75 21.3392 3.75 21.3256 3.75C21.312 3.75 21.2983 3.75 21.2847 3.75C21.271 3.75 21.2574 3.75 21.2437 3.75C21.23 3.75 21.2163 3.75 21.2025 3.75C21.1888 3.75 21.1751 3.75 21.1613 3.75C21.1476 3.75 21.1338 3.75 21.12 3.75C21.1062 3.75 21.0924 3.75 21.0786 3.75C21.0647 3.75 21.0509 3.75 21.037 3.75C21.0232 3.75 21.0093 3.75 20.9954 3.75C20.9815 3.75 20.9676 3.75 20.9537 3.75C20.9398 3.75 20.9258 3.75 20.9119 3.75C20.8979 3.75 20.884 3.75 20.87 3.75C20.856 3.75 20.842 3.75 20.828 3.75C20.814 3.75 20.7999 3.75 20.7859 3.75C20.7719 3.75 20.7578 3.75 20.7437 3.75C20.7296 3.75 20.7156 3.75 20.7014 3.75C20.6873 3.75 20.6732 3.75 20.6591 3.75C20.645 3.75 20.6308 3.75 20.6166 3.75C20.6025 3.75 20.5883 3.75 20.5741 3.75C20.5599 3.75 20.5457 3.75 20.5315 3.75C20.5173 3.75 20.503 3.75 20.4888 3.75C20.4746 3.75 20.4603 3.75 20.446 3.75C20.4317 3.75 20.4175 3.75 20.4032 3.75C20.3889 3.75 20.3745 3.75 20.3602 3.75C20.3459 3.75 20.3316 3.75 20.3172 3.75C20.3029 3.75 20.2885 3.75 20.2741 3.75C20.2597 3.75 20.2453 3.75 20.2309 3.75C20.2165 3.75 20.2021 3.75 20.1877 3.75C20.1733 3.75 20.1588 3.75 20.1444 3.75C20.1299 3.75 20.1155 3.75 20.101 3.75C20.0865 3.75 20.072 3.75 20.0575 3.75C20.043 3.75 20.0285 3.75 20.014 3.75C19.9995 3.75 19.985 3.75 19.9704 3.75C19.9559 3.75 19.9413 3.75 19.9268 3.75C19.9122 3.75 19.8976 3.75 19.883 3.75C19.8684 3.75 19.8538 3.75 19.8392 3.75C19.8246 3.75 19.81 3.75 19.7954 3.75C19.7808 3.75 19.7661 3.75 19.7515 3.75C19.7368 3.75 19.7222 3.75 19.7075 3.75C19.6928 3.75 19.6781 3.75 19.6635 3.75C19.6488 3.75 19.6341 3.75 19.6194 3.75C19.6046 3.75 19.5899 3.75 19.5752 3.75C19.5605 3.75 19.5457 3.75 19.531 3.75C19.5162 3.75 19.5015 3.75 19.4867 3.75C19.472 3.75 19.4572 3.75 19.4424 3.75C19.4276 3.75 19.4128 3.75 19.398 3.75C19.3832 3.75 19.3684 3.75 19.3536 3.75C19.3388 3.75 19.324 3.75 19.3092 3.75C19.2943 3.75 19.2795 3.75 19.2646 3.75C19.2498 3.75 19.2349 3.75 19.2201 3.75C19.2052 3.75 19.1903 3.75 19.1755 3.75C19.1606 3.75 19.1457 3.75 19.1308 3.75C19.1159 3.75 19.101 3.75 19.0861 3.75C19.0712 3.75 19.0563 3.75 19.0414 3.75C19.0265 3.75 19.0115 3.75 18.9966 3.75C18.9817 3.75 18.9667 3.75 18.9518 3.75C18.9368 3.75 18.9219 3.75 18.9069 3.75C18.892 3.75 18.877 3.75 18.862 3.75C18.847 3.75 18.8321 3.75 18.8171 3.75C18.8021 3.75 18.7871 3.75 18.7721 3.75C18.7571 3.75 18.7421 3.75 18.7271 3.75C18.7121 3.75 18.6971 3.75 18.6821 3.75C18.6671 3.75 18.652 3.75 18.637 3.75C18.622 3.75 18.607 3.75 18.5919 3.75C18.5769 3.75 18.5618 3.75 18.5468 3.75C18.5317 3.75 18.5167 3.75 18.5016 3.75C18.4866 3.75 18.4715 3.75 18.4565 3.75C18.4414 3.75 18.4263 3.75 18.4113 3.75C18.3962 3.75 18.3811 3.75 18.366 3.75C18.351 3.75 18.3359 3.75 18.3208 3.75C18.3057 3.75 18.2906 3.75 18.2755 3.75C18.2604 3.75 18.2453 3.75 18.2302 3.75C18.2151 3.75 18.2 3.75 18.1849 3.75C18.1698 3.75 18.1547 3.75 18.1396 3.75C18.1245 3.75 18.1094 3.75 18.0942 3.75C18.0791 3.75 18.064 3.75 18.0489 3.75C18.0338 3.75 18.0186 3.75 18.0035 3.75C17.9884 3.75 17.9733 3.75 17.9581 3.75C17.943 3.75 17.9279 3.75 17.9127 3.75C17.8976 3.75 17.8825 3.75 17.8673 3.75C17.8522 3.75 17.8371 3.75 17.8219 3.75C17.8068 3.75 17.7916 3.75 17.7765 3.75C17.7613 3.75 17.7462 3.75 17.7311 3.75C17.7159 3.75 17.7008 3.75 17.6856 3.75C17.6705 3.75 17.6553 3.75 17.6402 3.75C17.625 3.75 17.6099 3.75 17.5947 3.75C17.5796 3.75 17.5645 3.75 17.5493 3.75C17.5342 3.75 17.519 3.75 17.5039 3.75C17.4887 3.75 17.4736 3.75 17.4584 3.75C17.4433 3.75 17.4281 3.75 17.413 3.75C17.3978 3.75 17.3827 3.75 17.3675 3.75C17.3524 3.75 17.3372 3.75 17.3221 3.75C17.307 3.75 17.2918 3.75 17.2767 3.75C17.2615 3.75 17.2464 3.75 17.2313 3.75C17.2161 3.75 17.201 3.75 17.1858 3.75C17.1707 3.75 17.1556 3.75 17.1404 3.75C17.1253 3.75 17.1102 3.75 17.0951 3.75C17.0799 3.75 17.0648 3.75 17.0497 3.75C17.0345 3.75 17.0194 3.75 17.0043 3.75C16.9892 3.75 16.9741 3.75 16.959 3.75C16.9438 3.75 16.9287 3.75 16.9136 3.75C16.8985 3.75 16.8834 3.75 16.8683 3.75C16.8532 3.75 16.8381 3.75 16.823 3.75C16.8079 3.75 16.7928 3.75 16.7777 3.75C16.7626 3.75 16.7475 3.75 16.7325 3.75C16.7174 3.75 16.7023 3.75 16.6872 3.75C16.6721 3.75 16.6571 3.75 16.642 3.75C16.6269 3.75 16.6119 3.75 16.5968 3.75C16.5817 3.75 16.5667 3.75 16.5516 3.75C16.5366 3.75 16.5215 3.75 16.5065 3.75C16.4915 3.75 16.4764 3.75 16.4614 3.75C16.4464 3.75 16.4313 3.75 16.4163 3.75C16.4013 3.75 16.3863 3.75 16.3713 3.75C16.3562 3.75 16.3412 3.75 16.3262 3.75C16.3112 3.75 16.2962 3.75 16.2812 3.75C16.2663 3.75 16.2513 3.75 16.2363 3.75C16.2213 3.75 16.2063 3.75 16.1914 3.75C16.1764 3.75 16.1614 3.75 16.1465 3.75C16.1315 3.75 16.1166 3.75 16.1016 3.75C16.0867 3.75 16.0718 3.75 16.0568 3.75C16.0419 3.75 16.027 3.75 16.0121 3.75C15.9972 3.75 15.9822 3.75 15.9673 3.75C15.9524 3.75 15.9376 3.75 15.9227 3.75C15.9078 3.75 15.8929 3.75 15.878 3.75C15.8632 3.75 15.8483 3.75 15.8334 3.75C15.8186 3.75 15.8037 3.75 15.7889 3.75C15.7741 3.75 15.7592 3.75 15.7444 3.75C15.7296 3.75 15.7148 3.75 15.6999 3.75C15.6851 3.75 15.6703 3.75 15.6555 3.75C15.6408 3.75 15.626 3.75 15.6112 3.75C15.5964 3.75 15.5817 3.75 15.5669 3.75C15.5522 3.75 15.5374 3.75 15.5227 3.75C15.5079 3.75 15.4932 3.75 15.4785 3.75C15.4638 3.75 15.4491 3.75 15.4344 3.75C15.4197 3.75 15.405 3.75 15.3903 3.75C15.3756 3.75 15.3609 3.75 15.3463 3.75C15.3316 3.75 15.317 3.75 15.3023 3.75C15.2877 3.75 15.273 3.75 15.2584 3.75C15.2438 3.75 15.2292 3.75 15.2146 3.75C15.2 3.75 15.1854 3.75 15.1708 3.75C15.1562 3.75 15.1417 3.75 15.1271 3.75C15.1126 3.75 15.098 3.75 15.0835 3.75C15.069 3.75 15.0544 3.75 15.0399 3.75C15.0254 3.75 15.0109 3.75 14.9964 3.75C14.9819 3.75 14.9675 3.75 14.953 3.75C14.9385 3.75 14.9241 3.75 14.9096 3.75C14.8952 3.75 14.8808 3.75 14.8663 3.75C14.8519 3.75 14.8375 3.75 14.8231 3.75C14.8087 3.75 14.7944 3.75 14.78 3.75C14.7656 3.75 14.7513 3.75 14.7369 3.75C14.7226 3.75 14.7083 3.75 14.694 3.75C14.6796 3.75 14.6653 3.75 14.651 3.75C14.6368 3.75 14.6225 3.75 14.6082 3.75C14.594 3.75 14.5797 3.75 14.5655 3.75C14.5512 3.75 14.537 3.75 14.5228 3.75C14.5086 3.75 14.4944 3.75 14.4802 3.75C14.466 3.75 14.4519 3.75 14.4377 3.75C14.4236 3.75 14.4094 3.75 14.3953 3.75C14.3812 3.75 14.3671 3.75 14.353 3.75C14.3389 3.75 14.3248 3.75 14.3108 3.75C14.2967 3.75 14.2827 3.75 14.2686 3.75C14.2546 3.75 14.2406 3.75 14.2266 3.75C14.2126 3.75 14.1986 3.75 14.1846 3.75C14.1706 3.75 14.1567 3.75 14.1427 3.75C14.1288 3.75 14.1149 3.75 14.101 3.75C14.0871 3.75 14.0732 3.75 14.0593 3.75C14.0454 3.75 14.0315 3.75 14.0177 3.75C14.0039 3.75 13.99 3.75 13.9762 3.75C13.9624 3.75 13.9486 3.75 13.9348 3.75C13.9211 3.75 13.9073 3.75 13.8935 3.75C13.8798 3.75 13.8661 3.75 13.8524 3.75C13.8387 3.75 13.825 3.75 13.8113 3.75C13.7976 3.75 13.784 3.75 13.7703 3.75C13.7567 3.75 13.743 3.75 13.7294 3.75C13.7158 3.75 13.7022 3.75 13.6887 3.75C13.6751 3.75 13.6616 3.75 13.648 3.75C13.6345 3.75 13.621 3.75 13.6075 3.75C13.594 3.75 13.5805 3.75 13.567 3.75C13.5536 3.75 13.5401 3.75 13.5267 3.75C13.5133 3.75 13.4999 3.75 13.4865 3.75C13.4731 3.75 13.4598 3.75 13.4464 3.75C13.4331 3.75 13.4197 3.75 13.4064 3.75C13.3931 3.75 13.3798 3.75 13.3666 3.75C13.3533 3.75 13.3401 3.75 13.3268 3.75C13.3136 3.75 13.3004 3.75 13.2872 3.75C13.274 3.75 13.2608 3.75 13.2477 3.75C13.2345 3.75 13.2214 3.75 13.2083 3.75C13.1952 3.75 13.1821 3.75 13.169 3.75C13.156 3.75 13.1429 3.75 13.1299 3.75C13.1169 3.75 13.1039 3.75 13.0909 3.75C13.0779 3.75 13.0649 3.75 13.052 3.75C13.0391 3.75 13.0261 3.75 13.0132 3.75C13.0003 3.75 12.9875 3.75 12.9746 3.75C12.9618 3.75 12.9489 3.75 12.9361 3.75C12.9233 3.75 12.9105 3.75 12.8977 3.75C12.885 3.75 12.8722 3.75 12.8595 3.75C12.8468 3.75 12.8341 3.75 12.8214 3.75C12.8087 3.75 12.7961 3.75 12.7834 3.75C12.7708 3.75 12.7582 3.75 12.7456 3.75C12.733 3.75 12.7205 3.75 12.7079 3.75C12.6954 3.75 12.6828 3.75 12.6704 3.75C12.6579 3.75 12.6454 3.75 12.6329 3.75C12.6205 3.75 12.6081 3.75 12.5957 3.75C12.5833 3.75 12.5709 3.75 12.5585 3.75C12.5462 3.75 12.5339 3.75 12.5215 3.75C12.5092 3.75 12.497 3.75 12.4847 3.75C12.4724 3.75 12.4602 3.75 12.448 3.75C12.4358 3.75 12.4236 3.75 12.4115 3.75C12.3993 3.75 12.3872 3.75 12.3751 3.75C12.3629 3.75 12.3509 3.75 12.3388 3.75C12.3267 3.75 12.3147 3.75 12.3027 3.75C12.2907 3.75 12.2787 3.75 12.2668 3.75C12.2548 3.75 12.2429 3.75 12.231 3.75C12.2191 3.75 12.2072 3.75 12.1953 3.75C12.1835 3.75 12.1716 3.75 12.1598 3.75C12.148 3.75 12.1363 3.75 12.1245 3.75C12.1128 3.75 12.101 3.75 12.0893 3.75C12.0777 3.75 12.066 3.75 12.0543 3.75C12.0427 3.75 12.0311 3.75 12.0195 3.75C12.0079 3.75 11.9963 3.75 11.9848 3.75C11.9733 3.75 11.9618 3.75 11.9503 3.75C11.9388 3.75 11.9274 3.75 11.9159 3.75C11.9045 3.75 11.8931 3.75 11.8817 3.75C11.8704 3.75 11.859 3.75 11.8477 3.75C11.8364 3.75 11.8251 3.75 11.8139 3.75C11.8026 3.75 11.7914 3.75 11.7802 3.75C11.769 3.75 11.7578 3.75 11.7467 3.75C11.7355 3.75 11.7244 3.75 11.7133 3.75C11.7022 3.75 11.6912 3.75 11.6801 3.75C11.6691 3.75 11.6581 3.75 11.6472 3.75C11.6362 3.75 11.6252 3.75 11.6143 3.75C11.6034 3.75 11.5925 3.75 11.5817 3.75C11.5708 3.75 11.56 3.75 11.5492 3.75C11.5384 3.75 11.5277 3.75 11.5169 3.75C11.5062 3.75 11.4955 3.75 11.4848 3.75C11.4742 3.75 11.4635 3.75 11.4529 3.75C11.4423 3.75 11.4317 3.75 11.4212 3.75C11.4106 3.75 11.4001 3.75 11.3896 3.75C11.3791 3.75 11.3687 3.75 11.3582 3.75C11.3478 3.75 11.3374 3.75 11.3271 3.75C11.3167 3.75 11.3064 3.75 11.2961 3.75C11.2858 3.75 11.2755 3.75 11.2653 3.75C11.255 3.75 11.2448 3.75 11.2346 3.75C11.2245 3.75 11.2143 3.75 11.2042 3.75C11.1941 3.75 11.184 3.75 11.174 3.75C11.1639 3.75 11.1539 3.75 11.144 3.75C11.134 3.75 11.124 3.75 11.1141 3.75C11.1042 3.75 11.0943 3.75 11.0845 3.75C11.0746 3.75 11.0648 3.75 11.055 3.75C11.0452 3.75 11.0355 3.75 11.0258 3.75C11.0161 3.75 11.0064 3.75 10.9967 3.75C10.9871 3.75 10.9775 3.75 10.9679 3.75C10.9583 3.75 10.9487 3.75 10.9392 3.75C10.9297 3.75 10.9202 3.75 10.9108 3.75C10.9014 3.75 10.8919 3.75 10.8826 3.75C10.8732 3.75 10.8638 3.75 10.8545 3.75C10.8452 3.75 10.836 3.75 10.8267 3.75C10.8175 3.75 10.8083 3.75 10.7991 3.75C10.7899 3.75 10.7808 3.75 10.7717 3.75C10.7626 3.75 10.7535 3.75 10.7445 3.75C10.7355 3.75 10.7265 3.75 10.7175 3.75C10.7086 3.75 10.6997 3.75 10.6908 3.75C10.6819 3.75 10.673 3.75 10.6642 3.75C10.6554 3.75 10.6466 3.75 10.6379 3.75C10.6292 3.75 10.6205 3.75 10.6118 3.75C10.6031 3.75 10.5945 3.75 10.5859 3.75C10.5773 3.75 10.5687 3.75 10.5602 3.75C10.5517 3.75 10.5432 3.75 10.5348 3.75C10.5263 3.75 10.5179 3.75 10.5095 3.75C10.5012 3.75 10.4928 3.75 10.4845 3.75C10.4762 3.75 10.468 3.75 10.4597 3.75C10.4515 3.75 10.4433 3.75 10.4352 3.75C10.427 3.75 10.4189 3.75 10.4109 3.75C10.4028 3.75 10.3947 3.75 10.3867 3.75C10.3788 3.75 10.3708 3.75 10.3629 3.75C10.355 3.75 10.3471 3.75 10.3392 3.75C10.3314 3.75 10.3236 3.75 10.3158 3.75C10.3081 3.75 10.3003 3.75 10.2927 3.75C10.285 3.75 10.2773 3.75 10.2697 3.75C10.2621 3.75 10.2545 3.75 10.247 3.75C10.2395 3.75 10.232 3.75 10.2246 3.75C10.2171 3.75 10.2097 3.75 10.2023 3.75C10.195 3.75 10.1876 3.75 10.1803 3.75C10.173 3.75 10.1658 3.75 10.1586 3.75C10.1514 3.75 10.1442 3.75 10.1371 3.75C10.13 3.75 10.1229 3.75 10.1158 3.75C10.1088 3.75 10.1018 3.75 10.0948 3.75C10.0878 3.75 10.0809 3.75 10.074 3.75C10.0672 3.75 10.0603 3.75 10.0535 3.75C10.0467 3.75 10.04 3.75 10.0332 3.75C10.0265 3.75 10.0198 3.75 10.0132 3.75C10.0066 3.75 9.99999 3.75 9.99344 3.75C9.98689 3.75 9.98038 3.75 9.97392 3.75C9.96745 3.75 9.96103 3.75 9.95465 3.75C9.94827 3.75 9.94193 3.75 9.93563 3.75C9.92934 3.75 9.92308 3.75 9.91687 3.75C9.91066 3.75 9.9045 3.75 9.89837 3.75C9.89225 3.75 9.88617 3.75 9.88013 3.75C9.87409 3.75 9.8681 3.75 9.86214 3.75C9.85619 3.75 9.85028 3.75 9.84442 3.75C9.83856 3.75 9.83273 3.75 9.82696 3.75C9.82118 3.75 9.81545 3.75 9.80976 3.75C9.80407 3.75 9.79842 3.75 9.79282 3.75C9.78722 3.75 9.78167 3.75 9.77615 3.75C9.77064 3.75 9.76518 3.75 9.75975 3.75C9.75433 3.75 9.74895 3.75 9.74362 3.75C9.73828 3.75 9.733 3.75 9.72775 3.75C9.72251 3.75 9.71731 3.75 9.71216 3.75C9.70701 3.75 9.7019 3.75 9.69684 3.75C9.69177 3.75 9.68676 3.75 9.68179 3.75C9.67681 3.75 9.67189 3.75 9.66701 3.75C9.66213 3.75 9.6573 3.75 9.65251 3.75C9.64772 3.75 9.64298 3.75 9.63829 3.75C9.63359 3.75 9.62894 3.75 9.62434 3.75C9.61974 3.75 9.61518 3.75 9.61067 3.75C9.60617 3.75 9.6017 3.75 9.59729 3.75C9.59287 3.75 9.5885 3.75 9.58418 3.75C9.57986 3.75 9.57559 3.75 9.57136 3.75C9.56713 3.75 9.56295 3.75 9.55882 3.75C9.55469 3.75 9.55061 3.75 9.54657 3.75C9.54253 3.75 9.53855 3.75 9.5346 3.75C9.53066 3.75 9.52677 3.75 9.52293 3.75C9.51908 3.75 9.51528 3.75 9.51154 3.75C9.50779 3.75 9.50409 3.75 9.50044 3.75C9.49679 3.75 9.49318 3.75 9.48963 3.75C9.48608 3.75 9.48257 3.75 9.47911 3.75C9.47566 3.75 9.47225 3.75 9.46889 3.75C9.46553 3.75 9.46223 3.75 9.45897 3.75C9.45571 3.75 9.4525 3.75 9.44934 3.75C9.44618 3.75 9.44307 3.75 9.44 3.75C9.43694 3.75 9.43393 3.75 9.43097 3.75C9.42801 3.75 9.4251 3.75 9.42224 3.75C9.41938 3.75 9.41657 3.75 9.41381 3.75C9.41105 3.75 9.40834 3.75 9.40568 3.75C9.40302 3.75 9.40041 3.75 9.39785 3.75C9.39529 3.75 9.39278 3.75 9.39033 3.75C9.38787 3.75 9.38547 3.75 9.38311 3.75C9.38076 3.75 9.37846 3.75 9.37621 3.75C9.37396 3.75 9.37176 3.75 9.36961 3.75C9.36746 3.75 9.36536 3.75 9.36332 3.75C9.36127 3.75 9.35928 3.75 9.35734 3.75C9.3554 3.75 9.35351 3.75 9.35168 3.75C9.34984 3.75 9.34806 3.75 9.34632 3.75C9.34459 3.75 9.34291 3.75 9.34129 3.75C9.33966 3.75 9.33809 3.75 9.33657 3.75C9.33505 3.75 9.33358 3.75 9.33216 3.75C9.33075 3.75 9.32939 3.75 9.32808 3.75C9.32677 3.75 9.32551 3.75 9.32431 3.75C9.32311 3.75 9.32196 3.75 9.32087 3.75C9.31977 3.75 9.31873 3.75 9.31775 3.75C9.31676 3.75 9.31583 3.75 9.31495 3.75C9.31407 3.75 9.31324 3.75 9.31247 3.75C9.3117 3.75 9.31099 3.75 9.31032 3.75C9.30966 3.75 9.30906 3.75 9.3085 3.75C9.30795 3.75 9.30745 3.75 9.30701 3.75C9.30657 3.75 9.30618 3.75 9.30585 3.75C9.30551 3.75 9.30524 3.75 9.30501 3.75C9.30479 3.75 9.30463 3.75 9.30451 3.75C9.3044 3.75 9.30435 3.75 9.30435 4ZM25.6087 4.25C26.9148 4.25 27.7268 5.11947 27.9542 5.4005L28.3429 5.08603C28.0857 4.76804 27.1453 3.75 25.6087 3.75V4.25ZM36.5199 14.1779C36.5484 14.207 36.861 14.5306 37.165 15.0036C37.4725 15.482 37.75 16.0809 37.75 16.6667H38.25C38.25 15.9378 37.9115 15.2403 37.5856 14.7333C37.2562 14.2208 36.9182 13.87 36.8774 13.8283L36.5199 14.1779ZM37.75 16.6667C37.75 16.6693 37.75 16.672 37.75 16.6749C37.75 16.6777 37.75 16.6806 37.75 16.6836C37.75 16.6866 37.75 16.6897 37.75 16.6928C37.75 16.696 37.75 16.6993 37.75 16.7026C37.75 16.706 37.75 16.7094 37.75 16.7129C37.75 16.7164 37.75 16.72 37.75 16.7237C37.75 16.7274 37.75 16.7312 37.75 16.7351C37.75 16.739 37.75 16.7429 37.75 16.7469C37.75 16.751 37.75 16.7551 37.75 16.7593C37.75 16.7635 37.75 16.7678 37.75 16.7722C37.75 16.7766 37.75 16.7811 37.75 16.7856C37.75 16.7902 37.75 16.7948 37.75 16.7995C37.75 16.8043 37.75 16.8091 37.75 16.814C37.75 16.8189 37.75 16.8238 37.75 16.8289C37.75 16.834 37.75 16.8391 37.75 16.8443C37.75 16.8496 37.75 16.8549 37.75 16.8603C37.75 16.8656 37.75 16.8711 37.75 16.8767C37.75 16.8822 37.75 16.8879 37.75 16.8936C37.75 16.8993 37.75 16.9051 37.75 16.911C37.75 16.9169 37.75 16.9229 37.75 16.929C37.75 16.935 37.75 16.9411 37.75 16.9474C37.75 16.9536 37.75 16.9599 37.75 16.9662C37.75 16.9726 37.75 16.9791 37.75 16.9856C37.75 16.9922 37.75 16.9988 37.75 17.0055C37.75 17.0122 37.75 17.019 37.75 17.0258C37.75 17.0327 37.75 17.0396 37.75 17.0467C37.75 17.0537 37.75 17.0608 37.75 17.068C37.75 17.0751 37.75 17.0824 37.75 17.0897C37.75 17.0971 37.75 17.1045 37.75 17.112C37.75 17.1195 37.75 17.1271 37.75 17.1347C37.75 17.1424 37.75 17.1501 37.75 17.1579C37.75 17.1657 37.75 17.1736 37.75 17.1816C37.75 17.1895 37.75 17.1976 37.75 17.2057C37.75 17.2138 37.75 17.222 37.75 17.2303C37.75 17.2385 37.75 17.2469 37.75 17.2553C37.75 17.2637 37.75 17.2722 37.75 17.2808C37.75 17.2894 37.75 17.298 37.75 17.3068C37.75 17.3155 37.75 17.3243 37.75 17.3332C37.75 17.3421 37.75 17.351 37.75 17.36C37.75 17.3691 37.75 17.3782 37.75 17.3874C37.75 17.3965 37.75 17.4058 37.75 17.4151C37.75 17.4245 37.75 17.4339 37.75 17.4433C37.75 17.4528 37.75 17.4624 37.75 17.472C37.75 17.4816 37.75 17.4913 37.75 17.5011C37.75 17.5108 37.75 17.5207 37.75 17.5306C37.75 17.5405 37.75 17.5505 37.75 17.5606C37.75 17.5706 37.75 17.5808 37.75 17.591C37.75 17.6012 37.75 17.6115 37.75 17.6218C37.75 17.6321 37.75 17.6426 37.75 17.6531C37.75 17.6636 37.75 17.6741 37.75 17.6848C37.75 17.6954 37.75 17.7061 37.75 17.7169C37.75 17.7276 37.75 17.7385 37.75 17.7494C37.75 17.7603 37.75 17.7713 37.75 17.7824C37.75 17.7934 37.75 17.8046 37.75 17.8158C37.75 17.827 37.75 17.8382 37.75 17.8496C37.75 17.8609 37.75 17.8723 37.75 17.8838C37.75 17.8953 37.75 17.9068 37.75 17.9184C37.75 17.93 37.75 17.9417 37.75 17.9534C37.75 17.9652 37.75 17.977 37.75 17.9889C37.75 18.0008 37.75 18.0127 37.75 18.0248C37.75 18.0368 37.75 18.0489 37.75 18.061C37.75 18.0732 37.75 18.0854 37.75 18.0977C37.75 18.11 37.75 18.1223 37.75 18.1347C37.75 18.1472 37.75 18.1596 37.75 18.1722C37.75 18.1848 37.75 18.1974 37.75 18.2101C37.75 18.2227 37.75 18.2355 37.75 18.2483C37.75 18.2611 37.75 18.274 37.75 18.2869C37.75 18.2999 37.75 18.3129 37.75 18.326C37.75 18.3391 37.75 18.3522 37.75 18.3654C37.75 18.3786 37.75 18.3919 37.75 18.4052C37.75 18.4185 37.75 18.4319 37.75 18.4454C37.75 18.4589 37.75 18.4724 37.75 18.486C37.75 18.4995 37.75 18.5132 37.75 18.5269C37.75 18.5406 37.75 18.5544 37.75 18.5682C37.75 18.5821 37.75 18.596 37.75 18.6099C37.75 18.6239 37.75 18.6379 37.75 18.652C37.75 18.6661 37.75 18.6802 37.75 18.6944C37.75 18.7087 37.75 18.7229 37.75 18.7373C37.75 18.7516 37.75 18.766 37.75 18.7804C37.75 18.7949 37.75 18.8094 37.75 18.824C37.75 18.8385 37.75 18.8532 37.75 18.8679C37.75 18.8826 37.75 18.8973 37.75 18.9121C37.75 18.927 37.75 18.9418 37.75 18.9568C37.75 18.9717 37.75 18.9867 37.75 19.0017C37.75 19.0168 37.75 19.0319 37.75 19.0471C37.75 19.0622 37.75 19.0775 37.75 19.0927C37.75 19.108 37.75 19.1234 37.75 19.1388C37.75 19.1542 37.75 19.1696 37.75 19.1851C37.75 19.2007 37.75 19.2162 37.75 19.2319C37.75 19.2475 37.75 19.2632 37.75 19.2789C37.75 19.2947 37.75 19.3105 37.75 19.3263C37.75 19.3422 37.75 19.3581 37.75 19.3741C37.75 19.39 37.75 19.4061 37.75 19.4221C37.75 19.4382 37.75 19.4543 37.75 19.4705C37.75 19.4867 37.75 19.503 37.75 19.5193C37.75 19.5356 37.75 19.5519 37.75 19.5684C37.75 19.5848 37.75 19.6012 37.75 19.6177C37.75 19.6343 37.75 19.6508 37.75 19.6675C37.75 19.6841 37.75 19.7008 37.75 19.7175C37.75 19.7343 37.75 19.751 37.75 19.7679C37.75 19.7847 37.75 19.8016 37.75 19.8186C37.75 19.8355 37.75 19.8525 37.75 19.8696C37.75 19.8866 37.75 19.9037 37.75 19.9209C37.75 19.9381 37.75 19.9553 37.75 19.9725C37.75 19.9898 37.75 20.0071 37.75 20.0245C37.75 20.0418 37.75 20.0592 37.75 20.0767C37.75 20.0942 37.75 20.1117 37.75 20.1293C37.75 20.1468 37.75 20.1645 37.75 20.1821C37.75 20.1998 37.75 20.2175 37.75 20.2353C37.75 20.2531 37.75 20.2709 37.75 20.2887C37.75 20.3066 37.75 20.3245 37.75 20.3425C37.75 20.3605 37.75 20.3785 37.75 20.3966C37.75 20.4146 37.75 20.4327 37.75 20.4509C37.75 20.4691 37.75 20.4873 37.75 20.5055C37.75 20.5238 37.75 20.5421 37.75 20.5605C37.75 20.5788 37.75 20.5972 37.75 20.6157C37.75 20.6341 37.75 20.6526 37.75 20.6712C37.75 20.6897 37.75 20.7083 37.75 20.7269C37.75 20.7456 37.75 20.7643 37.75 20.783C37.75 20.8017 37.75 20.8205 37.75 20.8393C37.75 20.8582 37.75 20.877 37.75 20.896C37.75 20.9149 37.75 20.9338 37.75 20.9528C37.75 20.9718 37.75 20.9909 37.75 21.01C37.75 21.0291 37.75 21.0482 37.75 21.0674C37.75 21.0866 37.75 21.1058 37.75 21.1251C37.75 21.1444 37.75 21.1637 37.75 21.1831C37.75 21.2024 37.75 21.2219 37.75 21.2413C37.75 21.2608 37.75 21.2803 37.75 21.2998C37.75 21.3193 37.75 21.3389 37.75 21.3585C37.75 21.3782 37.75 21.3978 37.75 21.4175C37.75 21.4372 37.75 21.457 37.75 21.4768C37.75 21.4966 37.75 21.5164 37.75 21.5363C37.75 21.5562 37.75 21.5761 37.75 21.5961C37.75 21.616 37.75 21.636 37.75 21.6561C37.75 21.6761 37.75 21.6962 37.75 21.7163C37.75 21.7364 37.75 21.7566 37.75 21.7768C37.75 21.797 37.75 21.8173 37.75 21.8376C37.75 21.8578 37.75 21.8782 37.75 21.8985C37.75 21.9189 37.75 21.9393 37.75 21.9597C37.75 21.9802 37.75 22.0007 37.75 22.0212C37.75 22.0417 37.75 22.0623 37.75 22.0829C37.75 22.1035 37.75 22.1241 37.75 22.1448C37.75 22.1655 37.75 22.1862 37.75 22.2069C37.75 22.2277 37.75 22.2485 37.75 22.2693C37.75 22.2901 37.75 22.311 37.75 22.3319C37.75 22.3528 37.75 22.3737 37.75 22.3947C37.75 22.4157 37.75 22.4367 37.75 22.4578C37.75 22.4788 37.75 22.4999 37.75 22.521C37.75 22.5421 37.75 22.5633 37.75 22.5845C37.75 22.6057 37.75 22.6269 37.75 22.6482C37.75 22.6694 37.75 22.6907 37.75 22.7121C37.75 22.7334 37.75 22.7548 37.75 22.7762C37.75 22.7976 37.75 22.819 37.75 22.8405C37.75 22.8619 37.75 22.8835 37.75 22.905C37.75 22.9265 37.75 22.9481 37.75 22.9697C37.75 22.9913 37.75 23.013 37.75 23.0346C37.75 23.0563 37.75 23.078 37.75 23.0998C37.75 23.1215 37.75 23.1433 37.75 23.1651C37.75 23.1869 37.75 23.2087 37.75 23.2306C37.75 23.2525 37.75 23.2744 37.75 23.2963C37.75 23.3182 37.75 23.3402 37.75 23.3622C37.75 23.3842 37.75 23.4062 37.75 23.4283C37.75 23.4503 37.75 23.4724 37.75 23.4945C37.75 23.5167 37.75 23.5388 37.75 23.561C37.75 23.5832 37.75 23.6054 37.75 23.6276C37.75 23.6499 37.75 23.6721 37.75 23.6944C37.75 23.7168 37.75 23.7391 37.75 23.7614C37.75 23.7838 37.75 23.8062 37.75 23.8286C37.75 23.851 37.75 23.8735 37.75 23.8959C37.75 23.9184 37.75 23.9409 37.75 23.9635C37.75 23.986 37.75 24.0086 37.75 24.0311C37.75 24.0537 37.75 24.0763 37.75 24.099C37.75 24.1216 37.75 24.1443 37.75 24.167C37.75 24.1897 37.75 24.2124 37.75 24.2352C37.75 24.2579 37.75 24.2807 37.75 24.3035C37.75 24.3263 37.75 24.3491 37.75 24.372C37.75 24.3949 37.75 24.4177 37.75 24.4406C37.75 24.4636 37.75 24.4865 37.75 24.5095C37.75 24.5324 37.75 24.5554 37.75 24.5784C37.75 24.6014 37.75 24.6244 37.75 24.6475C37.75 24.6706 37.75 24.6937 37.75 24.7168C37.75 24.7399 37.75 24.763 37.75 24.7862C37.75 24.8093 37.75 24.8325 37.75 24.8557C37.75 24.8789 37.75 24.9021 37.75 24.9254C37.75 24.9486 37.75 24.9719 37.75 24.9952C37.75 25.0185 37.75 25.0418 37.75 25.0651C37.75 25.0885 37.75 25.1119 37.75 25.1352C37.75 25.1586 37.75 25.182 37.75 25.2055C37.75 25.2289 37.75 25.2523 37.75 25.2758C37.75 25.2993 37.75 25.3228 37.75 25.3463C37.75 25.3698 37.75 25.3933 37.75 25.4169C37.75 25.4405 37.75 25.464 37.75 25.4876C37.75 25.5112 37.75 25.5348 37.75 25.5585C37.75 25.5821 37.75 25.6058 37.75 25.6295C37.75 25.6531 37.75 25.6768 37.75 25.7005C37.75 25.7243 37.75 25.748 37.75 25.7718C37.75 25.7955 37.75 25.8193 37.75 25.8431C37.75 25.8669 37.75 25.8907 37.75 25.9145C37.75 25.9383 37.75 25.9622 37.75 25.986C37.75 26.0099 37.75 26.0338 37.75 26.0577C37.75 26.0816 37.75 26.1055 37.75 26.1294C37.75 26.1534 37.75 26.1773 37.75 26.2013C37.75 26.2252 37.75 26.2492 37.75 26.2732C37.75 26.2972 37.75 26.3212 37.75 26.3453C37.75 26.3693 37.75 26.3934 37.75 26.4174C37.75 26.4415 37.75 26.4656 37.75 26.4897C37.75 26.5138 37.75 26.5379 37.75 26.562C37.75 26.5861 37.75 26.6103 37.75 26.6344C37.75 26.6586 37.75 26.6827 37.75 26.7069C37.75 26.7311 37.75 26.7553 37.75 26.7795C37.75 26.8037 37.75 26.828 37.75 26.8522C37.75 26.8764 37.75 26.9007 37.75 26.925C37.75 26.9492 37.75 26.9735 37.75 26.9978C37.75 27.0221 37.75 27.0464 37.75 27.0707C37.75 27.095 37.75 27.1193 37.75 27.1437C37.75 27.168 37.75 27.1924 37.75 27.2167C37.75 27.2411 37.75 27.2655 37.75 27.2899C37.75 27.3143 37.75 27.3387 37.75 27.3631C37.75 27.3875 37.75 27.4119 37.75 27.4363C37.75 27.4608 37.75 27.4852 37.75 27.5097C37.75 27.5341 37.75 27.5586 37.75 27.5831C37.75 27.6075 37.75 27.632 37.75 27.6565C37.75 27.681 37.75 27.7055 37.75 27.73C37.75 27.7545 37.75 27.779 37.75 27.8036C37.75 27.8281 37.75 27.8526 37.75 27.8772C37.75 27.9017 37.75 27.9263 37.75 27.9509C37.75 27.9754 37.75 28 37.75 28.0246C37.75 28.0491 37.75 28.0737 37.75 28.0983C37.75 28.1229 37.75 28.1475 37.75 28.1721C37.75 28.1967 37.75 28.2214 37.75 28.246C37.75 28.2706 37.75 28.2952 37.75 28.3199C37.75 28.3445 37.75 28.3692 37.75 28.3938C37.75 28.4184 37.75 28.4431 37.75 28.4678C37.75 28.4924 37.75 28.5171 37.75 28.5418C37.75 28.5664 37.75 28.5911 37.75 28.6158C37.75 28.6405 37.75 28.6652 37.75 28.6898C37.75 28.7145 37.75 28.7392 37.75 28.7639C37.75 28.7886 37.75 28.8133 37.75 28.838C37.75 28.8627 37.75 28.8875 37.75 28.9122C37.75 28.9369 37.75 28.9616 37.75 28.9863C37.75 29.011 37.75 29.0358 37.75 29.0605C37.75 29.0852 37.75 29.11 37.75 29.1347C37.75 29.1594 37.75 29.1842 37.75 29.2089C37.75 29.2336 37.75 29.2584 37.75 29.2831C37.75 29.3078 37.75 29.3326 37.75 29.3573C37.75 29.3821 37.75 29.4068 37.75 29.4316C37.75 29.4563 37.75 29.4811 37.75 29.5058C37.75 29.5306 37.75 29.5553 37.75 29.5801C37.75 29.6048 37.75 29.6296 37.75 29.6543C37.75 29.679 37.75 29.7038 37.75 29.7285C37.75 29.7533 37.75 29.778 37.75 29.8028C37.75 29.8275 37.75 29.8523 37.75 29.877C37.75 29.9018 37.75 29.9265 37.75 29.9513C37.75 29.976 37.75 30.0007 37.75 30.0255C37.75 30.0502 37.75 30.075 37.75 30.0997C37.75 30.1244 37.75 30.1492 37.75 30.1739C37.75 30.1986 37.75 30.2233 37.75 30.2481C37.75 30.2728 37.75 30.2975 37.75 30.3222C37.75 30.347 37.75 30.3717 37.75 30.3964C37.75 30.4211 37.75 30.4458 37.75 30.4705C37.75 30.4952 37.75 30.5199 37.75 30.5446C37.75 30.5693 37.75 30.594 37.75 30.6187C37.75 30.6434 37.75 30.668 37.75 30.6927C37.75 30.7174 37.75 30.7421 37.75 30.7667C37.75 30.7914 37.75 30.8161 37.75 30.8407C37.75 30.8654 37.75 30.89 37.75 30.9147C37.75 30.9393 37.75 30.9639 37.75 30.9886C37.75 31.0132 37.75 31.0378 37.75 31.0624C37.75 31.0871 37.75 31.1117 37.75 31.1363C37.75 31.1609 37.75 31.1855 37.75 31.2101C37.75 31.2346 37.75 31.2592 37.75 31.2838C37.75 31.3084 37.75 31.3329 37.75 31.3575C37.75 31.382 37.75 31.4066 37.75 31.4311C37.75 31.4557 37.75 31.4802 37.75 31.5047C37.75 31.5293 37.75 31.5538 37.75 31.5783C37.75 31.6028 37.75 31.6273 37.75 31.6517C37.75 31.6762 37.75 31.7007 37.75 31.7252C37.75 31.7496 37.75 31.7741 37.75 31.7985C37.75 31.823 37.75 31.8474 37.75 31.8718C37.75 31.8963 37.75 31.9207 37.75 31.9451C37.75 31.9695 37.75 31.9939 37.75 32.0182C37.75 32.0426 37.75 32.067 37.75 32.0913C37.75 32.1157 37.75 32.14 37.75 32.1644C37.75 32.1887 37.75 32.213 37.75 32.2373C37.75 32.2616 37.75 32.2859 37.75 32.3102C37.75 32.3345 37.75 32.3587 37.75 32.383C37.75 32.4072 37.75 32.4315 37.75 32.4557C37.75 32.4799 37.75 32.5042 37.75 32.5284C37.75 32.5526 37.75 32.5767 37.75 32.6009C37.75 32.6251 37.75 32.6492 37.75 32.6734C37.75 32.6975 37.75 32.7217 37.75 32.7458C37.75 32.7699 37.75 32.794 37.75 32.8181C37.75 32.8421 37.75 32.8662 37.75 32.8903C37.75 32.9143 37.75 32.9383 37.75 32.9624C37.75 32.9864 37.75 33.0104 37.75 33.0344C37.75 33.0583 37.75 33.0823 37.75 33.1063C37.75 33.1302 37.75 33.1542 37.75 33.1781C37.75 33.202 37.75 33.2259 37.75 33.2498C37.75 33.2737 37.75 33.2975 37.75 33.3214C37.75 33.3452 37.75 33.3691 37.75 33.3929C37.75 33.4167 37.75 33.4405 37.75 33.4642C37.75 33.488 37.75 33.5118 37.75 33.5355C37.75 33.5592 37.75 33.583 37.75 33.6067C37.75 33.6304 37.75 33.654 37.75 33.6777C37.75 33.7014 37.75 33.725 37.75 33.7486C37.75 33.7722 37.75 33.7958 37.75 33.8194C37.75 33.843 37.75 33.8666 37.75 33.8901C37.75 33.9136 37.75 33.9371 37.75 33.9606C37.75 33.9841 37.75 34.0076 37.75 34.0311C37.75 34.0545 37.75 34.078 37.75 34.1014C37.75 34.1248 37.75 34.1482 37.75 34.1715C37.75 34.1949 37.75 34.2182 37.75 34.2416C37.75 34.2649 37.75 34.2882 37.75 34.3115C37.75 34.3347 37.75 34.358 37.75 34.3812C37.75 34.4044 37.75 34.4276 37.75 34.4508C37.75 34.474 37.75 34.4972 37.75 34.5203C37.75 34.5434 37.75 34.5665 37.75 34.5896C37.75 34.6127 37.75 34.6358 37.75 34.6588C37.75 34.6819 37.75 34.7049 37.75 34.7279C37.75 34.7508 37.75 34.7738 37.75 34.7967C37.75 34.8197 37.75 34.8426 37.75 34.8655C37.75 34.8884 37.75 34.9112 37.75 34.9341C37.75 34.9569 37.75 34.9797 37.75 35.0025C37.75 35.0253 37.75 35.048 37.75 35.0707C37.75 35.0935 37.75 35.1162 37.75 35.1388C37.75 35.1615 37.75 35.1842 37.75 35.2068C37.75 35.2294 37.75 35.252 37.75 35.2746C37.75 35.2971 37.75 35.3197 37.75 35.3422C37.75 35.3647 37.75 35.3871 37.75 35.4096C37.75 35.432 37.75 35.4545 37.75 35.4769C37.75 35.4993 37.75 35.5216 37.75 35.544C37.75 35.5663 37.75 35.5886 37.75 35.6109C37.75 35.6331 37.75 35.6554 37.75 35.6776C37.75 35.6998 37.75 35.722 37.75 35.7442C37.75 35.7663 37.75 35.7884 37.75 35.8105C37.75 35.8326 37.75 35.8547 37.75 35.8767C37.75 35.8987 37.75 35.9207 37.75 35.9427C37.75 35.9647 37.75 35.9866 37.75 36.0085C37.75 36.0304 37.75 36.0523 37.75 36.0741C37.75 36.096 37.75 36.1178 37.75 36.1396C37.75 36.1613 37.75 36.1831 37.75 36.2048C37.75 36.2265 37.75 36.2482 37.75 36.2698C37.75 36.2915 37.75 36.3131 37.75 36.3347C37.75 36.3562 37.75 36.3778 37.75 36.3993C37.75 36.4208 37.75 36.4423 37.75 36.4637C37.75 36.4852 37.75 36.5066 37.75 36.528C37.75 36.5493 37.75 36.5707 37.75 36.592C37.75 36.6133 37.75 36.6345 37.75 36.6558C37.75 36.677 37.75 36.6982 37.75 36.7194C37.75 36.7405 37.75 36.7616 37.75 36.7827C37.75 36.8038 37.75 36.8249 37.75 36.8459C37.75 36.8669 37.75 36.8879 37.75 36.9088C37.75 36.9298 37.75 36.9507 37.75 36.9715C37.75 36.9924 37.75 37.0132 37.75 37.034C37.75 37.0548 37.75 37.0756 37.75 37.0963C37.75 37.117 37.75 37.1377 37.75 37.1583C37.75 37.179 37.75 37.1996 37.75 37.2202C37.75 37.2407 37.75 37.2613 37.75 37.2817C37.75 37.3022 37.75 37.3227 37.75 37.3431C37.75 37.3635 37.75 37.3839 37.75 37.4042C37.75 37.4245 37.75 37.4448 37.75 37.4651C37.75 37.4853 37.75 37.5055 37.75 37.5257C37.75 37.5459 37.75 37.566 37.75 37.5861C37.75 37.6062 37.75 37.6262 37.75 37.6462C37.75 37.6662 37.75 37.6862 37.75 37.7061C37.75 37.726 37.75 37.7459 37.75 37.7658C37.75 37.7856 37.75 37.8054 37.75 37.8252C37.75 37.8449 37.75 37.8646 37.75 37.8843C37.75 37.904 37.75 37.9236 37.75 37.9432C37.75 37.9628 37.75 37.9823 37.75 38.0018C37.75 38.0213 37.75 38.0408 37.75 38.0602C37.75 38.0796 37.75 38.099 37.75 38.1183C37.75 38.1376 37.75 38.1569 37.75 38.1761C37.75 38.1954 37.75 38.2146 37.75 38.2337C37.75 38.2529 37.75 38.272 37.75 38.291C37.75 38.3101 37.75 38.3291 37.75 38.3481C37.75 38.367 37.75 38.386 37.75 38.4048C37.75 38.4237 37.75 38.4425 37.75 38.4613C37.75 38.4801 37.75 38.4988 37.75 38.5175C37.75 38.5362 37.75 38.5549 37.75 38.5735C37.75 38.5921 37.75 38.6106 37.75 38.6291C37.75 38.6476 37.75 38.6661 37.75 38.6845C37.75 38.7029 37.75 38.7213 37.75 38.7396C37.75 38.7579 37.75 38.7762 37.75 38.7944C37.75 38.8126 37.75 38.8308 37.75 38.8489C37.75 38.867 37.75 38.8851 37.75 38.9031C37.75 38.9211 37.75 38.9391 37.75 38.957C37.75 38.9749 37.75 38.9928 37.75 39.0106C37.75 39.0285 37.75 39.0462 37.75 39.064C37.75 39.0817 37.75 39.0994 37.75 39.117C37.75 39.1346 37.75 39.1522 37.75 39.1697C37.75 39.1872 37.75 39.2047 37.75 39.2221C37.75 39.2396 37.75 39.2569 37.75 39.2742C37.75 39.2916 37.75 39.3088 37.75 39.326C37.75 39.3433 37.75 39.3604 37.75 39.3775C37.75 39.3946 37.75 39.4117 37.75 39.4287C37.75 39.4457 37.75 39.4627 37.75 39.4796C37.75 39.4965 37.75 39.5133 37.75 39.5301C37.75 39.5469 37.75 39.5637 37.75 39.5803C37.75 39.597 37.75 39.6137 37.75 39.6303C37.75 39.6468 37.75 39.6634 37.75 39.6798C37.75 39.6963 37.75 39.7127 37.75 39.7291C37.75 39.7454 37.75 39.7618 37.75 39.778C37.75 39.7943 37.75 39.8105 37.75 39.8266C37.75 39.8427 37.75 39.8588 37.75 39.8749C37.75 39.8909 37.75 39.9069 37.75 39.9228C37.75 39.9387 37.75 39.9546 37.75 39.9704C37.75 39.9862 37.75 40.0019 37.75 40.0176C37.75 40.0333 37.75 40.049 37.75 40.0645C37.75 40.0801 37.75 40.0956 37.75 40.1111C37.75 40.1266 37.75 40.142 37.75 40.1573C37.75 40.1727 37.75 40.188 37.75 40.2032C37.75 40.2184 37.75 40.2336 37.75 40.2487C37.75 40.2638 37.75 40.2789 37.75 40.2939C37.75 40.3089 37.75 40.3238 37.75 40.3387C37.75 40.3536 37.75 40.3684 37.75 40.3832C37.75 40.3979 37.75 40.4126 37.75 40.4273C37.75 40.4419 37.75 40.4565 37.75 40.471C37.75 40.4855 37.75 40.5 37.75 40.5144C37.75 40.5288 37.75 40.5431 37.75 40.5574C37.75 40.5717 37.75 40.5859 37.75 40.6C37.75 40.6142 37.75 40.6283 37.75 40.6423C37.75 40.6563 37.75 40.6703 37.75 40.6842C37.75 40.6981 37.75 40.712 37.75 40.7258C37.75 40.7395 37.75 40.7533 37.75 40.7669C37.75 40.7806 37.75 40.7942 37.75 40.8077C37.75 40.8212 37.75 40.8347 37.75 40.8481C37.75 40.8615 37.75 40.8748 37.75 40.8881C37.75 40.9014 37.75 40.9146 37.75 40.9277C37.75 40.9409 37.75 40.954 37.75 40.967C37.75 40.98 37.75 40.993 37.75 41.0059C37.75 41.0187 37.75 41.0316 37.75 41.0443C37.75 41.0571 37.75 41.0698 37.75 41.0824C37.75 41.095 37.75 41.1076 37.75 41.1201C37.75 41.1326 37.75 41.145 37.75 41.1574C37.75 41.1697 37.75 41.182 37.75 41.1942C37.75 41.2065 37.75 41.2186 37.75 41.2307C37.75 41.2428 37.75 41.2549 37.75 41.2668C37.75 41.2788 37.75 41.2907 37.75 41.3025C37.75 41.3143 37.75 41.3261 37.75 41.3378C37.75 41.3494 37.75 41.3611 37.75 41.3726C37.75 41.3842 37.75 41.3956 37.75 41.4071C37.75 41.4185 37.75 41.4298 37.75 41.4411C37.75 41.4524 37.75 41.4636 37.75 41.4747C37.75 41.4858 37.75 41.4969 37.75 41.5079C37.75 41.5189 37.75 41.5298 37.75 41.5407C37.75 41.5515 37.75 41.5623 37.75 41.573C37.75 41.5837 37.75 41.5944 37.75 41.605C37.75 41.6155 37.75 41.626 37.75 41.6365C37.75 41.6469 37.75 41.6572 37.75 41.6675C37.75 41.6778 37.75 41.688 37.75 41.6982C37.75 41.7083 37.75 41.7184 37.75 41.7284C37.75 41.7384 37.75 41.7483 37.75 41.7581C37.75 41.768 37.75 41.7778 37.75 41.7875C37.75 41.7972 37.75 41.8068 37.75 41.8164C37.75 41.8259 37.75 41.8354 37.75 41.8448C37.75 41.8542 37.75 41.8636 37.75 41.8728C37.75 41.8821 37.75 41.8913 37.75 41.9004C37.75 41.9095 37.75 41.9186 37.75 41.9275C37.75 41.9365 37.75 41.9454 37.75 41.9542C37.75 41.963 37.75 41.9717 37.75 41.9804C37.75 41.9891 37.75 41.9976 37.75 42.0061C37.75 42.0147 37.75 42.0231 37.75 42.0314C37.75 42.0398 37.75 42.0481 37.75 42.0563C37.75 42.0645 37.75 42.0726 37.75 42.0807C37.75 42.0887 37.75 42.0967 37.75 42.1046C37.75 42.1125 37.75 42.1203 37.75 42.128C37.75 42.1358 37.75 42.1434 37.75 42.151C37.75 42.1586 37.75 42.1661 37.75 42.1735C37.75 42.1809 37.75 42.1883 37.75 42.1956C37.75 42.2028 37.75 42.21 37.75 42.2171C37.75 42.2242 37.75 42.2313 37.75 42.2382C37.75 42.2452 37.75 42.252 37.75 42.2588C37.75 42.2656 37.75 42.2723 37.75 42.279C37.75 42.2856 37.75 42.2921 37.75 42.2986C37.75 42.3051 37.75 42.3115 37.75 42.3178C37.75 42.3241 37.75 42.3303 37.75 42.3364C37.75 42.3426 37.75 42.3487 37.75 42.3546C37.75 42.3606 37.75 42.3665 37.75 42.3723C37.75 42.3781 37.75 42.3839 37.75 42.3895C37.75 42.3952 37.75 42.4008 37.75 42.4062C37.75 42.4117 37.75 42.4171 37.75 42.4224C37.75 42.4278 37.75 42.433 37.75 42.4382C37.75 42.4433 37.75 42.4484 37.75 42.4534C37.75 42.4584 37.75 42.4633 37.75 42.4681C37.75 42.4729 37.75 42.4776 37.75 42.4823C37.75 42.4869 37.75 42.4915 37.75 42.496C37.75 42.5004 37.75 42.5048 37.75 42.5091C37.75 42.5134 37.75 42.5177 37.75 42.5218C37.75 42.5259 37.75 42.53 37.75 42.5339C37.75 42.5379 37.75 42.5418 37.75 42.5456C37.75 42.5494 37.75 42.5531 37.75 42.5567C37.75 42.5603 37.75 42.5638 37.75 42.5673C37.75 42.5707 37.75 42.5741 37.75 42.5774C37.75 42.5806 37.75 42.5838 37.75 42.5869C37.75 42.59 37.75 42.593 37.75 42.5959C37.75 42.5988 37.75 42.6017 37.75 42.6044C37.75 42.6071 37.75 42.6098 37.75 42.6124C37.75 42.6149 37.75 42.6174 37.75 42.6198C37.75 42.6222 37.75 42.6245 37.75 42.6267C37.75 42.6289 37.75 42.631 37.75 42.633C37.75 42.635 37.75 42.637 37.75 42.6388C37.75 42.6407 37.75 42.6424 37.75 42.6441C37.75 42.6457 37.75 42.6473 37.75 42.6488C37.75 42.6503 37.75 42.6517 37.75 42.653C37.75 42.6543 37.75 42.6555 37.75 42.6566C37.75 42.6577 37.75 42.6587 37.75 42.6597C37.75 42.6606 37.75 42.6614 37.75 42.6622C37.75 42.6629 37.75 42.6636 37.75 42.6641C37.75 42.6647 37.75 42.6652 37.75 42.6655C37.75 42.6659 37.75 42.6662 37.75 42.6664C37.75 42.6666 37.75 42.6667 38 42.6667C38.25 42.6667 38.25 42.6666 38.25 42.6664C38.25 42.6662 38.25 42.6659 38.25 42.6655C38.25 42.6652 38.25 42.6647 38.25 42.6641C38.25 42.6636 38.25 42.6629 38.25 42.6622C38.25 42.6614 38.25 42.6606 38.25 42.6597C38.25 42.6587 38.25 42.6577 38.25 42.6566C38.25 42.6555 38.25 42.6543 38.25 42.653C38.25 42.6517 38.25 42.6503 38.25 42.6488C38.25 42.6473 38.25 42.6457 38.25 42.6441C38.25 42.6424 38.25 42.6407 38.25 42.6388C38.25 42.637 38.25 42.635 38.25 42.633C38.25 42.631 38.25 42.6289 38.25 42.6267C38.25 42.6245 38.25 42.6222 38.25 42.6198C38.25 42.6174 38.25 42.6149 38.25 42.6124C38.25 42.6098 38.25 42.6071 38.25 42.6044C38.25 42.6017 38.25 42.5988 38.25 42.5959C38.25 42.593 38.25 42.59 38.25 42.5869C38.25 42.5838 38.25 42.5806 38.25 42.5774C38.25 42.5741 38.25 42.5707 38.25 42.5673C38.25 42.5638 38.25 42.5603 38.25 42.5567C38.25 42.5531 38.25 42.5494 38.25 42.5456C38.25 42.5418 38.25 42.5379 38.25 42.5339C38.25 42.53 38.25 42.5259 38.25 42.5218C38.25 42.5177 38.25 42.5134 38.25 42.5091C38.25 42.5048 38.25 42.5004 38.25 42.496C38.25 42.4915 38.25 42.4869 38.25 42.4823C38.25 42.4776 38.25 42.4729 38.25 42.4681C38.25 42.4633 38.25 42.4584 38.25 42.4534C38.25 42.4484 38.25 42.4433 38.25 42.4382C38.25 42.433 38.25 42.4278 38.25 42.4224C38.25 42.4171 38.25 42.4117 38.25 42.4062C38.25 42.4008 38.25 42.3952 38.25 42.3895C38.25 42.3839 38.25 42.3781 38.25 42.3723C38.25 42.3665 38.25 42.3606 38.25 42.3546C38.25 42.3487 38.25 42.3426 38.25 42.3364C38.25 42.3303 38.25 42.3241 38.25 42.3178C38.25 42.3115 38.25 42.3051 38.25 42.2986C38.25 42.2921 38.25 42.2856 38.25 42.279C38.25 42.2723 38.25 42.2656 38.25 42.2588C38.25 42.252 38.25 42.2452 38.25 42.2382C38.25 42.2313 38.25 42.2242 38.25 42.2171C38.25 42.21 38.25 42.2028 38.25 42.1956C38.25 42.1883 38.25 42.1809 38.25 42.1735C38.25 42.1661 38.25 42.1586 38.25 42.151C38.25 42.1434 38.25 42.1358 38.25 42.128C38.25 42.1203 38.25 42.1125 38.25 42.1046C38.25 42.0967 38.25 42.0887 38.25 42.0807C38.25 42.0726 38.25 42.0645 38.25 42.0563C38.25 42.0481 38.25 42.0398 38.25 42.0314C38.25 42.0231 38.25 42.0147 38.25 42.0061C38.25 41.9976 38.25 41.9891 38.25 41.9804C38.25 41.9717 38.25 41.963 38.25 41.9542C38.25 41.9454 38.25 41.9365 38.25 41.9275C38.25 41.9186 38.25 41.9095 38.25 41.9004C38.25 41.8913 38.25 41.8821 38.25 41.8728C38.25 41.8636 38.25 41.8542 38.25 41.8448C38.25 41.8354 38.25 41.8259 38.25 41.8164C38.25 41.8068 38.25 41.7972 38.25 41.7875C38.25 41.7778 38.25 41.768 38.25 41.7581C38.25 41.7483 38.25 41.7384 38.25 41.7284C38.25 41.7184 38.25 41.7083 38.25 41.6982C38.25 41.688 38.25 41.6778 38.25 41.6675C38.25 41.6572 38.25 41.6469 38.25 41.6365C38.25 41.626 38.25 41.6155 38.25 41.605C38.25 41.5944 38.25 41.5837 38.25 41.573C38.25 41.5623 38.25 41.5515 38.25 41.5407C38.25 41.5298 38.25 41.5189 38.25 41.5079C38.25 41.4969 38.25 41.4858 38.25 41.4747C38.25 41.4636 38.25 41.4524 38.25 41.4411C38.25 41.4298 38.25 41.4185 38.25 41.4071C38.25 41.3956 38.25 41.3842 38.25 41.3726C38.25 41.3611 38.25 41.3494 38.25 41.3378C38.25 41.3261 38.25 41.3143 38.25 41.3025C38.25 41.2907 38.25 41.2788 38.25 41.2668C38.25 41.2549 38.25 41.2428 38.25 41.2307C38.25 41.2186 38.25 41.2065 38.25 41.1942C38.25 41.182 38.25 41.1697 38.25 41.1574C38.25 41.145 38.25 41.1326 38.25 41.1201C38.25 41.1076 38.25 41.095 38.25 41.0824C38.25 41.0698 38.25 41.0571 38.25 41.0443C38.25 41.0316 38.25 41.0187 38.25 41.0059C38.25 40.993 38.25 40.98 38.25 40.967C38.25 40.954 38.25 40.9409 38.25 40.9277C38.25 40.9146 38.25 40.9014 38.25 40.8881C38.25 40.8748 38.25 40.8615 38.25 40.8481C38.25 40.8347 38.25 40.8212 38.25 40.8077C38.25 40.7942 38.25 40.7806 38.25 40.7669C38.25 40.7533 38.25 40.7395 38.25 40.7258C38.25 40.712 38.25 40.6981 38.25 40.6842C38.25 40.6703 38.25 40.6563 38.25 40.6423C38.25 40.6283 38.25 40.6142 38.25 40.6C38.25 40.5859 38.25 40.5717 38.25 40.5574C38.25 40.5431 38.25 40.5288 38.25 40.5144C38.25 40.5 38.25 40.4855 38.25 40.471C38.25 40.4565 38.25 40.4419 38.25 40.4273C38.25 40.4126 38.25 40.3979 38.25 40.3832C38.25 40.3684 38.25 40.3536 38.25 40.3387C38.25 40.3238 38.25 40.3089 38.25 40.2939C38.25 40.2789 38.25 40.2638 38.25 40.2487C38.25 40.2336 38.25 40.2184 38.25 40.2032C38.25 40.188 38.25 40.1727 38.25 40.1573C38.25 40.142 38.25 40.1266 38.25 40.1111C38.25 40.0956 38.25 40.0801 38.25 40.0645C38.25 40.049 38.25 40.0333 38.25 40.0176C38.25 40.0019 38.25 39.9862 38.25 39.9704C38.25 39.9546 38.25 39.9387 38.25 39.9228C38.25 39.9069 38.25 39.8909 38.25 39.8749C38.25 39.8588 38.25 39.8427 38.25 39.8266C38.25 39.8105 38.25 39.7943 38.25 39.778C38.25 39.7618 38.25 39.7454 38.25 39.7291C38.25 39.7127 38.25 39.6963 38.25 39.6798C38.25 39.6634 38.25 39.6468 38.25 39.6303C38.25 39.6137 38.25 39.597 38.25 39.5803C38.25 39.5637 38.25 39.5469 38.25 39.5301C38.25 39.5133 38.25 39.4965 38.25 39.4796C38.25 39.4627 38.25 39.4457 38.25 39.4287C38.25 39.4117 38.25 39.3946 38.25 39.3775C38.25 39.3604 38.25 39.3433 38.25 39.326C38.25 39.3088 38.25 39.2916 38.25 39.2742C38.25 39.2569 38.25 39.2396 38.25 39.2221C38.25 39.2047 38.25 39.1872 38.25 39.1697C38.25 39.1522 38.25 39.1346 38.25 39.117C38.25 39.0994 38.25 39.0817 38.25 39.064C38.25 39.0462 38.25 39.0285 38.25 39.0106C38.25 38.9928 38.25 38.9749 38.25 38.957C38.25 38.9391 38.25 38.9211 38.25 38.9031C38.25 38.8851 38.25 38.867 38.25 38.8489C38.25 38.8308 38.25 38.8126 38.25 38.7944C38.25 38.7762 38.25 38.7579 38.25 38.7396C38.25 38.7213 38.25 38.7029 38.25 38.6845C38.25 38.6661 38.25 38.6476 38.25 38.6291C38.25 38.6106 38.25 38.5921 38.25 38.5735C38.25 38.5549 38.25 38.5362 38.25 38.5175C38.25 38.4988 38.25 38.4801 38.25 38.4613C38.25 38.4425 38.25 38.4237 38.25 38.4048C38.25 38.386 38.25 38.367 38.25 38.3481C38.25 38.3291 38.25 38.3101 38.25 38.291C38.25 38.272 38.25 38.2529 38.25 38.2337C38.25 38.2146 38.25 38.1954 38.25 38.1761C38.25 38.1569 38.25 38.1376 38.25 38.1183C38.25 38.099 38.25 38.0796 38.25 38.0602C38.25 38.0408 38.25 38.0213 38.25 38.0018C38.25 37.9823 38.25 37.9628 38.25 37.9432C38.25 37.9236 38.25 37.904 38.25 37.8843C38.25 37.8646 38.25 37.8449 38.25 37.8252C38.25 37.8054 38.25 37.7856 38.25 37.7658C38.25 37.7459 38.25 37.726 38.25 37.7061C38.25 37.6862 38.25 37.6662 38.25 37.6462C38.25 37.6262 38.25 37.6062 38.25 37.5861C38.25 37.566 38.25 37.5459 38.25 37.5257C38.25 37.5055 38.25 37.4853 38.25 37.4651C38.25 37.4448 38.25 37.4245 38.25 37.4042C38.25 37.3839 38.25 37.3635 38.25 37.3431C38.25 37.3227 38.25 37.3022 38.25 37.2817C38.25 37.2613 38.25 37.2407 38.25 37.2202C38.25 37.1996 38.25 37.179 38.25 37.1583C38.25 37.1377 38.25 37.117 38.25 37.0963C38.25 37.0756 38.25 37.0548 38.25 37.034C38.25 37.0132 38.25 36.9924 38.25 36.9715C38.25 36.9507 38.25 36.9298 38.25 36.9088C38.25 36.8879 38.25 36.8669 38.25 36.8459C38.25 36.8249 38.25 36.8038 38.25 36.7827C38.25 36.7616 38.25 36.7405 38.25 36.7194C38.25 36.6982 38.25 36.677 38.25 36.6558C38.25 36.6345 38.25 36.6133 38.25 36.592C38.25 36.5707 38.25 36.5493 38.25 36.528C38.25 36.5066 38.25 36.4852 38.25 36.4637C38.25 36.4423 38.25 36.4208 38.25 36.3993C38.25 36.3778 38.25 36.3562 38.25 36.3347C38.25 36.3131 38.25 36.2915 38.25 36.2698C38.25 36.2482 38.25 36.2265 38.25 36.2048C38.25 36.1831 38.25 36.1613 38.25 36.1396C38.25 36.1178 38.25 36.096 38.25 36.0741C38.25 36.0523 38.25 36.0304 38.25 36.0085C38.25 35.9866 38.25 35.9647 38.25 35.9427C38.25 35.9207 38.25 35.8987 38.25 35.8767C38.25 35.8547 38.25 35.8326 38.25 35.8105C38.25 35.7884 38.25 35.7663 38.25 35.7442C38.25 35.722 38.25 35.6998 38.25 35.6776C38.25 35.6554 38.25 35.6331 38.25 35.6109C38.25 35.5886 38.25 35.5663 38.25 35.544C38.25 35.5216 38.25 35.4993 38.25 35.4769C38.25 35.4545 38.25 35.432 38.25 35.4096C38.25 35.3871 38.25 35.3647 38.25 35.3422C38.25 35.3197 38.25 35.2971 38.25 35.2746C38.25 35.252 38.25 35.2294 38.25 35.2068C38.25 35.1842 38.25 35.1615 38.25 35.1388C38.25 35.1162 38.25 35.0935 38.25 35.0707C38.25 35.048 38.25 35.0253 38.25 35.0025C38.25 34.9797 38.25 34.9569 38.25 34.9341C38.25 34.9112 38.25 34.8884 38.25 34.8655C38.25 34.8426 38.25 34.8197 38.25 34.7967C38.25 34.7738 38.25 34.7508 38.25 34.7279C38.25 34.7049 38.25 34.6819 38.25 34.6588C38.25 34.6358 38.25 34.6127 38.25 34.5896C38.25 34.5665 38.25 34.5434 38.25 34.5203C38.25 34.4972 38.25 34.474 38.25 34.4508C38.25 34.4276 38.25 34.4044 38.25 34.3812C38.25 34.358 38.25 34.3347 38.25 34.3115C38.25 34.2882 38.25 34.2649 38.25 34.2416C38.25 34.2182 38.25 34.1949 38.25 34.1715C38.25 34.1482 38.25 34.1248 38.25 34.1014C38.25 34.078 38.25 34.0545 38.25 34.0311C38.25 34.0076 38.25 33.9841 38.25 33.9606C38.25 33.9371 38.25 33.9136 38.25 33.8901C38.25 33.8666 38.25 33.843 38.25 33.8194C38.25 33.7958 38.25 33.7722 38.25 33.7486C38.25 33.725 38.25 33.7014 38.25 33.6777C38.25 33.654 38.25 33.6304 38.25 33.6067C38.25 33.583 38.25 33.5592 38.25 33.5355C38.25 33.5118 38.25 33.488 38.25 33.4642C38.25 33.4405 38.25 33.4167 38.25 33.3929C38.25 33.3691 38.25 33.3452 38.25 33.3214C38.25 33.2975 38.25 33.2737 38.25 33.2498C38.25 33.2259 38.25 33.202 38.25 33.1781C38.25 33.1542 38.25 33.1302 38.25 33.1063C38.25 33.0823 38.25 33.0583 38.25 33.0344C38.25 33.0104 38.25 32.9864 38.25 32.9624C38.25 32.9383 38.25 32.9143 38.25 32.8903C38.25 32.8662 38.25 32.8421 38.25 32.8181C38.25 32.794 38.25 32.7699 38.25 32.7458C38.25 32.7217 38.25 32.6975 38.25 32.6734C38.25 32.6492 38.25 32.6251 38.25 32.6009C38.25 32.5767 38.25 32.5526 38.25 32.5284C38.25 32.5042 38.25 32.4799 38.25 32.4557C38.25 32.4315 38.25 32.4072 38.25 32.383C38.25 32.3587 38.25 32.3345 38.25 32.3102C38.25 32.2859 38.25 32.2616 38.25 32.2373C38.25 32.213 38.25 32.1887 38.25 32.1644C38.25 32.14 38.25 32.1157 38.25 32.0913C38.25 32.067 38.25 32.0426 38.25 32.0182C38.25 31.9939 38.25 31.9695 38.25 31.9451C38.25 31.9207 38.25 31.8963 38.25 31.8718C38.25 31.8474 38.25 31.823 38.25 31.7985C38.25 31.7741 38.25 31.7496 38.25 31.7252C38.25 31.7007 38.25 31.6762 38.25 31.6517C38.25 31.6273 38.25 31.6028 38.25 31.5783C38.25 31.5538 38.25 31.5293 38.25 31.5047C38.25 31.4802 38.25 31.4557 38.25 31.4311C38.25 31.4066 38.25 31.382 38.25 31.3575C38.25 31.3329 38.25 31.3084 38.25 31.2838C38.25 31.2592 38.25 31.2346 38.25 31.2101C38.25 31.1855 38.25 31.1609 38.25 31.1363C38.25 31.1117 38.25 31.0871 38.25 31.0624C38.25 31.0378 38.25 31.0132 38.25 30.9886C38.25 30.9639 38.25 30.9393 38.25 30.9147C38.25 30.89 38.25 30.8654 38.25 30.8407C38.25 30.8161 38.25 30.7914 38.25 30.7667C38.25 30.7421 38.25 30.7174 38.25 30.6927C38.25 30.668 38.25 30.6434 38.25 30.6187C38.25 30.594 38.25 30.5693 38.25 30.5446C38.25 30.5199 38.25 30.4952 38.25 30.4705C38.25 30.4458 38.25 30.4211 38.25 30.3964C38.25 30.3717 38.25 30.347 38.25 30.3222C38.25 30.2975 38.25 30.2728 38.25 30.2481C38.25 30.2233 38.25 30.1986 38.25 30.1739C38.25 30.1492 38.25 30.1244 38.25 30.0997C38.25 30.075 38.25 30.0502 38.25 30.0255C38.25 30.0007 38.25 29.976 38.25 29.9513C38.25 29.9265 38.25 29.9018 38.25 29.877C38.25 29.8523 38.25 29.8275 38.25 29.8028C38.25 29.778 38.25 29.7533 38.25 29.7285C38.25 29.7038 38.25 29.679 38.25 29.6543C38.25 29.6296 38.25 29.6048 38.25 29.5801C38.25 29.5553 38.25 29.5306 38.25 29.5058C38.25 29.4811 38.25 29.4563 38.25 29.4316C38.25 29.4068 38.25 29.3821 38.25 29.3573C38.25 29.3326 38.25 29.3078 38.25 29.2831C38.25 29.2584 38.25 29.2336 38.25 29.2089C38.25 29.1842 38.25 29.1594 38.25 29.1347C38.25 29.11 38.25 29.0852 38.25 29.0605C38.25 29.0358 38.25 29.011 38.25 28.9863C38.25 28.9616 38.25 28.9369 38.25 28.9122C38.25 28.8875 38.25 28.8627 38.25 28.838C38.25 28.8133 38.25 28.7886 38.25 28.7639C38.25 28.7392 38.25 28.7145 38.25 28.6898C38.25 28.6652 38.25 28.6405 38.25 28.6158C38.25 28.5911 38.25 28.5664 38.25 28.5418C38.25 28.5171 38.25 28.4924 38.25 28.4678C38.25 28.4431 38.25 28.4184 38.25 28.3938C38.25 28.3692 38.25 28.3445 38.25 28.3199C38.25 28.2952 38.25 28.2706 38.25 28.246C38.25 28.2214 38.25 28.1967 38.25 28.1721C38.25 28.1475 38.25 28.1229 38.25 28.0983C38.25 28.0737 38.25 28.0491 38.25 28.0246C38.25 28 38.25 27.9754 38.25 27.9509C38.25 27.9263 38.25 27.9017 38.25 27.8772C38.25 27.8526 38.25 27.8281 38.25 27.8036C38.25 27.779 38.25 27.7545 38.25 27.73C38.25 27.7055 38.25 27.681 38.25 27.6565C38.25 27.632 38.25 27.6075 38.25 27.5831C38.25 27.5586 38.25 27.5341 38.25 27.5097C38.25 27.4852 38.25 27.4608 38.25 27.4363C38.25 27.4119 38.25 27.3875 38.25 27.3631C38.25 27.3387 38.25 27.3143 38.25 27.2899C38.25 27.2655 38.25 27.2411 38.25 27.2167C38.25 27.1924 38.25 27.168 38.25 27.1437C38.25 27.1193 38.25 27.095 38.25 27.0707C38.25 27.0464 38.25 27.0221 38.25 26.9978C38.25 26.9735 38.25 26.9492 38.25 26.925C38.25 26.9007 38.25 26.8764 38.25 26.8522C38.25 26.828 38.25 26.8037 38.25 26.7795C38.25 26.7553 38.25 26.7311 38.25 26.7069C38.25 26.6827 38.25 26.6586 38.25 26.6344C38.25 26.6103 38.25 26.5861 38.25 26.562C38.25 26.5379 38.25 26.5138 38.25 26.4897C38.25 26.4656 38.25 26.4415 38.25 26.4174C38.25 26.3934 38.25 26.3693 38.25 26.3453C38.25 26.3212 38.25 26.2972 38.25 26.2732C38.25 26.2492 38.25 26.2252 38.25 26.2013C38.25 26.1773 38.25 26.1534 38.25 26.1294C38.25 26.1055 38.25 26.0816 38.25 26.0577C38.25 26.0338 38.25 26.0099 38.25 25.986C38.25 25.9622 38.25 25.9383 38.25 25.9145C38.25 25.8907 38.25 25.8669 38.25 25.8431C38.25 25.8193 38.25 25.7955 38.25 25.7718C38.25 25.748 38.25 25.7243 38.25 25.7005C38.25 25.6768 38.25 25.6531 38.25 25.6295C38.25 25.6058 38.25 25.5821 38.25 25.5585C38.25 25.5348 38.25 25.5112 38.25 25.4876C38.25 25.464 38.25 25.4405 38.25 25.4169C38.25 25.3933 38.25 25.3698 38.25 25.3463C38.25 25.3228 38.25 25.2993 38.25 25.2758C38.25 25.2523 38.25 25.2289 38.25 25.2055C38.25 25.182 38.25 25.1586 38.25 25.1352C38.25 25.1119 38.25 25.0885 38.25 25.0651C38.25 25.0418 38.25 25.0185 38.25 24.9952C38.25 24.9719 38.25 24.9486 38.25 24.9254C38.25 24.9021 38.25 24.8789 38.25 24.8557C38.25 24.8325 38.25 24.8093 38.25 24.7862C38.25 24.763 38.25 24.7399 38.25 24.7168C38.25 24.6937 38.25 24.6706 38.25 24.6475C38.25 24.6244 38.25 24.6014 38.25 24.5784C38.25 24.5554 38.25 24.5324 38.25 24.5095C38.25 24.4865 38.25 24.4636 38.25 24.4406C38.25 24.4177 38.25 24.3949 38.25 24.372C38.25 24.3491 38.25 24.3263 38.25 24.3035C38.25 24.2807 38.25 24.2579 38.25 24.2352C38.25 24.2124 38.25 24.1897 38.25 24.167C38.25 24.1443 38.25 24.1216 38.25 24.099C38.25 24.0763 38.25 24.0537 38.25 24.0311C38.25 24.0086 38.25 23.986 38.25 23.9635C38.25 23.9409 38.25 23.9184 38.25 23.8959C38.25 23.8735 38.25 23.851 38.25 23.8286C38.25 23.8062 38.25 23.7838 38.25 23.7614C38.25 23.7391 38.25 23.7168 38.25 23.6944C38.25 23.6721 38.25 23.6499 38.25 23.6276C38.25 23.6054 38.25 23.5832 38.25 23.561C38.25 23.5388 38.25 23.5167 38.25 23.4945C38.25 23.4724 38.25 23.4503 38.25 23.4283C38.25 23.4062 38.25 23.3842 38.25 23.3622C38.25 23.3402 38.25 23.3182 38.25 23.2963C38.25 23.2744 38.25 23.2525 38.25 23.2306C38.25 23.2087 38.25 23.1869 38.25 23.1651C38.25 23.1433 38.25 23.1215 38.25 23.0998C38.25 23.078 38.25 23.0563 38.25 23.0346C38.25 23.013 38.25 22.9913 38.25 22.9697C38.25 22.9481 38.25 22.9265 38.25 22.905C38.25 22.8835 38.25 22.8619 38.25 22.8405C38.25 22.819 38.25 22.7976 38.25 22.7762C38.25 22.7548 38.25 22.7334 38.25 22.7121C38.25 22.6907 38.25 22.6694 38.25 22.6482C38.25 22.6269 38.25 22.6057 38.25 22.5845C38.25 22.5633 38.25 22.5421 38.25 22.521C38.25 22.4999 38.25 22.4788 38.25 22.4578C38.25 22.4367 38.25 22.4157 38.25 22.3947C38.25 22.3737 38.25 22.3528 38.25 22.3319C38.25 22.311 38.25 22.2901 38.25 22.2693C38.25 22.2485 38.25 22.2277 38.25 22.2069C38.25 22.1862 38.25 22.1655 38.25 22.1448C38.25 22.1241 38.25 22.1035 38.25 22.0829C38.25 22.0623 38.25 22.0417 38.25 22.0212C38.25 22.0007 38.25 21.9802 38.25 21.9597C38.25 21.9393 38.25 21.9189 38.25 21.8985C38.25 21.8782 38.25 21.8578 38.25 21.8376C38.25 21.8173 38.25 21.797 38.25 21.7768C38.25 21.7566 38.25 21.7364 38.25 21.7163C38.25 21.6962 38.25 21.6761 38.25 21.6561C38.25 21.636 38.25 21.616 38.25 21.5961C38.25 21.5761 38.25 21.5562 38.25 21.5363C38.25 21.5164 38.25 21.4966 38.25 21.4768C38.25 21.457 38.25 21.4372 38.25 21.4175C38.25 21.3978 38.25 21.3782 38.25 21.3585C38.25 21.3389 38.25 21.3193 38.25 21.2998C38.25 21.2803 38.25 21.2608 38.25 21.2413C38.25 21.2219 38.25 21.2024 38.25 21.1831C38.25 21.1637 38.25 21.1444 38.25 21.1251C38.25 21.1058 38.25 21.0866 38.25 21.0674C38.25 21.0482 38.25 21.0291 38.25 21.01C38.25 20.9909 38.25 20.9718 38.25 20.9528C38.25 20.9338 38.25 20.9149 38.25 20.896C38.25 20.877 38.25 20.8582 38.25 20.8393C38.25 20.8205 38.25 20.8017 38.25 20.783C38.25 20.7643 38.25 20.7456 38.25 20.7269C38.25 20.7083 38.25 20.6897 38.25 20.6712C38.25 20.6526 38.25 20.6341 38.25 20.6157C38.25 20.5972 38.25 20.5788 38.25 20.5605C38.25 20.5421 38.25 20.5238 38.25 20.5055C38.25 20.4873 38.25 20.4691 38.25 20.4509C38.25 20.4327 38.25 20.4146 38.25 20.3966C38.25 20.3785 38.25 20.3605 38.25 20.3425C38.25 20.3245 38.25 20.3066 38.25 20.2887C38.25 20.2709 38.25 20.2531 38.25 20.2353C38.25 20.2175 38.25 20.1998 38.25 20.1821C38.25 20.1645 38.25 20.1468 38.25 20.1293C38.25 20.1117 38.25 20.0942 38.25 20.0767C38.25 20.0592 38.25 20.0418 38.25 20.0245C38.25 20.0071 38.25 19.9898 38.25 19.9725C38.25 19.9553 38.25 19.9381 38.25 19.9209C38.25 19.9037 38.25 19.8866 38.25 19.8696C38.25 19.8525 38.25 19.8355 38.25 19.8186C38.25 19.8016 38.25 19.7847 38.25 19.7679C38.25 19.751 38.25 19.7343 38.25 19.7175C38.25 19.7008 38.25 19.6841 38.25 19.6675C38.25 19.6508 38.25 19.6343 38.25 19.6177C38.25 19.6012 38.25 19.5848 38.25 19.5684C38.25 19.5519 38.25 19.5356 38.25 19.5193C38.25 19.503 38.25 19.4867 38.25 19.4705C38.25 19.4543 38.25 19.4382 38.25 19.4221C38.25 19.4061 38.25 19.39 38.25 19.3741C38.25 19.3581 38.25 19.3422 38.25 19.3263C38.25 19.3105 38.25 19.2947 38.25 19.2789C38.25 19.2632 38.25 19.2475 38.25 19.2319C38.25 19.2162 38.25 19.2007 38.25 19.1851C38.25 19.1696 38.25 19.1542 38.25 19.1388C38.25 19.1234 38.25 19.108 38.25 19.0927C38.25 19.0775 38.25 19.0622 38.25 19.0471C38.25 19.0319 38.25 19.0168 38.25 19.0017C38.25 18.9867 38.25 18.9717 38.25 18.9568C38.25 18.9418 38.25 18.927 38.25 18.9121C38.25 18.8973 38.25 18.8826 38.25 18.8679C38.25 18.8532 38.25 18.8385 38.25 18.824C38.25 18.8094 38.25 18.7949 38.25 18.7804C38.25 18.766 38.25 18.7516 38.25 18.7373C38.25 18.7229 38.25 18.7087 38.25 18.6944C38.25 18.6802 38.25 18.6661 38.25 18.652C38.25 18.6379 38.25 18.6239 38.25 18.6099C38.25 18.596 38.25 18.5821 38.25 18.5682C38.25 18.5544 38.25 18.5406 38.25 18.5269C38.25 18.5132 38.25 18.4995 38.25 18.486C38.25 18.4724 38.25 18.4589 38.25 18.4454C38.25 18.4319 38.25 18.4185 38.25 18.4052C38.25 18.3919 38.25 18.3786 38.25 18.3654C38.25 18.3522 38.25 18.3391 38.25 18.326C38.25 18.3129 38.25 18.2999 38.25 18.2869C38.25 18.274 38.25 18.2611 38.25 18.2483C38.25 18.2355 38.25 18.2227 38.25 18.2101C38.25 18.1974 38.25 18.1848 38.25 18.1722C38.25 18.1596 38.25 18.1472 38.25 18.1347C38.25 18.1223 38.25 18.11 38.25 18.0977C38.25 18.0854 38.25 18.0732 38.25 18.061C38.25 18.0489 38.25 18.0368 38.25 18.0248C38.25 18.0127 38.25 18.0008 38.25 17.9889C38.25 17.977 38.25 17.9652 38.25 17.9534C38.25 17.9417 38.25 17.93 38.25 17.9184C38.25 17.9068 38.25 17.8953 38.25 17.8838C38.25 17.8723 38.25 17.8609 38.25 17.8496C38.25 17.8382 38.25 17.827 38.25 17.8158C38.25 17.8046 38.25 17.7934 38.25 17.7824C38.25 17.7713 38.25 17.7603 38.25 17.7494C38.25 17.7385 38.25 17.7276 38.25 17.7169C38.25 17.7061 38.25 17.6954 38.25 17.6848C38.25 17.6741 38.25 17.6636 38.25 17.6531C38.25 17.6426 38.25 17.6321 38.25 17.6218C38.25 17.6115 38.25 17.6012 38.25 17.591C38.25 17.5808 38.25 17.5706 38.25 17.5606C38.25 17.5505 38.25 17.5405 38.25 17.5306C38.25 17.5207 38.25 17.5108 38.25 17.5011C38.25 17.4913 38.25 17.4816 38.25 17.472C38.25 17.4624 38.25 17.4528 38.25 17.4433C38.25 17.4339 38.25 17.4245 38.25 17.4151C38.25 17.4058 38.25 17.3965 38.25 17.3874C38.25 17.3782 38.25 17.3691 38.25 17.36C38.25 17.351 38.25 17.3421 38.25 17.3332C38.25 17.3243 38.25 17.3155 38.25 17.3068C38.25 17.298 38.25 17.2894 38.25 17.2808C38.25 17.2722 38.25 17.2637 38.25 17.2553C38.25 17.2469 38.25 17.2385 38.25 17.2303C38.25 17.222 38.25 17.2138 38.25 17.2057C38.25 17.1976 38.25 17.1895 38.25 17.1816C38.25 17.1736 38.25 17.1657 38.25 17.1579C38.25 17.1501 38.25 17.1424 38.25 17.1347C38.25 17.1271 38.25 17.1195 38.25 17.112C38.25 17.1045 38.25 17.0971 38.25 17.0897C38.25 17.0824 38.25 17.0751 38.25 17.068C38.25 17.0608 38.25 17.0537 38.25 17.0467C38.25 17.0396 38.25 17.0327 38.25 17.0258C38.25 17.019 38.25 17.0122 38.25 17.0055C38.25 16.9988 38.25 16.9922 38.25 16.9856C38.25 16.9791 38.25 16.9726 38.25 16.9662C38.25 16.9599 38.25 16.9536 38.25 16.9474C38.25 16.9411 38.25 16.935 38.25 16.929C38.25 16.9229 38.25 16.9169 38.25 16.911C38.25 16.9051 38.25 16.8993 38.25 16.8936C38.25 16.8879 38.25 16.8822 38.25 16.8767C38.25 16.8711 38.25 16.8656 38.25 16.8603C38.25 16.8549 38.25 16.8496 38.25 16.8443C38.25 16.8391 38.25 16.834 38.25 16.8289C38.25 16.8238 38.25 16.8189 38.25 16.814C38.25 16.8091 38.25 16.8043 38.25 16.7995C38.25 16.7948 38.25 16.7902 38.25 16.7856C38.25 16.7811 38.25 16.7766 38.25 16.7722C38.25 16.7678 38.25 16.7635 38.25 16.7593C38.25 16.7551 38.25 16.751 38.25 16.7469C38.25 16.7429 38.25 16.739 38.25 16.7351C38.25 16.7312 38.25 16.7274 38.25 16.7237C38.25 16.72 38.25 16.7164 38.25 16.7129C38.25 16.7094 38.25 16.706 38.25 16.7026C38.25 16.6993 38.25 16.696 38.25 16.6928C38.25 16.6897 38.25 16.6866 38.25 16.6836C38.25 16.6806 38.25 16.6777 38.25 16.6749C38.25 16.672 38.25 16.6693 38.25 16.6667H37.75ZM36.5136 14.1714C36.5231 14.1811 36.5113 14.169 36.5199 14.1779L36.8774 13.8283C36.8761 13.827 36.8749 13.8257 36.8739 13.8247C36.8728 13.8236 36.8719 13.8227 36.871 13.8217L36.5136 14.1714ZM28.4754 5.23953C28.4319 5.19507 28.3908 5.14521 28.3429 5.08603L27.9542 5.4005C28.0014 5.45885 28.0559 5.52581 28.1179 5.58918L28.4754 5.23953ZM37.75 42.6667C37.75 42.6667 38 42.6667 38.25 42.6667C38.25 42.6667 38.25 42.6667 38 42.6667C37.75 42.6667 37.75 42.6667 37.75 42.6667C38 42.6667 38.25 42.6667 38.25 42.6667H37.75ZM9.30435 3.75C9.30435 3.75 9.30435 4 9.30435 4.25C9.30435 4.25 9.30435 4.25 9.30435 4C9.30435 3.75 9.30435 3.75 9.30435 3.75C9.30435 4 9.30435 4.25 9.30435 4.25V3.75Z" fill="#EEEEEE" mask="url(#path-1-inside-1_84_14692)"/>
</g>
<path d="M16.9832 31.0057C16.5054 31.0057 16.0736 30.7562 15.77 30.2854C15.3189 29.5867 15.4374 28.7954 16.0948 28.1143C16.7577 27.4271 18.1143 26.7806 19.7467 26.2528C20.2559 25.2895 20.7743 24.1619 21.2587 22.9153C21.5448 22.1787 21.7758 21.5145 21.9609 20.9205C21.145 19.4193 20.6599 18.0216 20.7888 17.1141C20.92 16.1932 21.6053 15.6748 22.6238 15.7312C22.9262 15.7476 23.6477 15.9061 23.8219 17.0212C23.955 17.8738 23.7312 19.252 23.2824 20.8182C24.1316 22.256 25.2958 23.796 26.4346 24.978C28.156 24.8727 29.6147 24.9986 30.3483 25.4429C30.9229 25.7908 31.1484 26.358 30.9519 26.9599C30.6302 27.9437 29.853 28.3943 28.8707 28.1646C28.044 27.9709 27.0195 27.2464 25.9804 26.2406C24.3093 26.3881 22.3425 26.7296 20.617 27.2389C19.587 29.0943 18.4735 30.5388 17.5385 30.8975C17.3498 30.9702 17.1635 31.0057 16.9832 31.0057ZM16.8091 29.6098C16.9125 29.7695 16.9694 29.7662 16.996 29.7631C17.3903 29.7227 18.0471 29.0395 18.7971 27.8846C18.3012 28.098 17.8567 28.3292 17.4829 28.5775C16.5454 29.2006 16.7444 29.5084 16.8091 29.6098ZM27.7198 26.1585C28.249 26.5737 28.7408 26.8575 29.1521 26.954C29.4732 27.029 29.6383 26.9908 29.775 26.5728C29.5924 26.2947 28.8152 26.1612 27.7198 26.1585ZM22.8009 22.3256C22.3975 23.4784 21.904 24.6721 21.3651 25.7909C22.5258 25.4983 23.7493 25.2679 24.9178 25.1216C24.1623 24.2624 23.4323 23.2972 22.8009 22.3256ZM22.5027 16.9491C22.063 16.9491 22.0401 17.1145 22.0147 17.2893C21.9499 17.7485 22.1108 18.4017 22.4283 19.1547C22.7084 17.8128 22.6515 17.1029 22.5154 16.9491C22.5112 16.9491 22.507 16.9491 22.5027 16.9491Z" fill="#E35951"/>
<path d="M18 35.7354V39.6238H18.7961V38.4166H19.5474C20.3488 38.4166 20.905 37.8803 20.905 37.08C20.905 36.2716 20.3699 35.7354 19.5869 35.7354H18ZM18.7961 36.4036H19.376C19.8347 36.4036 20.0957 36.6408 20.0957 37.0827C20.0957 37.5192 19.8295 37.7564 19.3734 37.7564H18.7961V36.4036Z" fill="#AFAFAF"/>
<path d="M21.7458 35.7327V39.6238H23.2431C24.3819 39.6238 25.0277 38.9151 25.0277 37.6513C25.0277 36.4333 24.374 35.7327 23.2431 35.7327H21.7458ZM22.5419 36.4279H23.1166C23.8072 36.4279 24.2158 36.8779 24.2158 37.6648C24.2158 38.4866 23.8204 38.9286 23.1166 38.9286H22.5419V36.4279Z" fill="#AFAFAF"/>
<path d="M26.6831 39.6238V38.1094H28.2305V37.4438H26.6831V36.4306H28.3781V35.7354H25.887V39.6238H26.6831Z" fill="#AFAFAF"/>
<g filter="url(#filter1_ddd_84_14692)">
<path d="M26.8666 4.27856V15.3748C26.8666 16.1135 27.4483 16.7082 28.171 16.7082L37.9988 16.7617C38.0305 15.3822 37.0844 14.427 36.662 13.9952L28.2453 5.37951C27.8347 4.8484 27.233 4.34475 26.8794 4.27907L26.8666 4.27856Z" fill="white"/>
<path d="M37.874 16.636L28.1717 16.5832H28.171C27.5199 16.5832 26.9916 16.0471 26.9916 15.3748V4.44591C27.1227 4.503 27.2857 4.6079 27.462 4.75164C27.7005 4.94607 27.9469 5.19789 28.1464 5.45596L28.1508 5.46169L28.1558 5.46686L36.5726 14.0825L36.5727 14.0826L36.5783 14.0883C36.9925 14.5118 37.848 15.3864 37.874 16.636Z" stroke="#EEEEEE" stroke-width="0.25"/>
</g>
<defs>
<filter id="filter0_ddd_84_14692" x="0" y="0" width="46" height="56" filterUnits="userSpaceOnUse" color-interpolation-filters="sRGB">
<feFlood flood-opacity="0" result="BackgroundImageFix"/>
<feColorMatrix in="SourceAlpha" type="matrix" values="0 0 0 0 0 0 0 0 0 0 0 0 0 0 0 0 0 0 127 0" result="hardAlpha"/>
<feOffset/>
<feGaussianBlur stdDeviation="0.5"/>
<feColorMatrix type="matrix" values="0 0 0 0 0 0 0 0 0 0 0 0 0 0 0 0 0 0 0.04 0"/>
<feBlend mode="normal" in2="BackgroundImageFix" result="effect1_dropShadow_84_14692"/>
<feColorMatrix in="SourceAlpha" type="matrix" values="0 0 0 0 0 0 0 0 0 0 0 0 0 0 0 0 0 0 127 0" result="hardAlpha"/>
<feOffset/>
<feGaussianBlur stdDeviation="1"/>
<feColorMatrix type="matrix" values="0 0 0 0 0 0 0 0 0 0 0 0 0 0 0 0 0 0 0.06 0"/>
<feBlend mode="normal" in2="effect1_dropShadow_84_14692" result="effect2_dropShadow_84_14692"/>
<feColorMatrix in="SourceAlpha" type="matrix" values="0 0 0 0 0 0 0 0 0 0 0 0 0 0 0 0 0 0 127 0" result="hardAlpha"/>
<feOffset dy="4"/>
<feGaussianBlur stdDeviation="4"/>
<feColorMatrix type="matrix" values="0 0 0 0 0 0 0 0 0 0 0 0 0 0 0 0 0 0 0.04 0"/>
<feBlend mode="normal" in2="effect2_dropShadow_84_14692" result="effect3_dropShadow_84_14692"/>
<feBlend mode="normal" in="SourceGraphic" in2="effect3_dropShadow_84_14692" result="shape"/>
</filter>
<filter id="filter1_ddd_84_14692" x="18.8666" y="0.278564" width="27.1331" height="28.4832" filterUnits="userSpaceOnUse" color-interpolation-filters="sRGB">
<feFlood flood-opacity="0" result="BackgroundImageFix"/>
<feColorMatrix in="SourceAlpha" type="matrix" values="0 0 0 0 0 0 0 0 0 0 0 0 0 0 0 0 0 0 127 0" result="hardAlpha"/>
<feOffset/>
<feGaussianBlur stdDeviation="0.5"/>
<feColorMatrix type="matrix" values="0 0 0 0 0 0 0 0 0 0 0 0 0 0 0 0 0 0 0.04 0"/>
<feBlend mode="normal" in2="BackgroundImageFix" result="effect1_dropShadow_84_14692"/>
<feColorMatrix in="SourceAlpha" type="matrix" values="0 0 0 0 0 0 0 0 0 0 0 0 0 0 0 0 0 0 127 0" result="hardAlpha"/>
<feOffset/>
<feGaussianBlur stdDeviation="1"/>
<feColorMatrix type="matrix" values="0 0 0 0 0 0 0 0 0 0 0 0 0 0 0 0 0 0 0.06 0"/>
<feBlend mode="normal" in2="effect1_dropShadow_84_14692" result="effect2_dropShadow_84_14692"/>
<feColorMatrix in="SourceAlpha" type="matrix" values="0 0 0 0 0 0 0 0 0 0 0 0 0 0 0 0 0 0 127 0" result="hardAlpha"/>
<feOffset dy="4"/>
<feGaussianBlur stdDeviation="4"/>
<feColorMatrix type="matrix" values="0 0 0 0 0 0 0 0 0 0 0 0 0 0 0 0 0 0 0.04 0"/>
<feBlend mode="normal" in2="effect2_dropShadow_84_14692" result="effect3_dropShadow_84_14692"/>
<feBlend mode="normal" in="SourceGraphic" in2="effect3_dropShadow_84_14692" result="shape"/>
</filter>
</defs>
</svg>
