<svg width="169" height="36" viewBox="0 0 169 36" fill="none" xmlns="http://www.w3.org/2000/svg">
<path d="M23.8933 6.11825C26.467 5.82395 27.4475 4.30177 27.3445 2.79876C27.2615 1.5791 26.2021 -0.338683 23.5656 0.0514437C21.9978 0.282782 20.2616 1.58047 19.4643 3.74738C18.3741 2.39905 16.5777 1.09452 14.4749 0.957632C10.2719 0.712605 5.7413 3.8035 4.24045 8.83134C4.18627 9.0566 4.1465 9.28522 4.12139 9.51577C2.36104 11.105 0.117788 13.8619 7.40726e-05 17.6811C-0.000819774 17.7224 0.00638385 17.7634 0.0212597 17.8019C0.0361355 17.8403 0.0583821 17.8753 0.0866859 17.9047C0.11499 17.9342 0.148777 17.9576 0.186054 17.9735C0.223331 17.9894 0.263341 17.9975 0.303722 17.9973H4.22306C4.26343 17.9975 4.30344 17.9893 4.34066 17.9733C4.37789 17.9573 4.41157 17.9338 4.43968 17.9041C4.46779 17.8744 4.48975 17.8393 4.50425 17.8007C4.51874 17.7621 4.52547 17.721 4.52403 17.6797C4.49193 16.6613 4.51333 13.4184 5.92723 11.3528C6.95526 12.1998 8.0894 12.9024 9.29946 13.4417C8.8757 14.8153 8.65037 16.2449 8.63064 17.6852C8.62992 17.7262 8.63722 17.7671 8.65209 17.8052C8.66697 17.8434 8.68912 17.8782 8.71727 17.9075C8.74541 17.9368 8.77898 17.96 8.81601 17.9759C8.85304 17.9918 8.89279 18 8.93295 18H14.1739C14.2118 18.0001 14.249 17.99 14.2819 17.9706C14.3147 17.9512 14.3418 17.9232 14.3606 17.8895C14.3794 17.8558 14.3891 17.8176 14.3887 17.7788C14.3883 17.74 14.3779 17.702 14.3585 17.6687C14.0227 17.0965 13.3138 15.8783 12.9753 14.5847C13.4796 14.6778 13.9973 14.7585 14.5484 14.8064C16.5611 14.9759 18.5687 14.4222 20.2254 13.2405C20.2121 14.9461 19.5834 16.753 19.2222 17.562C19.201 17.6089 19.1917 17.6605 19.1953 17.712C19.1988 17.7636 19.215 17.8134 19.2423 17.8568C19.2697 17.9002 19.3073 17.9359 19.3517 17.9604C19.3962 17.985 19.4459 17.9976 19.4964 17.9973H24.6411C24.6813 17.9971 24.7212 17.9887 24.7583 17.9727C24.7954 17.9567 24.829 17.9333 24.8573 17.9039C24.8855 17.8745 24.9078 17.8397 24.9228 17.8014C24.9378 17.7632 24.9452 17.7223 24.9447 17.6811C24.8725 14.0809 23.48 11.7703 22.2988 10.448C20.7057 8.54799 21.2688 6.41803 23.8933 6.11825ZM23.2753 1.43263C23.456 1.43263 23.6326 1.48746 23.7829 1.59019C23.9331 1.69293 24.0502 1.83894 24.1194 2.00978C24.1885 2.18062 24.2066 2.3686 24.1714 2.54996C24.1361 2.73132 24.0491 2.89791 23.9213 3.02866C23.7936 3.15941 23.6308 3.24846 23.4535 3.28453C23.2763 3.32061 23.0926 3.30209 22.9257 3.23133C22.7587 3.16057 22.616 3.04073 22.5157 2.88698C22.4153 2.73324 22.3617 2.55248 22.3617 2.36756C22.3615 2.24473 22.385 2.12308 22.4309 2.00957C22.4767 1.89605 22.544 1.79291 22.6289 1.70606C22.7138 1.61921 22.8145 1.55035 22.9255 1.50343C23.0364 1.45651 23.1553 1.43245 23.2753 1.43263ZM10.4004 10.8956C9.48005 10.6615 7.45751 9.26801 7.04284 8.84229C7.30101 7.31738 8.9704 5.55702 9.93753 4.7754C11.0729 3.86525 12.4695 3.36303 13.9117 3.3463C15.8125 3.39969 16.8706 4.6741 17.5234 5.5488C17.613 5.6679 17.5876 5.86227 17.4418 5.88007C15.9837 6.07312 14.5862 6.59691 13.3512 7.4132C12.1487 8.23862 11.1601 9.47471 10.4004 10.8956ZM16.6686 12.5122C15.3082 12.8722 13.4837 12.53 13.3111 11.9222C13.1385 11.3145 14.6033 10.0058 16.8867 9.6554C18.5266 9.40627 19.4723 9.68414 19.6797 10.2509C19.9312 10.9421 18.4932 12.029 16.6686 12.5122Z" fill="#AFAFAF"/>
<path d="M34.8327 12.1373V7.67755H33.5459V5.89803H34.8327V4.00626H36.973V5.8994H38.8872V7.67892H36.973V11.9402C36.973 12.7957 37.4224 13.257 38.0993 13.257C38.4067 13.2445 38.7103 13.1836 38.9995 13.0764V14.9188C38.6178 15.0603 38.215 15.1326 37.809 15.1324C36.1169 15.1338 34.8327 14.0797 34.8327 12.1373Z" fill="#AFAFAF"/>
<path d="M39.659 10.4591C39.659 7.71042 41.5892 5.768 44.2913 5.768C46.9933 5.768 48.9236 7.71042 48.9236 10.4591C48.9236 13.2078 46.9773 15.1502 44.2913 15.1502C41.6053 15.1502 39.659 13.2078 39.659 10.4591ZM44.2913 13.2762C45.7386 13.2762 46.7526 12.1401 46.7526 10.4618C46.7526 8.78361 45.7386 7.62966 44.2913 7.62966C42.8439 7.62966 41.8139 8.78224 41.8139 10.4618C41.8139 12.1414 42.8279 13.2762 44.2913 13.2762Z" fill="#AFAFAF"/>
<path d="M50.1235 5.8994H52.2637V7.18339C52.7145 6.34291 53.3338 5.76799 54.3732 5.76799C54.735 5.7621 55.0948 5.82332 55.4353 5.94868V8.03893C55.0633 7.88084 54.6636 7.80256 54.2608 7.80896C52.9419 7.80896 52.2637 8.97661 52.2637 11.6596V15.0188H50.1235V5.8994Z" fill="#AFAFAF"/>
<path d="M57.5702 12.1373V7.67755H56.2834V5.89803H57.5702V4.00626H59.7105V5.8994H61.6247V7.67892H59.7091V11.9402C59.7091 12.7957 60.1599 13.257 60.8354 13.257C61.1428 13.2446 61.4465 13.1837 61.7357 13.0764V14.9188C61.354 15.0604 60.9511 15.1327 60.5452 15.1324C58.857 15.1338 57.5702 14.0797 57.5702 12.1373Z" fill="#AFAFAF"/>
<path d="M62.3951 10.4591C62.3951 7.71042 64.3254 5.768 67.0274 5.768C69.7295 5.768 71.6597 7.71042 71.6597 10.4591C71.6597 13.2078 69.7135 15.1502 67.0274 15.1502C64.3414 15.1502 62.3951 13.2078 62.3951 10.4591ZM67.0274 13.2762C68.4748 13.2762 69.4887 12.1401 69.4887 10.4618C69.4887 8.78361 68.4748 7.62966 67.0274 7.62966C65.5801 7.62966 64.5501 8.78224 64.5501 10.4618C64.5501 12.1414 65.564 13.2762 67.0274 13.2762Z" fill="#AFAFAF"/>
<path d="M74.1143 2.41016C74.838 2.41016 75.3691 2.9358 75.3691 3.64213C75.3691 4.34847 74.834 4.87411 74.1143 4.87411C73.3947 4.87411 72.8596 4.3471 72.8596 3.64213C72.8596 2.93717 73.3907 2.41016 74.1143 2.41016ZM73.0522 5.89939H75.1764V15.0188H73.0522V5.89939Z" fill="#AFAFAF"/>
<path d="M76.5462 12.0223H78.6062C78.6704 12.8779 79.3139 13.3912 80.2783 13.3912C81.1157 13.3912 81.6454 12.9805 81.6454 12.3385C81.6454 10.5768 76.7884 11.7458 76.7884 8.38799C76.7884 6.90551 78.027 5.77072 79.9573 5.77072C82.0641 5.77072 83.4151 6.85623 83.5596 8.61796H81.5009C81.4046 7.87741 80.8414 7.43252 79.9733 7.43252C79.2817 7.43252 78.7989 7.76242 78.7989 8.28806C78.7989 9.95124 83.704 8.63439 83.704 12.2893C83.704 14.0168 82.3049 15.1529 80.2783 15.1529C78.1073 15.1502 76.6479 13.9155 76.5462 12.0223Z" fill="#AFAFAF"/>
<path d="M84.7019 10.4591C84.7019 7.71042 86.584 5.768 89.1576 5.768C92.0362 5.768 93.806 8.02252 93.4194 10.9026H86.814C86.9745 12.4672 87.9243 13.3228 89.2218 13.3228C90.2919 13.3228 91.0076 12.8286 91.2002 12.0388H93.3873C93.0502 13.8005 91.5373 15.1502 89.2218 15.1502C86.4542 15.1502 84.7019 13.2078 84.7019 10.4591ZM91.2002 9.30652C91.1681 8.18679 90.3642 7.46266 89.1576 7.46266C87.9831 7.46266 87.1953 8.08823 86.905 9.30652H91.2002Z" fill="#AFAFAF"/>
<path d="M34.3116 33V21.672H36.4236V33H34.3116ZM42.3748 33.128C39.6228 33.128 37.8788 31.24 37.8788 28.568C37.8788 25.896 39.7508 24.008 42.3108 24.008C45.1748 24.008 46.9348 26.2 46.5508 29H39.9748C40.1348 30.52 41.0788 31.352 42.3748 31.352C43.4468 31.352 44.1508 30.872 44.3428 30.104H46.5188C46.1828 31.816 44.6788 33.128 42.3748 33.128ZM40.0708 27.448H44.3428C44.3108 26.36 43.5108 25.656 42.3108 25.656C41.1428 25.656 40.3588 26.264 40.0708 27.448ZM51.2612 33.128C49.1012 33.128 47.6452 31.928 47.5492 30.088H49.5972C49.6612 30.92 50.3012 31.416 51.2612 31.416C52.0932 31.416 52.6212 31.016 52.6212 30.392C52.6212 28.68 47.7892 29.816 47.7892 26.552C47.7892 25.112 49.0212 24.008 50.9412 24.008C53.0372 24.008 54.3812 25.064 54.5252 26.776H52.4772C52.3812 26.056 51.8212 25.624 50.9572 25.624C50.2692 25.624 49.7892 25.944 49.7892 26.456C49.7892 28.072 54.6692 26.792 54.6692 30.344C54.6692 32.024 53.2772 33.128 51.2612 33.128ZM59.3081 33.128C57.1481 33.128 55.6921 31.928 55.5961 30.088H57.6441C57.7081 30.92 58.3481 31.416 59.3081 31.416C60.1401 31.416 60.6681 31.016 60.6681 30.392C60.6681 28.68 55.8361 29.816 55.8361 26.552C55.8361 25.112 57.0681 24.008 58.9881 24.008C61.0841 24.008 62.4281 25.064 62.5721 26.776H60.5241C60.4281 26.056 59.8681 25.624 59.0041 25.624C58.3161 25.624 57.8361 25.944 57.8361 26.456C57.8361 28.072 62.7161 26.792 62.7161 30.344C62.7161 32.024 61.3241 33.128 59.3081 33.128ZM68.3149 33.128C65.6269 33.128 63.7069 31.24 63.7069 28.568C63.7069 25.896 65.6269 24.008 68.3149 24.008C70.9869 24.008 72.9229 25.896 72.9229 28.568C72.9229 31.24 70.9869 33.128 68.3149 33.128ZM65.8509 28.568C65.8509 30.2 66.8589 31.304 68.3149 31.304C69.7549 31.304 70.7629 30.2 70.7629 28.568C70.7629 26.936 69.7549 25.816 68.3149 25.816C66.8589 25.816 65.8509 26.936 65.8509 28.568ZM74.3741 33V24.136H76.5021V25.384C76.9501 24.568 77.9901 24.008 79.0301 24.008C79.4301 24.008 79.7981 24.072 80.0861 24.184V26.216C79.7501 26.072 79.3661 25.992 78.9181 25.992C77.6061 25.992 76.5021 27.128 76.5021 29.736V33H74.3741ZM87.9481 33.128C85.4201 33.128 83.6761 31.352 83.6761 28.568C83.6761 25.784 85.4201 24.008 87.9321 24.008C89.1161 24.008 90.1881 24.504 90.7321 25.272V21.672H92.8601V33H90.7321V31.864C90.1881 32.632 89.1321 33.128 87.9481 33.128ZM85.8201 28.568C85.8201 30.2 86.8281 31.304 88.2841 31.304C89.7241 31.304 90.7321 30.2 90.7321 28.568C90.7321 26.936 89.7241 25.816 88.2841 25.816C86.8281 25.816 85.8201 26.936 85.8201 28.568ZM97.5003 33.128C95.5963 33.128 94.4283 32.12 94.4283 30.568C94.4283 28.92 95.5803 27.928 98.1883 27.656L100.172 27.432V27.256C100.172 26.248 99.4363 25.656 98.3643 25.656C97.3243 25.656 96.5883 26.232 96.4763 27.224H94.4283C94.6523 25.368 96.2363 24.008 98.3643 24.008C100.652 24.008 102.284 25.256 102.284 27.496V33H100.172V31.832C99.7563 32.616 98.7003 33.128 97.5003 33.128ZM96.5563 30.488C96.5563 31.08 97.0843 31.496 97.8683 31.496C99.2283 31.496 100.172 30.568 100.172 29L98.2203 29.208C97.0843 29.336 96.5563 29.8 96.5563 30.488ZM107.277 33.128C105.117 33.128 103.661 31.928 103.565 30.088H105.613C105.677 30.92 106.317 31.416 107.277 31.416C108.109 31.416 108.637 31.016 108.637 30.392C108.637 28.68 103.805 29.816 103.805 26.552C103.805 25.112 105.037 24.008 106.957 24.008C109.053 24.008 110.397 25.064 110.541 26.776H108.493C108.397 26.056 107.837 25.624 106.973 25.624C106.285 25.624 105.805 25.944 105.805 26.456C105.805 28.072 110.685 26.792 110.685 30.344C110.685 32.024 109.293 33.128 107.277 33.128ZM112.14 33V21.672H114.268V25.336C114.764 24.616 115.868 24.008 117.116 24.008C119.036 24.008 120.444 25.272 120.444 27.176V33H118.316V27.72C118.316 26.616 117.644 25.88 116.572 25.88C115.212 25.88 114.268 26.952 114.268 29.032V33H112.14ZM127.161 33.128C125.993 33.128 124.937 32.632 124.393 31.864V33H122.265V21.672H124.393V25.272C124.937 24.504 126.009 24.008 127.193 24.008C129.705 24.008 131.433 25.784 131.433 28.568C131.433 31.352 129.705 33.128 127.161 33.128ZM124.393 28.568C124.393 30.2 125.401 31.304 126.841 31.304C128.281 31.304 129.289 30.2 129.289 28.568C129.289 26.936 128.281 25.816 126.841 25.816C125.401 25.816 124.393 26.936 124.393 28.568ZM137.065 33.128C134.377 33.128 132.457 31.24 132.457 28.568C132.457 25.896 134.377 24.008 137.065 24.008C139.737 24.008 141.673 25.896 141.673 28.568C141.673 31.24 139.737 33.128 137.065 33.128ZM134.601 28.568C134.601 30.2 135.609 31.304 137.065 31.304C138.505 31.304 139.513 30.2 139.513 28.568C139.513 26.936 138.505 25.816 137.065 25.816C135.609 25.816 134.601 26.936 134.601 28.568ZM145.844 33.128C143.94 33.128 142.772 32.12 142.772 30.568C142.772 28.92 143.924 27.928 146.532 27.656L148.516 27.432V27.256C148.516 26.248 147.78 25.656 146.708 25.656C145.668 25.656 144.932 26.232 144.82 27.224H142.772C142.996 25.368 144.58 24.008 146.708 24.008C148.996 24.008 150.628 25.256 150.628 27.496V33H148.516V31.832C148.1 32.616 147.044 33.128 145.844 33.128ZM144.9 30.488C144.9 31.08 145.428 31.496 146.212 31.496C147.572 31.496 148.516 30.568 148.516 29L146.564 29.208C145.428 29.336 144.9 29.8 144.9 30.488ZM152.437 33V24.136H154.565V25.384C155.013 24.568 156.053 24.008 157.093 24.008C157.493 24.008 157.861 24.072 158.149 24.184V26.216C157.813 26.072 157.429 25.992 156.981 25.992C155.669 25.992 154.565 27.128 154.565 29.736V33H152.437ZM162.776 33.128C160.248 33.128 158.504 31.352 158.504 28.568C158.504 25.784 160.248 24.008 162.76 24.008C163.944 24.008 165.016 24.504 165.56 25.272V21.672H167.688V33H165.56V31.864C165.016 32.632 163.96 33.128 162.776 33.128ZM160.648 28.568C160.648 30.2 161.656 31.304 163.112 31.304C164.552 31.304 165.56 30.2 165.56 28.568C165.56 26.936 164.552 25.816 163.112 25.816C161.656 25.816 160.648 26.936 160.648 28.568Z" fill="#167E62"/>
</svg>
