<svg width="43" height="42" viewBox="0 0 43 42" fill="none" xmlns="http://www.w3.org/2000/svg">
<rect x="0.25" width="42" height="42" rx="6" fill="#F9FAFB"/>
<g clip-path="url(#clip0_228_32710)">
<path d="M22.7187 15.6353L23.5781 14.7759C23.9163 14.4376 24.3179 14.1692 24.7598 13.9861C25.2018 13.803 25.6755 13.7087 26.1539 13.7087C26.6323 13.7087 27.106 13.803 27.5479 13.9861C27.9899 14.1692 28.3915 14.4376 28.7297 14.7759C29.068 15.1141 29.3364 15.5157 29.5195 15.9576C29.7026 16.3996 29.7968 16.8733 29.7968 17.3517C29.7968 17.83 29.7026 18.3037 29.5195 18.7457C29.3364 19.1877 29.068 19.5892 28.7297 19.9274L26.825 21.8321L26.0172 22.6399C25.6786 22.9786 25.2765 23.2472 24.834 23.4303C24.3914 23.6134 23.9172 23.7075 23.4382 23.7071C22.9593 23.7068 22.4852 23.612 22.0429 23.4282C21.6007 23.2444 21.199 22.9752 20.8609 22.636C20.511 22.2862 20.2362 21.8685 20.0535 21.4087C19.8708 20.9488 19.784 20.4564 19.7984 19.9618" stroke="#191919" stroke-width="1.25" stroke-linecap="round" stroke-linejoin="round"/>
<path d="M20.6289 25.5289L19.7696 26.3882C19.4309 26.7269 19.0289 26.9955 18.5863 27.1786C18.1438 27.3617 17.6695 27.4558 17.1906 27.4554C16.7117 27.4551 16.2376 27.3603 15.7953 27.1765C15.3531 26.9927 14.9514 26.7235 14.6133 26.3843C13.932 25.7007 13.5499 24.7747 13.5508 23.8095C13.5517 22.8444 13.9355 21.9191 14.618 21.2367L17.3305 18.5242C17.6687 18.1859 18.0703 17.9175 18.5122 17.7344C18.9542 17.5513 19.4279 17.457 19.9063 17.457C20.3847 17.457 20.8584 17.5513 21.3003 17.7344C21.7423 17.9175 22.1438 18.1859 22.4821 18.5242C22.8335 18.874 23.1095 19.2921 23.293 19.7527C23.4766 20.2133 23.5638 20.7067 23.5492 21.2023" stroke="#191919" stroke-width="1.25" stroke-linecap="round" stroke-linejoin="round"/>
</g>
<defs>
<clipPath id="clip0_228_32710">
<rect width="20" height="20" fill="white" transform="translate(11.6738 10.582)"/>
</clipPath>
</defs>
</svg>
