<svg width="19" height="18" viewBox="0 0 19 18" fill="none" xmlns="http://www.w3.org/2000/svg">
<path d="M17.6253 12.125H4.48932C4.69713 11.7156 4.90573 11.2945 5.11432 10.8664C6.28073 10.9953 7.66276 10.1789 9.23463 8.42734C9.28151 8.55703 9.33385 8.69062 9.39088 8.82578C9.89948 10.0172 10.5557 10.6961 11.344 10.8453C12.1518 11.0016 12.9518 10.593 13.7721 9.60938C14.3049 10.2398 15.3987 10.875 17.6253 10.875C17.791 10.875 17.95 10.8092 18.0672 10.6919C18.1844 10.5747 18.2503 10.4158 18.2503 10.25C18.2503 10.0842 18.1844 9.92527 18.0672 9.80806C17.95 9.69085 17.791 9.625 17.6253 9.625C15.2323 9.625 14.5354 8.79766 14.5003 8.35781C14.4965 8.21242 14.4421 8.07291 14.3465 7.96331C14.2508 7.85371 14.12 7.78089 13.9765 7.75738C13.833 7.73388 13.6857 7.76116 13.5601 7.83454C13.4346 7.90792 13.3385 8.02279 13.2885 8.15937C12.3378 9.58516 11.7745 9.65469 11.5698 9.61719C10.919 9.49453 10.3135 7.98203 10.1096 6.99922C10.083 6.8751 10.0191 6.76204 9.92658 6.6751C9.83406 6.58816 9.71725 6.53146 9.59171 6.51255C9.46617 6.49363 9.33784 6.5134 9.22381 6.56921C9.10978 6.62503 9.01545 6.71425 8.95338 6.825C7.40651 8.74844 6.36901 9.40312 5.71823 9.57031C6.38151 8.09531 6.87682 6.80078 7.19401 5.71094C7.72682 3.87969 7.76588 2.59922 7.31198 1.79687C7.0776 1.37812 6.58619 0.878906 5.60026 0.875H5.58073C4.33073 0.883594 3.34635 2.07031 2.87604 4.13281C2.59557 5.36016 2.54948 6.72578 2.74869 7.88281C2.94791 9.03984 3.36276 9.87578 3.96354 10.3742C3.67291 10.9781 3.37526 11.568 3.08619 12.1266H1.37526C1.2095 12.1266 1.05053 12.1924 0.933315 12.3096C0.816105 12.4268 0.750257 12.5858 0.750257 12.7516C0.750257 12.9173 0.816105 13.0763 0.933315 13.1935C1.05053 13.3107 1.2095 13.3766 1.37526 13.3766H2.42291C1.53854 15.0172 0.851038 16.1609 0.840101 16.1797C0.795542 16.2501 0.765502 16.3286 0.751746 16.4108C0.737989 16.493 0.740794 16.577 0.759996 16.6581C0.779197 16.7391 0.814408 16.8155 0.863558 16.8828C0.912708 16.95 0.974806 17.0068 1.0462 17.0497C1.1176 17.0926 1.19685 17.1208 1.2793 17.1327C1.36176 17.1445 1.44574 17.1397 1.52633 17.1187C1.60692 17.0976 1.68248 17.0606 1.74857 17.0099C1.81466 16.9592 1.86995 16.8958 1.91119 16.8234C1.92291 16.8031 2.79166 15.3555 3.84088 13.3766H17.6253C17.791 13.3766 17.95 13.3107 18.0672 13.1935C18.1844 13.0763 18.2503 12.9173 18.2503 12.7516C18.2503 12.5858 18.1844 12.4268 18.0672 12.3096C17.95 12.1924 17.791 12.1266 17.6253 12.1266V12.125ZM14.5003 8.375V8.35859C14.5008 8.36405 14.5008 8.36954 14.5003 8.375ZM4.09323 4.41094C4.40494 3.04531 5.00651 2.125 5.59401 2.125C6.00416 2.125 6.14088 2.27031 6.21901 2.41172C6.45338 2.82812 6.72838 4.30156 4.5276 9.15937C3.88776 8.27734 3.66979 6.26562 4.09323 4.41094Z" fill="#CBCBCB"/>
</svg>
