<svg width="60" height="32" viewBox="0 0 60 32" fill="none" xmlns="http://www.w3.org/2000/svg">
<g filter="url(#filter0_ii_84_15148)">
<path d="M55.1961 0.43457H44.3374C43.8061 0.43457 43.3599 0.79582 43.2111 1.30582C42.8074 2.68707 41.5111 3.70707 40.0024 3.70707C38.4936 3.70707 37.1974 2.70832 36.7936 1.30582C36.7265 1.05771 36.5801 0.838322 36.3768 0.681048C36.1735 0.523775 35.9244 0.437225 35.6674 0.43457H5.00362C2.43237 0.43457 0.349869 2.51707 0.349869 5.08832V26.9121C0.349869 29.4833 2.43237 31.5658 5.00362 31.5658H35.6674C36.1986 31.5658 36.6449 31.2046 36.7936 30.6946C37.1974 29.3133 38.4936 28.2933 40.0024 28.2933C41.5111 28.2933 42.8074 29.2921 43.2111 30.6946C43.3599 31.2046 43.8061 31.5658 44.3374 31.5658H55.1961C57.7674 31.5658 59.8499 29.4833 59.8499 26.9121V5.08832C59.8499 2.51707 57.7674 0.43457 55.1961 0.43457ZM40.0024 24.5958C38.1536 24.5958 36.6449 23.0871 36.6449 21.2383C36.6449 19.3896 38.1536 17.8808 40.0024 17.8808C41.8511 17.8808 43.3599 19.3896 43.3599 21.2383C43.3599 23.0871 41.8511 24.5958 40.0024 24.5958ZM40.0024 14.1408C38.1536 14.1408 36.6449 12.6321 36.6449 10.7833C36.6449 8.93457 38.1536 7.42582 40.0024 7.42582C41.8511 7.42582 43.3599 8.93457 43.3599 10.7833C43.3599 12.6321 41.8511 14.1408 40.0024 14.1408Z" fill="url(#paint0_linear_84_15148)"/>
</g>
<path d="M55.1961 0.43457H44.3374C43.8061 0.43457 43.3599 0.79582 43.2111 1.30582C42.8074 2.68707 41.5111 3.70707 40.0024 3.70707C38.4936 3.70707 37.1974 2.70832 36.7936 1.30582C36.7265 1.05771 36.5801 0.838322 36.3768 0.681048C36.1735 0.523775 35.9244 0.437225 35.6674 0.43457H5.00362C2.43237 0.43457 0.349869 2.51707 0.349869 5.08832V26.9121C0.349869 29.4833 2.43237 31.5658 5.00362 31.5658H35.6674C36.1986 31.5658 36.6449 31.2046 36.7936 30.6946C37.1974 29.3133 38.4936 28.2933 40.0024 28.2933C41.5111 28.2933 42.8074 29.2921 43.2111 30.6946C43.3599 31.2046 43.8061 31.5658 44.3374 31.5658H55.1961C57.7674 31.5658 59.8499 29.4833 59.8499 26.9121V5.08832C59.8499 2.51707 57.7674 0.43457 55.1961 0.43457ZM40.0024 24.5958C38.1536 24.5958 36.6449 23.0871 36.6449 21.2383C36.6449 19.3896 38.1536 17.8808 40.0024 17.8808C41.8511 17.8808 43.3599 19.3896 43.3599 21.2383C43.3599 23.0871 41.8511 24.5958 40.0024 24.5958ZM40.0024 14.1408C38.1536 14.1408 36.6449 12.6321 36.6449 10.7833C36.6449 8.93457 38.1536 7.42582 40.0024 7.42582C41.8511 7.42582 43.3599 8.93457 43.3599 10.7833C43.3599 12.6321 41.8511 14.1408 40.0024 14.1408Z" fill="url(#paint1_linear_84_15148)"/>
<path d="M29.3561 20.4952H9.29612C9.13985 20.4952 8.98511 20.4645 8.84073 20.4046C8.69635 20.3448 8.56517 20.2572 8.45467 20.1467C8.34417 20.0362 8.25651 19.905 8.19671 19.7606C8.1369 19.6162 8.10612 19.4615 8.10612 19.3052C8.10612 19.149 8.1369 18.9942 8.19671 18.8498C8.25651 18.7055 8.34417 18.5743 8.45467 18.4638C8.56517 18.3533 8.69635 18.2656 8.84073 18.2058C8.98511 18.146 9.13985 18.1152 9.29612 18.1152H29.3349C29.9936 18.1152 30.5249 18.6465 30.5249 19.3052C30.5277 19.4605 30.4995 19.6148 30.4421 19.759C30.3846 19.9033 30.299 20.0346 30.1902 20.1454C30.0813 20.2562 29.9516 20.3442 29.8084 20.4043C29.6651 20.4643 29.5114 20.4953 29.3561 20.4952ZM29.3561 25.1915H9.29612C8.98052 25.1915 8.67784 25.0661 8.45467 24.8429C8.2315 24.6198 8.10612 24.3171 8.10612 24.0015C8.10612 23.6859 8.2315 23.3832 8.45467 23.16C8.67784 22.9369 8.98052 22.8115 9.29612 22.8115H29.3349C29.9936 22.8115 30.5249 23.3427 30.5249 24.0015C30.5461 24.639 29.9936 25.1915 29.3561 25.1915Z" fill="#D88B4C"/>
<path d="M18.5611 10.5715H9.91237C9.67517 10.5715 9.4403 10.5248 9.22115 10.434C9.00201 10.3432 8.80289 10.2102 8.63516 10.0424C8.46744 9.87472 8.33439 9.6756 8.24362 9.45646C8.15285 9.23731 8.10612 9.00244 8.10612 8.76524C8.10612 8.52804 8.15285 8.29316 8.24362 8.07401C8.33439 7.85487 8.46744 7.65575 8.63516 7.48802C8.80289 7.3203 9.00201 7.18725 9.22115 7.09648C9.4403 7.0057 9.67517 6.95898 9.91237 6.95898H18.5611C19.5599 6.95898 20.3674 7.76649 20.3674 8.76524C20.3674 9.78524 19.5599 10.5715 18.5611 10.5715ZM54.4099 17.414H49.6924C48.9274 17.414 48.3111 18.0302 48.3111 18.7952V23.5127C48.3111 24.2777 48.9274 24.894 49.6924 24.894H54.4099C55.1749 24.894 55.7911 24.2777 55.7911 23.5127V18.7952C55.7911 18.0302 55.1749 17.414 54.4099 17.414Z" fill="#D6894C"/>
<defs>
<filter id="filter0_ii_84_15148" x="0.349869" y="-0.20293" width="59.5" height="32.4059" filterUnits="userSpaceOnUse" color-interpolation-filters="sRGB">
<feFlood flood-opacity="0" result="BackgroundImageFix"/>
<feBlend mode="normal" in="SourceGraphic" in2="BackgroundImageFix" result="shape"/>
<feColorMatrix in="SourceAlpha" type="matrix" values="0 0 0 0 0 0 0 0 0 0 0 0 0 0 0 0 0 0 127 0" result="hardAlpha"/>
<feOffset dy="0.6375"/>
<feGaussianBlur stdDeviation="1.0625"/>
<feComposite in2="hardAlpha" operator="arithmetic" k2="-1" k3="1"/>
<feColorMatrix type="matrix" values="0 0 0 0 0.866667 0 0 0 0 0.745098 0 0 0 0 0.270588 0 0 0 1 0"/>
<feBlend mode="normal" in2="shape" result="effect1_innerShadow_84_15148"/>
<feColorMatrix in="SourceAlpha" type="matrix" values="0 0 0 0 0 0 0 0 0 0 0 0 0 0 0 0 0 0 127 0" result="hardAlpha"/>
<feOffset dy="-0.6375"/>
<feGaussianBlur stdDeviation="1.0625"/>
<feComposite in2="hardAlpha" operator="arithmetic" k2="-1" k3="1"/>
<feColorMatrix type="matrix" values="0 0 0 0 0.815686 0 0 0 0 0.588235 0 0 0 0 0.286275 0 0 0 1 0"/>
<feBlend mode="normal" in2="effect1_innerShadow_84_15148" result="effect2_innerShadow_84_15148"/>
</filter>
<linearGradient id="paint0_linear_84_15148" x1="57.3509" y1="22.6727" x2="6.75037" y2="22.6727" gradientUnits="userSpaceOnUse">
<stop stop-color="#FFE74D"/>
<stop offset="1" stop-color="#F3C240"/>
</linearGradient>
<linearGradient id="paint1_linear_84_15148" x1="60.4024" y1="17.1604" x2="54.5947" y2="17.1604" gradientUnits="userSpaceOnUse">
<stop stop-color="#FFF250"/>
<stop offset="1" stop-color="#FFF250" stop-opacity="0"/>
</linearGradient>
</defs>
</svg>
