<svg width="28" height="18" viewBox="0 0 28 18" fill="none" xmlns="http://www.w3.org/2000/svg">
<path d="M24.1433 6.11825C26.717 5.82395 27.6975 4.30177 27.5945 2.79876C27.5115 1.5791 26.4521 -0.338683 23.8156 0.0514437C22.2478 0.282782 20.5116 1.58047 19.7143 3.74738C18.6241 2.39905 16.8277 1.09452 14.7249 0.957632C10.5219 0.712605 5.9913 3.8035 4.49045 8.83134C4.43627 9.0566 4.3965 9.28522 4.37139 9.51577C2.61104 11.105 0.367788 13.8619 0.250074 17.6811C0.24918 17.7224 0.256384 17.7634 0.27126 17.8019C0.286136 17.8403 0.308382 17.8753 0.336686 17.9047C0.36499 17.9342 0.398777 17.9576 0.436054 17.9735C0.473331 17.9894 0.513341 17.9975 0.553722 17.9973H4.47306C4.51343 17.9975 4.55344 17.9893 4.59066 17.9733C4.62789 17.9573 4.66157 17.9338 4.68968 17.9041C4.71779 17.8744 4.73975 17.8393 4.75425 17.8007C4.76874 17.7621 4.77547 17.721 4.77403 17.6797C4.74193 16.6613 4.76333 13.4184 6.17723 11.3528C7.20526 12.1998 8.3394 12.9024 9.54946 13.4417C9.1257 14.8153 8.90037 16.2449 8.88064 17.6852C8.87992 17.7262 8.88722 17.7671 8.90209 17.8052C8.91697 17.8434 8.93912 17.8782 8.96727 17.9075C8.99541 17.9368 9.02898 17.96 9.06601 17.9759C9.10304 17.9918 9.14279 18 9.18295 18H14.4239C14.4618 18.0001 14.499 17.99 14.5319 17.9706C14.5647 17.9512 14.5918 17.9232 14.6106 17.8895C14.6294 17.8558 14.6391 17.8176 14.6387 17.7788C14.6383 17.74 14.6279 17.702 14.6085 17.6687C14.2727 17.0965 13.5638 15.8783 13.2253 14.5847C13.7296 14.6778 14.2473 14.7585 14.7984 14.8064C16.8111 14.9759 18.8187 14.4222 20.4754 13.2405C20.4621 14.9461 19.8334 16.753 19.4722 17.562C19.451 17.6089 19.4417 17.6605 19.4453 17.712C19.4488 17.7636 19.465 17.8134 19.4923 17.8568C19.5197 17.9002 19.5573 17.9359 19.6017 17.9604C19.6462 17.985 19.6959 17.9976 19.7464 17.9973H24.8911C24.9313 17.9971 24.9712 17.9887 25.0083 17.9727C25.0454 17.9567 25.079 17.9333 25.1073 17.9039C25.1355 17.8745 25.1578 17.8397 25.1728 17.8014C25.1878 17.7632 25.1952 17.7223 25.1947 17.6811C25.1225 14.0809 23.73 11.7703 22.5488 10.448C20.9557 8.54799 21.5188 6.41803 24.1433 6.11825ZM23.5253 1.43263C23.706 1.43263 23.8826 1.48746 24.0329 1.59019C24.1831 1.69293 24.3002 1.83894 24.3694 2.00978C24.4385 2.18062 24.4566 2.3686 24.4214 2.54996C24.3861 2.73132 24.2991 2.89791 24.1713 3.02866C24.0436 3.15941 23.8808 3.24846 23.7035 3.28453C23.5263 3.32061 23.3426 3.30209 23.1757 3.23133C23.0087 3.16057 22.866 3.04073 22.7657 2.88698C22.6653 2.73324 22.6117 2.55248 22.6117 2.36756C22.6115 2.24473 22.635 2.12308 22.6809 2.00957C22.7267 1.89605 22.794 1.79291 22.8789 1.70606C22.9638 1.61921 23.0645 1.55035 23.1755 1.50343C23.2864 1.45651 23.4053 1.43245 23.5253 1.43263ZM10.6504 10.8956C9.73005 10.6615 7.70751 9.26801 7.29284 8.84229C7.55101 7.31738 9.2204 5.55702 10.1875 4.7754C11.3229 3.86525 12.7195 3.36303 14.1617 3.3463C16.0625 3.39969 17.1206 4.6741 17.7734 5.5488C17.863 5.6679 17.8376 5.86227 17.6918 5.88007C16.2337 6.07312 14.8362 6.59691 13.6012 7.4132C12.3987 8.23862 11.4101 9.47471 10.6504 10.8956ZM16.9186 12.5122C15.5582 12.8722 13.7337 12.53 13.5611 11.9222C13.3885 11.3145 14.8533 10.0058 17.1367 9.6554C18.7766 9.40627 19.7223 9.68414 19.9297 10.2509C20.1812 10.9421 18.7432 12.029 16.9186 12.5122Z" fill="#AFAFAF"/>
</svg>
