<svg width="14" height="14" viewBox="0 0 14 14" fill="none" xmlns="http://www.w3.org/2000/svg">
<path d="M1.33775 13.8904C0.906785 13.8904 0.517284 13.6654 0.243456 13.2408C-0.163498 12.6106 -0.0565504 11.8968 0.536428 11.2825C1.13434 10.6627 2.35791 10.0795 3.83035 9.60342C4.28966 8.73451 4.75722 7.71744 5.19414 6.59303C5.45221 5.92861 5.66056 5.32958 5.82751 4.79382C5.09159 3.43972 4.65406 2.17905 4.77028 1.36044C4.88866 0.529815 5.50673 0.062223 6.42542 0.113144C6.69817 0.127945 7.34898 0.270864 7.50612 1.27666C7.62613 2.0457 7.42427 3.28886 7.01948 4.70155C7.78543 5.99841 8.83555 7.38747 9.86275 8.45356C11.4153 8.35857 12.7311 8.47216 13.3928 8.87294C13.911 9.18669 14.1145 9.69834 13.9372 10.2412C13.647 11.1285 12.946 11.535 12.0601 11.3278C11.3143 11.1531 10.3902 10.4996 9.45302 9.59243C7.94575 9.7255 6.17168 10.0335 4.6153 10.4928C3.68626 12.1664 2.68193 13.4693 1.8386 13.7929C1.6684 13.8584 1.50037 13.8904 1.33775 13.8904ZM1.18068 12.6314C1.27396 12.7754 1.32524 12.7724 1.34925 12.7696C1.70493 12.7332 2.29737 12.117 2.97382 11.0753C2.52648 11.2677 2.12555 11.4763 1.78841 11.7003C0.94284 12.2623 1.1223 12.5399 1.18068 12.6314ZM11.022 9.51835C11.4993 9.89286 11.9428 10.1488 12.3138 10.2359C12.6035 10.3036 12.7524 10.2691 12.8757 9.89205C12.711 9.64124 12.0099 9.5208 11.022 9.51835ZM6.5852 6.06114C6.22134 7.10096 5.77616 8.17763 5.29013 9.18675C6.33701 8.92285 7.44057 8.71502 8.49456 8.5831C7.81316 7.80808 7.15471 6.93753 6.5852 6.06114ZM6.31624 1.21162C5.91964 1.21162 5.89894 1.36085 5.87601 1.5185C5.81763 1.93273 5.96273 2.52185 6.24914 3.20107C6.50173 1.99071 6.45045 1.35039 6.32767 1.21162C6.32389 1.21162 6.3201 1.21162 6.31624 1.21162Z" fill="#E35951"/>
</svg>
