<svg width="30" height="19" viewBox="0 0 30 19" fill="none" xmlns="http://www.w3.org/2000/svg">
<path d="M25.5619 6.39631C28.3153 6.08862 29.3643 4.49727 29.2541 2.92595C29.1654 1.65086 28.032 -0.354075 25.2113 0.0537817C23.5341 0.295633 21.6766 1.65229 20.8237 3.91768C19.6573 2.50807 17.7354 1.14426 15.4857 1.00115C10.9893 0.744991 6.14225 3.97636 4.53659 9.2327C4.47863 9.46819 4.43609 9.70721 4.40922 9.94823C2.52593 11.6097 0.126014 14.4919 7.92457e-05 18.4846C-0.000877025 18.5278 0.00682969 18.5707 0.0227444 18.6109C0.0386591 18.6511 0.0624593 18.6876 0.0927399 18.7184C0.12302 18.7493 0.159168 18.7737 0.199048 18.7903C0.238927 18.8069 0.281732 18.8154 0.324933 18.8152H4.51798C4.56118 18.8154 4.60398 18.8069 4.6438 18.7901C4.68363 18.7734 4.71966 18.7488 4.74973 18.7178C4.77981 18.6868 4.80331 18.65 4.81881 18.6097C4.83432 18.5694 4.84152 18.5263 4.83998 18.4832C4.80563 17.4184 4.82853 14.0282 6.34117 11.8687C7.441 12.7543 8.65434 13.4887 9.94891 14.0526C9.49555 15.4886 9.25449 16.9831 9.23338 18.4889C9.23262 18.5318 9.24042 18.5745 9.25633 18.6144C9.27225 18.6543 9.29595 18.6907 9.32606 18.7213C9.35617 18.7519 9.39208 18.7763 9.43169 18.7929C9.47131 18.8095 9.51384 18.818 9.5568 18.818H15.1638C15.2043 18.8182 15.2442 18.8076 15.2793 18.7873C15.3144 18.767 15.3434 18.7377 15.3635 18.7025C15.3836 18.6673 15.394 18.6273 15.3936 18.5868C15.3932 18.5462 15.382 18.5065 15.3612 18.4717C15.002 17.8735 14.2436 16.5999 13.8815 15.2475C14.421 15.3448 14.9749 15.4292 15.5645 15.4793C17.7177 15.6565 19.8654 15.0776 21.6379 13.8422C21.6236 15.6253 20.951 17.5143 20.5646 18.3601C20.542 18.4091 20.532 18.4631 20.5358 18.517C20.5396 18.5709 20.5569 18.6229 20.5862 18.6683C20.6154 18.7137 20.6557 18.751 20.7032 18.7767C20.7507 18.8023 20.804 18.8156 20.858 18.8152H26.3619C26.405 18.815 26.4476 18.8063 26.4873 18.7895C26.527 18.7728 26.563 18.7483 26.5932 18.7176C26.6234 18.6869 26.6473 18.6504 26.6633 18.6104C26.6794 18.5705 26.6873 18.5277 26.6868 18.4846C26.6095 14.7209 25.1197 12.3052 23.8561 10.9228C22.1517 8.93646 22.7542 6.70971 25.5619 6.39631ZM24.9008 1.49774C25.0941 1.49774 25.2831 1.55506 25.4438 1.66246C25.6046 1.76986 25.7298 1.92252 25.8038 2.10112C25.8778 2.27972 25.8971 2.47624 25.8594 2.66585C25.8217 2.85545 25.7286 3.02961 25.5919 3.1663C25.4552 3.303 25.2811 3.39609 25.0915 3.4338C24.9019 3.47152 24.7053 3.45216 24.5267 3.37818C24.3481 3.3042 24.1955 3.17892 24.0881 3.01819C23.9807 2.85745 23.9234 2.66848 23.9234 2.47516C23.9232 2.34675 23.9483 2.21957 23.9974 2.10089C24.0464 1.98222 24.1184 1.8744 24.2092 1.7836C24.3 1.6928 24.4078 1.62081 24.5265 1.57175C24.6452 1.5227 24.7724 1.49755 24.9008 1.49774ZM11.1267 11.3908C10.1421 11.146 7.97832 9.68921 7.53469 9.24414C7.81089 7.64993 9.59687 5.80956 10.6315 4.99242C11.8462 4.04092 13.3404 3.51586 14.8833 3.49838C16.9168 3.55419 18.0488 4.88652 18.7472 5.80098C18.843 5.92548 18.8159 6.12869 18.6599 6.1473C17.1 6.34912 15.6049 6.89671 14.2836 7.7501C12.9971 8.61304 11.9395 9.9053 11.1267 11.3908ZM17.8327 13.0809C16.3773 13.4572 14.4253 13.0995 14.2407 12.4641C14.0561 11.8287 15.6231 10.4606 18.066 10.0942C19.8205 9.83375 20.8322 10.1243 21.0541 10.7167C21.3231 11.4394 19.7847 12.5757 17.8327 13.0809Z" fill="#0D8F44"/>
</svg>
