<svg width="63" height="63" viewBox="0 0 63 63" fill="none" xmlns="http://www.w3.org/2000/svg">
<circle opacity="0.6" cx="31.0176" cy="31.0176" r="31.0176" fill="#A4F6B5"/>
<g filter="url(#filter0_d_1529_6785)">
<circle cx="31.0371" cy="31.0371" r="22.0371" fill="white"/>
<circle cx="31.0371" cy="31.0371" r="21.4731" stroke="#2AC393" stroke-width="1.12796"/>
</g>
<path d="M39.3126 29.6281L24.4386 27.0078V46.3699C24.4384 46.5804 24.4798 46.7888 24.5603 46.9832C24.6408 47.1776 24.759 47.3542 24.9079 47.5029C25.0568 47.6516 25.2336 47.7694 25.4282 47.8496C25.6228 47.9298 25.8312 47.9708 26.0417 47.9703H51.7073C51.918 47.9712 52.1267 47.9304 52.3216 47.8504C52.5165 47.7703 52.6936 47.6526 52.8428 47.5039C52.9921 47.3552 53.1104 47.1784 53.1911 46.9838C53.2718 46.7892 53.3133 46.5806 53.3131 46.3699V39.2359L39.3126 29.6281Z" fill="#185C37"/>
<path d="M39.3121 13.0313H26.0413C25.8308 13.0307 25.6223 13.0717 25.4278 13.1519C25.2332 13.2322 25.0564 13.35 24.9075 13.4987C24.7585 13.6473 24.6404 13.824 24.5599 14.0184C24.4793 14.2128 24.438 14.4212 24.4382 14.6317V21.7656L39.3121 30.5L47.1878 33.1203L53.3127 30.5V21.7656L39.3121 13.0313Z" fill="#21A366"/>
<path d="M24.4382 21.7656H39.3121V30.5H24.4382V21.7656Z" fill="#107C41"/>
<path opacity="0.1" d="M35.0838 20.0098H24.4386V41.8457H35.0838C35.5079 41.8436 35.9142 41.6744 36.2145 41.3749C36.5148 41.0753 36.685 40.6695 36.6882 40.2453V21.6102C36.685 21.186 36.5148 20.7802 36.2145 20.4806C35.9142 20.181 35.5079 20.0119 35.0838 20.0098Z" fill="black"/>
<path opacity="0.2" d="M34.209 20.8906H24.4386V42.7266H34.209C34.6332 42.7245 35.0394 42.5553 35.3397 42.2557C35.6401 41.9562 35.8103 41.5503 35.8134 41.1262V22.491C35.8103 22.0669 35.6401 21.661 35.3397 21.3615C35.0394 21.0619 34.6332 20.8927 34.209 20.8906Z" fill="black"/>
<path opacity="0.2" d="M34.209 20.8906H24.4386V40.9797H34.209C34.6332 40.9776 35.0394 40.8084 35.3397 40.5089C35.6401 40.2093 35.8103 39.8034 35.8134 39.3793V22.491C35.8103 22.0669 35.6401 21.661 35.3397 21.3615C35.0394 21.0619 34.6332 20.8927 34.209 20.8906Z" fill="black"/>
<path opacity="0.2" d="M33.3342 20.8906H24.4386V40.9797H33.3342C33.7584 40.9776 34.1646 40.8084 34.465 40.5089C34.7653 40.2093 34.9355 39.8034 34.9386 39.3793V22.491C34.9355 22.0669 34.7653 21.661 34.465 21.3615C34.1646 21.0619 33.7584 20.8927 33.3342 20.8906Z" fill="black"/>
<path d="M17.2915 20.8906H33.3332C33.7581 20.8903 34.1658 21.0586 34.4667 21.3587C34.7675 21.6588 34.9369 22.0661 34.9376 22.491V38.5059C34.9369 38.9308 34.7675 39.3381 34.4667 39.6382C34.1658 39.9382 33.7581 40.1066 33.3332 40.1063H17.2915C17.081 40.107 16.8723 40.0661 16.6776 39.986C16.4829 39.9058 16.3059 39.788 16.1569 39.6393C16.0078 39.4906 15.8895 39.314 15.8089 39.1194C15.7283 38.9249 15.6869 38.7164 15.6871 38.5059V22.491C15.6869 22.2805 15.7283 22.072 15.8089 21.8774C15.8895 21.6829 16.0078 21.5063 16.1569 21.3576C16.3059 21.2089 16.4829 21.0911 16.6776 21.0109C16.8723 20.9308 17.081 20.8899 17.2915 20.8906Z" fill="url(#paint0_linear_1529_6785)"/>
<path d="M20.6589 35.7153L24.033 30.4962L20.9424 25.3066H23.4243L25.1107 28.6297C25.2666 28.9442 25.3795 29.178 25.4305 29.3339H25.4534C25.5635 29.0821 25.68 28.8376 25.8027 28.6002L27.606 25.312H29.8904L26.7205 30.472L29.971 35.7194H27.5402L25.5918 32.0765C25.5016 31.9197 25.4247 31.7556 25.362 31.586H25.3297C25.2728 31.7513 25.197 31.9096 25.104 32.0576L23.0978 35.7153H20.6589Z" fill="white"/>
<path d="M51.7085 13.0313H39.3124V21.7656H53.3129V14.6317C53.3131 14.4211 53.2717 14.2126 53.1911 14.0181C53.1105 13.8236 52.9922 13.6469 52.8431 13.4982C52.6941 13.3495 52.5171 13.2317 52.3224 13.1516C52.1277 13.0714 51.919 13.0306 51.7085 13.0313Z" fill="#33C481"/>
<path d="M39.3124 30.5H53.3129V39.2344H39.3124V30.5Z" fill="#107C41"/>
<defs>
<filter id="filter0_d_1529_6785" x="4.48815" y="5.61612" width="53.0979" height="53.0979" filterUnits="userSpaceOnUse" color-interpolation-filters="sRGB">
<feFlood flood-opacity="0" result="BackgroundImageFix"/>
<feColorMatrix in="SourceAlpha" type="matrix" values="0 0 0 0 0 0 0 0 0 0 0 0 0 0 0 0 0 0 127 0" result="hardAlpha"/>
<feOffset dy="1.12796"/>
<feGaussianBlur stdDeviation="2.25592"/>
<feComposite in2="hardAlpha" operator="out"/>
<feColorMatrix type="matrix" values="0 0 0 0 0.175598 0 0 0 0 0.633366 0 0 0 0 0.313552 0 0 0 1 0"/>
<feBlend mode="normal" in2="BackgroundImageFix" result="effect1_dropShadow_1529_6785"/>
<feBlend mode="normal" in="SourceGraphic" in2="effect1_dropShadow_1529_6785" result="shape"/>
</filter>
<linearGradient id="paint0_linear_1529_6785" x1="19.0384" y1="19.6329" x2="31.5863" y2="41.364" gradientUnits="userSpaceOnUse">
<stop stop-color="#18884F"/>
<stop offset="0.5" stop-color="#117E43"/>
<stop offset="1" stop-color="#0B6631"/>
</linearGradient>
</defs>
</svg>
